<svg xmlns="http://www.w3.org/2000/svg" width="15" height="15" viewBox="0 0 15 15"><g><g><path fill="#616161" d="M14.18.82c.546.547.82 1.211.82 1.992v9.375c0 .781-.274 1.446-.82 1.992a2.712 2.712 0 0 1-1.993.82H2.812a2.71 2.71 0 0 1-1.992-.82A2.71 2.71 0 0 1 0 12.187V2.812C0 2.031.273 1.367.82.82A2.712 2.712 0 0 1 2.812 0h9.375c.781 0 1.446.273 1.993.82zM9.61 5.947H8.202v-.761c0-.235.034-.401.103-.499.068-.097.239-.146.512-.146h.762V2.988H8.35c-.704 0-1.182.17-1.436.513-.254.341-.38.855-.38 1.537v.91H5.39v1.551h1.142v4.512h1.67V7.499h1.23z"/></g></g></svg>