<svg xmlns="http://www.w3.org/2000/svg" width="15" height="15" viewBox="0 0 15 15"><g><g><path fill="#616161" d="M14.18.82c.546.547.82 1.211.82 1.992v9.375c0 .781-.274 1.446-.82 1.992a2.712 2.712 0 0 1-1.993.82H2.812a2.71 2.71 0 0 1-1.992-.82A2.71 2.71 0 0 1 0 12.187V2.812C0 2.032.273 1.367.82.82A2.712 2.712 0 0 1 2.812 0h9.375c.781 0 1.446.273 1.993.82zm-3.076 4.336c.41-.253.673-.596.79-1.026a3.378 3.378 0 0 1-1.171.44c-.352-.39-.801-.586-1.348-.586-.508 0-.943.186-1.304.557-.361.37-.542.8-.542 1.289 0 .097.02.244.059.439-1.563-.097-2.832-.742-3.809-1.933a1.898 1.898 0 0 0-.263.937c0 .645.283 1.153.85 1.523-.313 0-.597-.077-.85-.234v.03c0 .43.141.815.424 1.157.283.342.64.561 1.07.658-.235.04-.4.06-.498.06-.157 0-.274-.01-.352-.03.273.82.85 1.25 1.729 1.289a3.653 3.653 0 0 1-2.285.791c-.06 0-.137-.005-.235-.015a2.403 2.403 0 0 0-.205-.014c.86.547 1.797.82 2.813.82 1.6 0 2.88-.541 3.837-1.626.957-1.084 1.436-2.29 1.436-3.618a.69.69 0 0 0-.015-.132.581.581 0 0 1-.014-.102c.351-.235.663-.557.937-.967a5.032 5.032 0 0 1-1.054.293z"/></g></g></svg>