<svg xmlns="http://www.w3.org/2000/svg" width="15" height="15" viewBox="0 0 15 15"><g><g><path fill="#616161" d="M14.18.82c.546.547.82 1.21.82 1.992v9.375c0 .781-.274 1.446-.82 1.992a2.713 2.713 0 0 1-1.993.821H2.812a2.712 2.712 0 0 1-1.992-.82A2.71 2.71 0 0 1 0 12.186V2.812C0 2.031.273 1.367.82.82A2.712 2.712 0 0 1 2.812 0h9.375c.781 0 1.446.273 1.993.82zM5.625 4.57H3.75v6.562h1.875zm-.249-1.904a.83.83 0 0 0-.63-.264.828.828 0 0 0-.63.264.866.866 0 0 0-.249.615.851.851 0 0 0 .88.879.853.853 0 0 0 .879-.878.868.868 0 0 0-.25-.616zm6.811 4.452c0-.507-.068-.946-.205-1.317-.136-.371-.307-.635-.512-.792a2.32 2.32 0 0 0-.586-.337 1.644 1.644 0 0 0-.572-.102c-.722 0-1.347.205-1.875.615V4.57H6.562v6.562h1.875V7.09l.06-.205c.058-.137.18-.274.365-.41.186-.137.425-.206.718-.206.488 0 .732.274.732.82v4.043h1.875z"/></g></g></svg>