<svg xmlns="http://www.w3.org/2000/svg" width="55" height="43" viewBox="0 0 55 43"><g><g><g><path fill="#b27cf5" d="M46.406 42.999H0V6.893h46.406zM1.72 8.612v22.889L12.89 20.218l12.246 13.969 8.486-5.157 11.064 9.563V8.613zM44.687 41.28v-.43l-11.279-9.67-8.701 5.157-11.816-13.539L1.719 33.865v7.414zM7.734.016H55v36.106h-7.734v-1.72h6.015V1.735H9.453v4.299H7.734zM29.22 18.929c0-1.433.5-2.65 1.504-3.654 1.002-1.003 2.218-1.504 3.652-1.504 1.432 0 2.649.501 3.652 1.504 1.002 1.004 1.504 2.22 1.504 3.654 0 1.433-.502 2.65-1.504 3.653-1.003 1.004-2.22 1.504-3.652 1.504-1.434 0-2.65-.5-3.652-1.504-1.004-1.002-1.504-2.22-1.504-3.653zm1.718 0c0 1.003.323 1.826.967 2.47.645.646 1.467.968 2.471.968 1.002 0 1.826-.322 2.47-.967.645-.645.967-1.468.967-2.471 0-1.003-.322-1.827-.966-2.472-.645-.645-1.469-.967-2.471-.967-1.004 0-1.826.322-2.47.967-.645.645-.968 1.47-.968 2.472z"/></g></g></g></svg>