<svg xmlns="http://www.w3.org/2000/svg" width="45" height="40" viewBox="0 0 45 40"><g><g><g><path fill="#feb960" d="M28.246 40.016H.755v-40h27.49zM2.004 1.266v3.75h24.992v-3.75zm0 5v25h24.992v-25zm24.992 32.5v-6.25H2.004v6.25zM12.001 2.517h4.998v1.25h-4.998zm4.374 33.125c0 .521-.183.965-.547 1.328a1.807 1.807 0 0 1-1.328.547c-.52 0-.964-.182-1.328-.547a1.805 1.805 0 0 1-.546-1.328c0-.52.182-.963.546-1.328a1.806 1.806 0 0 1 1.328-.547c.52 0 .963.183 1.328.547.364.365.547.808.547 1.328zm-1.875-.624c-.417 0-.625.208-.625.624 0 .418.208.625.625.625.416 0 .625-.207.625-.625 0-.416-.209-.624-.625-.624zm14.034-25h15.932v29.999H28.534zm14.995 29.062v-4.688H29.471v4.688zm0-5.625v-18.75H29.471v18.75zm-14.058-22.5v2.812h14.058v-2.812zm5.155.938h3.748v.936h-3.748zm3.28 24.843c0 .39-.137.723-.41.996-.274.274-.606.41-.996.41s-.723-.136-.996-.41a1.354 1.354 0 0 1-.41-.996c0-.39.137-.722.41-.996.273-.273.605-.41.996-.41.39 0 .722.137.996.41.273.274.41.606.41.996zm-1.406-.469c-.313 0-.469.157-.469.469 0 .313.156.469.47.469.311 0 .468-.156.468-.47 0-.31-.157-.468-.469-.468z"/></g></g></g></svg>