<svg xmlns="http://www.w3.org/2000/svg" width="47" height="48" viewBox="0 0 47 48"><g><g><g><path fill="#38c695" d="M45.043 8.268c-.742.899-1.696 1.465-2.866 1.699v34.096H40.19V9.967a4.725 4.725 0 0 1-2.865-1.758c-.742-.937-1.111-1.992-1.111-3.163 0-1.406.486-2.596 1.462-3.574.974-.976 2.163-1.464 3.567-1.464 1.324 0 2.474.488 3.45 1.464.974.978 1.462 2.168 1.462 3.574 0 1.25-.371 2.325-1.111 3.222zm-1.755-1.055c.585-.586.877-1.307.877-2.167 0-.859-.292-1.582-.877-2.168C42.704 2.292 42.02 2 41.242 2c-.86 0-1.58.293-2.164.88-.585.585-.877 1.308-.877 2.167 0 .86.292 1.581.877 2.167.585.586 1.305.88 2.164.88.778 0 1.462-.294 2.046-.88zM9.138 39.844c.74.938 1.111 1.992 1.111 3.164 0 1.406-.488 2.598-1.462 3.574-.976.978-2.164 1.465-3.567 1.465-1.327 0-2.476-.487-3.45-1.465-.976-.976-1.462-2.168-1.462-3.574 0-1.248.369-2.323 1.11-3.222.741-.897 1.697-1.464 2.866-1.699V3.991h1.988v34.096c1.17.235 2.124.82 2.866 1.757zm-1.754 5.332c.584-.586.877-1.307.877-2.168 0-.858-.293-1.582-.877-2.168-.585-.585-1.307-.878-2.164-.878-.78 0-1.462.293-2.047.878-.584.586-.877 1.31-.877 2.168 0 .861.293 1.582.877 2.168.585.586 1.267.878 2.047.878.857 0 1.579-.292 2.164-.878zm19.765-24.313c.74.938 1.11 1.992 1.11 3.164 0 1.172-.37 2.226-1.11 3.163a4.731 4.731 0 0 1-2.866 1.758v15.115h-2.105V28.948a4.726 4.726 0 0 1-2.865-1.758c-.742-.937-1.111-1.991-1.111-3.163 0-1.172.369-2.226 1.11-3.164a4.73 4.73 0 0 1 2.866-1.758V3.991h2.105v15.114c1.17.235 2.124.821 2.866 1.758zm-.877 3.164c0-.78-.313-1.483-.936-2.11-.625-.624-1.327-.936-2.105-.936-.78 0-1.482.312-2.105.937-.625.626-.936 1.329-.936 2.109 0 .782.31 1.484.936 2.109.623.626 1.325.937 2.105.937.778 0 1.48-.311 2.105-.937.623-.625.936-1.327.936-2.11z"/></g></g></g></svg>