<svg xmlns="http://www.w3.org/2000/svg" width="53" height="47" viewBox="0 0 53 47"><g><g><g><path fill="#feb960" d="M27.312 35.94v3.857l9.367 5.26-.937 1.753-9.483-5.26-9.484 5.26-.937-1.753 9.367-5.26V35.94H.266V.057h51.985V35.94zM2.257 33.953H50.26V2.043H2.257zM29.303 7.77l1.873.585-5.503 18.467-6.44-8.883-4.214 8.299-5.62-11.455-3.162 11.688-1.99-.467L8.813 9.29l6.206 12.507 3.98-7.715 5.972 8.3zm15.22 5.96c1.171 1.17 1.757 2.613 1.757 4.326 0 1.636-.586 3.038-1.757 4.207-1.17 1.169-2.616 1.754-4.332 1.754-1.639 0-3.044-.585-4.215-1.754-1.17-1.169-1.756-2.571-1.756-4.207 0-1.713.586-3.156 1.756-4.325 1.171-1.169 2.576-1.753 4.215-1.753 1.716 0 3.162.584 4.332 1.753zm-1.463 7.13c.82-.777 1.23-1.712 1.23-2.804 0-1.09-.41-2.025-1.23-2.806-.82-.777-1.776-1.169-2.869-1.169-1.094 0-2.03.392-2.81 1.17-.78.78-1.17 1.714-1.17 2.805 0 1.092.41 2.027 1.229 2.805.82.78 1.736 1.169 2.751 1.169 1.093 0 2.05-.39 2.869-1.17z"/></g></g></g></svg>