<svg xmlns="http://www.w3.org/2000/svg" width="36" height="55" viewBox="0 0 36 55"><g><g><g><path fill="#38c695" d="M33.132 27.843c1.795 2.845 2.693 5.98 2.693 9.409 0 4.832-1.738 8.981-5.21 12.447-3.475 3.469-7.632 5.202-12.471 5.202-4.841 0-8.998-1.733-12.47-5.202C2.198 46.233.462 42.084.462 37.252c0-3.429.896-6.564 2.693-9.41C4.95 25 7.33 22.876 10.299 21.473 7.02 13.602 5.38 8.966 5.38 7.564V-.034h25.526v7.598c0 1.091-1.64 5.726-4.918 13.908 2.966 1.403 5.346 3.527 7.143 6.37zm-14.988-8.24c2.108 0 4.098.35 5.972 1.051 3.2-7.48 4.8-11.843 4.8-13.09v-5.61h-9.835v13.44H17.09V1.954H7.371v5.61c0 1.013 1.56 5.376 4.684 13.09 2.029-.701 4.058-1.052 6.089-1.052zm15.69 17.649c0-4.364-1.542-8.065-4.625-11.105-3.084-3.038-6.773-4.558-11.065-4.558-4.294 0-7.983 1.52-11.065 4.558-3.085 3.04-4.626 6.741-4.626 11.105 0 4.364 1.54 8.065 4.626 11.103 3.082 3.04 6.77 4.559 11.065 4.559 4.292 0 7.98-1.52 11.065-4.559 3.083-3.038 4.625-6.739 4.625-11.103zm-3.864 0c0 3.273-1.152 6.06-3.454 8.357-2.303 2.299-5.093 3.448-8.372 3.448s-6.07-1.15-8.372-3.448c-2.304-2.298-3.455-5.084-3.455-8.357 0-3.273 1.151-6.058 3.455-8.357 2.301-2.298 5.093-3.448 8.372-3.448s6.069 1.15 8.372 3.448c2.302 2.299 3.454 5.084 3.454 8.357zm-1.99 0c0-2.649-.957-4.948-2.869-6.896-1.914-1.947-4.236-2.923-6.967-2.923-2.734 0-5.055.976-6.967 2.923-1.914 1.948-2.869 4.247-2.869 6.896 0 2.65.955 4.949 2.869 6.896 1.912 1.949 4.233 2.922 6.967 2.922 2.732 0 5.053-.973 6.967-2.922 1.912-1.947 2.869-4.247 2.869-6.896z"/></g></g></g></svg>