<svg width="50" height="50" viewBox="0 0 50 50" fill="none" xmlns="http://www.w3.org/2000/svg">
<g clip-path="url(#clip0)">
<path d="M25.7696 47.5088L49.6826 23.5957C49.8864 23.3915 50.0005 23.1146 50 22.8261V3.26092C50.0011 2.66062 49.5152 2.17312 48.9149 2.172C48.6255 2.17149 48.3479 2.28643 48.1434 2.49136L24.9999 25.637L1.85654 2.49136C1.43262 2.06633 0.744377 2.06551 0.319344 2.48942C0.114418 2.69384 -0.000526428 2.97152 -1.52588e-05 3.26092V22.8261C-0.000526428 23.1146 0.113602 23.3915 0.317406 23.5957L24.2305 47.5088C24.6544 47.9338 25.3426 47.9346 25.7677 47.5107C25.7683 47.51 25.7689 47.5094 25.7696 47.5088Z" fill="#004688"/>
</g>
<defs>
<clipPath id="clip0">
<rect width="50" height="50" fill="white" transform="translate(50) rotate(90)"/>
</clipPath>
</defs>
</svg>
