<svg xmlns="http://www.w3.org/2000/svg" width="30" height="31" viewBox="0 0 30 31"><g><g><path fill="#fff" d="M29.18.937c.468.469.703 1.31.703 2.52 0 10.429-.02 18.261-.059 23.496 0 1.21-.244 2.06-.732 2.548-.49.49-1.339.733-2.549.733h-9.668c-.665 0-1.133-.118-1.406-.352-.274-.234-.391-.683-.352-1.347v-5.069c0-2.245.02-3.935.059-5.068 0-.586-.098-.986-.293-1.201-.196-.214-.567-.302-1.113-.263-.548.078-1.368.078-2.461 0-.47 0-.704-.177-.704-.529 0-.39.235-.585.704-.585h2.695c.469.04.79-.039.967-.235.175-.195.243-.506.205-.937a22.81 22.81 0 0 1 0-3.281c.038-1.25.448-2.178 1.23-2.783.781-.606 1.797-.81 3.047-.615.976.116 1.855.371 2.637.761.038 0 .078.02.117.059.507.234.703.508.586.82-.196.43-.606.508-1.23.234-1.055-.469-2.032-.703-2.93-.703-1.172 0-1.875.567-2.11 1.7-.117.43-.185.879-.205 1.347-.02.468-.02.997 0 1.582.02.586.03 1.036.03 1.348v.234c.038.313.351.469.937.469h4.512c.664 0 .996.196.996.585 0 .548-.352.783-1.055.704-.937 0-2.422-.038-4.453-.117-.39-.039-.654.02-.79.176-.138.156-.206.43-.206.82.078 3.242.078 6.504 0 9.785 0 .743.352 1.114 1.055 1.114.937 0 1.913.01 2.93.029 1.015.02 2.147.049 3.398.088 1.25.039 2.226.058 2.93.058.78 0 1.289-.126 1.523-.38.234-.254.37-.791.41-1.612l.176-23.203c0-1.055-.117-1.69-.352-1.905-.234-.213-.899-.341-1.992-.38-5.039-.156-12.637-.235-22.793-.235-.937 0-1.504.108-1.699.323-.196.215-.332.81-.41 1.787l-.176 23.085c0 1.055.126 1.7.381 1.934.254.235.888.351 1.904.351 2.265 0 3.945.021 5.04.06.82 0 1.249.195 1.288.585 0 .47-.41.704-1.23.704H2.754c-1.68-.08-2.559-.996-2.637-2.754v-12.13h.059V3.34c0-1.172.234-1.992.703-2.46C1.348.408 2.148.195 3.28.233h23.38c1.21 0 2.05.235 2.519.703z"/></g></g></svg>