<svg xmlns="http://www.w3.org/2000/svg" width="30" height="26" viewBox="0 0 30 26"><g><g><path fill="#fff" d="M29.883 4.328c-.313.625-.606 1.054-.88 1.289a3.558 3.558 0 0 0-1.259 1.376c-.293.567-.489 1.076-.586 1.524-.098.45-.186 1.045-.263 1.787-.391 3.633-1.827 6.856-4.307 9.668-2.481 2.813-5.499 4.61-9.053 5.39-4.57 1.017-8.789.353-12.656-1.992-.04-.038-.147-.097-.322-.175-.176-.078-.284-.136-.323-.176a2.327 2.327 0 0 1-.205-.264c-.097-.136-.088-.263.03-.38.038-.156.107-.264.205-.322.097-.06.195-.079.293-.06.097.021.214.04.351.06.137.02.244.028.322.028 2.265.235 4.063.08 5.391-.468.586-.156.938-.059 1.055.293.078.351-.157.606-.703.762-.352.117-.87.263-1.553.44-.684.175-1.221.322-1.611.438 2.226.9 4.355 1.29 6.386 1.173 4.297-.235 7.812-1.709 10.547-4.424 2.734-2.715 4.414-5.967 5.04-9.756.077-.39.116-.664.116-.82v-.587-.615c0-.097.01-.293.03-.586.019-.293.058-.497.117-.615a5.08 5.08 0 0 0 .205-.498c.078-.214.185-.38.322-.498.137-.117.302-.244.498-.381a5.15 5.15 0 0 1 .645-.38.877.877 0 0 1-.235-.177l-.117-.058c-.117 0-.303.04-.556.117-.255.079-.47.108-.645.088-.176-.02-.322-.147-.44-.381-.117-.235-.127-.419-.029-.556.097-.137.264-.273.498-.41.235-.137.39-.244.47-.323l.35-.527-.175-.176c-1.133.468-2.305.273-3.516-.586-1.68-1.133-3.427-1.21-5.244-.235-1.816.978-2.764 2.501-2.842 4.57-.078 1.212-.215 1.906-.41 2.08-.196.177-.918.147-2.168-.087-3.398-.586-6.68-2.344-9.843-5.274-.509.783-.655 1.72-.44 2.813.214 1.094.712 2.07 1.494 2.93.078.079.235.185.469.322.234.137.37.255.41.352.039.098.039.284 0 .556-.117.235-.264.372-.44.41-.175.04-.41.01-.702-.087-.293-.098-.499-.147-.616-.147a5.515 5.515 0 0 0-.644-.176c.351 2.032 1.444 3.457 3.281 4.277l.469.118c.351.079.566.176.644.293.078.117.097.274.059.469-.079.35-.586.566-1.524.644l-.585.117c.703 1.445 1.894 2.383 3.574 2.813h.41c.038 0 .156.02.351.058.195.04.332.079.41.118.078.04.156.107.235.204.078.098.097.245.059.44-.08.43-.49.547-1.23.352-1.955-.352-3.42-1.309-4.395-2.872a2.678 2.678 0 0 1-.235-.321 4.048 4.048 0 0 1-.234-.381l-.176-.352a.932.932 0 0 1-.117-.41c0-.118.009-.254.03-.41.018-.156.067-.313.146-.47 0-.194.009-.312.029-.35.02-.04-.069-.137-.264-.294l-.234-.175c-1.016-1.016-1.64-2.266-1.875-3.75a3.1 3.1 0 0 0-.059-.352 2.83 2.83 0 0 1-.058-.352v-.264c0-.136.029-.234.088-.292.058-.059.146-.117.263-.176.117-.059.273-.107.47-.147.35-.038.39-.234.116-.586-.078-.078-.117-.136-.117-.176-.86-1.757-.937-3.592-.234-5.507.234-.664.478-1.015.732-1.055.254-.038.615.196 1.084.703 2.539 2.774 5.527 4.532 8.965 5.274.586.117.996.108 1.23-.03.235-.136.371-.497.41-1.083.352-2.422 1.504-4.2 3.458-5.333 1.952-1.132 3.886-1.132 5.8 0 1.641.938 3.184.938 4.63 0 .506-.234.878-.234 1.113 0 .195.196.155.548-.118 1.055-.039.157-.117.352-.234.586-.117.235-.196.41-.234.528.155.156.37.176.644.058a.972.972 0 0 1 .235-.058c.624 0 .8.273.527.82z"/></g></g></svg>