<svg xmlns="http://www.w3.org/2000/svg" width="30" height="31" viewBox="0 0 30 31"><g><g><path fill="#fff" d="M30 27.304c0 1.055-.215 1.797-.645 2.227-.43.43-1.171.664-2.226.703H2.812C.976 30.234.038 29.317 0 27.48v-5.976c0-.704.214-1.055.645-1.055.351.04.527.39.527 1.055v5.683c0 1.25.605 1.875 1.816 1.875h24.024c1.21 0 1.816-.586 1.816-1.758V17.87c0-.429-.079-.732-.234-.908-.157-.175-.43-.243-.82-.205a1.658 1.658 0 0 1-.88 0c-1.289-.194-2.314-.088-3.076.323-.761.41-1.357 1.26-1.787 2.548-.39 1.368-1.338 2.482-2.842 3.34-1.504.86-2.959 1.211-4.365 1.055-1.758-.195-3.301-.82-4.629-1.875-1.328-1.055-2.188-2.363-2.578-3.926-.274-1.093-.937-1.582-1.992-1.465H1.289C.43 16.837 0 16.465 0 15.644V2.519C.078.996.996.234 2.754.234h24.492C29.082.234 30 1.152 30 2.988zm-10.049-6.533c1.27-1.269 1.904-2.861 1.904-4.775 0-1.836-.635-3.37-1.904-4.6-1.27-1.23-2.881-1.884-4.834-1.962-1.758-.04-3.31.625-4.658 1.992-1.348 1.367-2.021 2.929-2.021 4.687 0 1.797.693 3.38 2.08 4.746 1.386 1.368 2.938 1.973 4.658 1.817 1.913 0 3.505-.635 4.775-1.905zm8.613-5.537c.215-.195.303-.547.264-1.054a254.151 254.151 0 0 1 0-10.957c0-.664-.146-1.143-.44-1.437-.292-.292-.79-.418-1.493-.38H2.93c-.626 0-1.075.127-1.348.38-.274.255-.41.695-.41 1.319v11.191c0 .47.088.783.264.938.175.156.477.215.908.176 2.07 0 3.242.02 3.515.059.547.116.938.078 1.172-.118.235-.195.41-.566.528-1.113.429-1.796 1.386-3.271 2.87-4.424 1.485-1.152 3.106-1.69 4.864-1.611 1.758.078 3.33.644 4.717 1.699 1.386 1.055 2.314 2.481 2.783 4.278.195.899.703 1.328 1.523 1.289.938-.118 1.993-.137 3.164-.059.508.078.87.02 1.084-.176zm-2.08-11.133c.235.274.352 1.094.352 2.461 0 1.289-.157 2.1-.469 2.431-.313.333-1.075.499-2.285.499-1.25 0-2.042-.176-2.373-.527-.332-.352-.498-1.211-.498-2.579 0-1.328.136-2.109.41-2.343.273-.235 1.152-.352 2.637-.352 1.25 0 1.992.138 2.226.41zm-1.142.967c-.215-.254-.636-.302-1.26-.147-.625-.117-1.075-.067-1.348.147-.273.215-.39.654-.351 1.318.038.703.146 1.193.322 1.465.176.274.595.39 1.26.352.664-.039 1.122-.176 1.377-.41.253-.235.38-.683.38-1.348-.039-.664-.166-1.123-.38-1.377zm-7.676 15.175c.059.06.02.128-.117.206a1.707 1.707 0 0 0-.235.146c-.02.02-.108.069-.263.147l-.235.058c-.899.274-1.504.391-1.816.352-1.563 0-2.891-.674-3.984-2.021-1.094-1.348-1.427-2.763-.996-4.249 0-.038.019-.136.058-.293.039-.155.078-.272.117-.351a.576.576 0 0 1 .176-.206c.078-.058.195-.067.352-.028.39.04.546.41.468 1.112-.273 1.641.137 2.921 1.23 3.838 1.094.92 2.442 1.164 4.044.733.664-.234 1.055-.156 1.172.235-.04.156-.03.263.029.321z"/></g></g></svg>