<svg xmlns="http://www.w3.org/2000/svg" width="28" height="31" viewBox="0 0 28 31"><g><g><path fill="#fff" d="M16.227 27.831c-.704.9-1.758 1.544-3.165 1.934-1.016.235-1.777.371-2.285.41h-2.93c-.234 0-.585-.039-1.054-.117-1.602-.234-2.871-.546-3.809-.938-1.289-.624-2.168-1.502-2.636-2.636-.157-.547-.255-.957-.293-1.23V24.08a.523.523 0 0 0 .058-.234 3.811 3.811 0 0 1 .469-1.523c.117-.235.195-.371.234-.41.195-.078.4.058.616.41.214.352.263.664.146.937-.234.47-.313 1.153-.234 2.05.155 1.095.741 1.916 1.758 2.462.585.351 1.21.586 1.875.703 1.366.351 3.066.489 5.097.41 1.055 0 1.992-.136 2.813-.41 1.132-.312 1.992-.879 2.578-1.7.43-.663.644-1.561.644-2.695.039-1.327-.45-2.44-1.464-3.34a.399.399 0 0 0-.293-.117c-2.266-.272-4.2-.41-5.801-.41-1.524.079-2.754.255-3.692.528-.078 0-.185.02-.322.058-.137.04-.244.08-.322.118-.117 0-.245-.078-.381-.235a1.534 1.534 0 0 1-.293-.468c-.059-.156-.05-.273.03-.352 1.718-.664 4.061-.957 7.03-.879.156 0 .41.02.762.058.352.04.625.059.82.059a7.302 7.302 0 0 0-.585-.498 11.124 11.124 0 0 0-.586-.439c-.977-.82-1.348-1.778-1.114-2.872 0-.078-.02-.136-.058-.176h-.117a7.433 7.433 0 0 1-2.637 0c-2.695-.468-4.512-1.952-5.45-4.453-.468-1.21-.605-2.597-.41-4.16.196-1.366.606-2.46 1.231-3.28C3.395 1.894 4.859.995 6.852.526c.195-.039.458-.088.79-.146a4.73 4.73 0 0 1 .733-.088c2.46-.156 5.117-.156 7.969 0 .155 0 .273.137.351.41a.568.568 0 0 1-.058.556c-.118.176-.293.264-.528.264h-2.754a.657.657 0 0 0-.293.059c.078.039.185.117.323.234.136.118.224.215.263.293 1.445 1.368 2.246 2.871 2.403 4.511.195 2.501-.391 4.512-1.758 6.035-.352.352-.996.841-1.934 1.465-.313.235-.547.43-.703.587-.782.664-.84 1.387-.176 2.167.313.352.704.665 1.172.938 1.719 1.172 2.617 1.797 2.696 1.875 1.093.937 1.737 1.993 1.933 3.164.312 1.992-.04 3.653-1.054 4.98zM14.82 8.437c.156-1.484-.04-2.675-.586-3.574-1.054-1.875-2.46-2.95-4.218-3.223a7.794 7.794 0 0 0-4.688.762c-1.25.626-2.07 1.562-2.46 2.813-.314.742-.47 1.68-.47 2.812 0 1.094.273 2.13.82 3.105 1.133 1.915 2.95 2.872 5.45 2.872 1.64-.04 3.261-.86 4.863-2.461.664-.664 1.093-1.7 1.29-3.106zm13.125 6.328c-.156.314-.45.47-.879.47h-3.105c-.274 0-.41.116-.41.35v3.165c0 .585-.196.878-.586.878-.43-.077-.645-.37-.645-.878v-3.223c0-.195-.098-.293-.293-.293h-3.222c-.548 0-.82-.195-.82-.586 0-.43.272-.644.82-.644h3.164c.234 0 .351-.137.351-.41v-3.399c.078-.43.293-.605.645-.528.39 0 .586.176.586.528v3.516c0 .196.117.293.351.293h3.164c.39 0 .683.137.88.41z"/></g></g></svg>