<svg xmlns="http://www.w3.org/2000/svg" width="105" height="105" viewBox="0 0 105 105"><defs><clipPath id="bvx3a"><path fill="#fff" d="M0 105V0h105v105zM2 5v95a3 3 0 0 0 3 3h95a3 3 0 0 0 3-3V5a3 3 0 0 0-3-3H5a3 3 0 0 0-3 3z"/></clipPath></defs><g><g><path fill="#de2b24" d="M5 2h95a3 3 0 0 1 3 3v95a3 3 0 0 1-3 3H5a3 3 0 0 1-3-3V5a3 3 0 0 1 3-3z"/><path fill="none" stroke="#fff" stroke-linecap="round" stroke-linejoin="round" stroke-miterlimit="20" stroke-width="4" d="M5 2h95a3 3 0 0 1 3 3v95a3 3 0 0 1-3 3H5a3 3 0 0 1-3-3V5a3 3 0 0 1 3-3z" clip-path="url(&quot;#bvx3a&quot;)"/></g><g><g><text dominant-baseline="text-before-edge" style="line-height:21px" fill="#fff" font-family="Helvetica-Normal" font-size="20" font-style="none" font-weight="400" transform="translate(33 22)"><tspan style="font-kerning:normal" font-family="'Georgia','Georgia-Bold'" font-size="60" font-weight="700">1 </tspan><tspan style="font-kerning:normal">step</tspan></text></g></g></g></svg>