<svg xmlns="http://www.w3.org/2000/svg" width="105" height="105" viewBox="0 0 105 105"><defs><clipPath id="f6uqa"><path fill="#fff" d="M0 105V0h105v105zM100 2H5a3 3 0 0 0-3 3v95a3 3 0 0 0 3 3h95a3 3 0 0 0 3-3V5a3 3 0 0 0-3-3z"/></clipPath></defs><g><g><path fill="#de2b24" d="M100 2H5a3 3 0 0 0-3 3v95a3 3 0 0 0 3 3h95a3 3 0 0 0 3-3V5a3 3 0 0 0-3-3z"/><path fill="none" stroke="#fff" stroke-linecap="round" stroke-linejoin="round" stroke-miterlimit="20" stroke-width="4" d="M100 2H5a3 3 0 0 0-3 3v95a3 3 0 0 0 3 3h95a3 3 0 0 0 3-3V5a3 3 0 0 0-3-3z" clip-path="url(&quot;#f6uqa&quot;)"/></g><g><g><text dominant-baseline="text-before-edge" style="line-height:21px" fill="#fff" font-family="Helvetica-Normal" font-size="20" font-style="none" font-weight="400" transform="translate(34 22)"><tspan style="font-kerning:normal" font-family="'Georgia','Georgia-Bold'" font-size="60" font-weight="700">2 </tspan><tspan style="font-kerning:normal">step</tspan></text></g></g></g></svg>