<svg xmlns="http://www.w3.org/2000/svg" width="146" height="45" viewBox="0 0 146 45"><g><g><path fill="#345bb4" d="M7.13 0h30.188c3.94 0 7.135 3.234 7.135 7.223v30.555c0 3.989-3.195 7.222-7.135 7.222H7.13c-3.941 0-7.136-3.233-7.136-7.222V7.223C-.006 3.233 3.19 0 7.13 0z"/></g><g><path fill="#e64895" d="M58.175 0h30.188c3.94 0 7.135 3.234 7.135 7.223v30.555c0 3.989-3.194 7.222-7.135 7.222H58.175c-3.94 0-7.135-3.233-7.135-7.222V7.223C51.04 3.233 54.234 0 58.175 0z"/></g><g><path fill="#00b4ff" d="M108.671 0h30.188c3.94 0 7.135 3.234 7.135 7.223v30.555c0 3.989-3.194 7.222-7.135 7.222h-30.188c-3.94 0-7.135-3.233-7.135-7.222V7.223c0-3.99 3.194-7.223 7.135-7.223z"/></g><g><path fill="#fff" d="M73.254 34.432c-6.51 0-11.808-5.36-11.808-11.949 0-4.903 2.932-9.125 7.114-10.965a.734.734 0 0 1 .16-.07 11.624 11.624 0 0 1 4.534-.915c6.512 0 11.81 5.36 11.81 11.95 0 6.589-5.298 11.95-11.81 11.95zm0-22.405c-1.074 0-2.111.167-3.086.477.793 1.027 2.21 3.046 4.03 6.415 4.053-1.538 5.301-3.66 5.646-4.483a10.212 10.212 0 0 0-6.59-2.409zm1.74 8.404c.387.752.734 1.492 1.046 2.213 3.54-.788 6.412-.215 7.544.089a10.484 10.484 0 0 0-2.62-7.205c-.668 1.245-2.276 3.24-6.064 4.72l.094.183zM78.6 31.427a10.484 10.484 0 0 0 4.84-7.182c-.684-.201-3.397-.88-6.823-.19 1.243 3.23 1.77 5.934 1.983 7.372zm-15.676-8.944c0 2.785 1.082 5.32 2.842 7.195.702-1.205 2.677-3.963 6.894-5.895a17.077 17.077 0 0 1 1.936-.75 34.545 34.545 0 0 0-1.106-2.292c-3.492 1.108-6.51 1.357-8.517 1.357-.898 0-1.594-.05-2.038-.095-.007.159-.011.32-.011.48zm10.331 10.455c1.398 0 2.732-.283 3.95-.794-.148-1.146-.634-4.12-2.036-7.723-.62.19-1.256.428-1.9.723-4.293 1.968-6.009 4.852-6.382 5.567a10.204 10.204 0 0 0 6.368 2.227zm-4.522-19.855a10.476 10.476 0 0 0-5.626 7.432c1.3.123 5.05.294 9.669-1.115-1.955-3.582-3.414-5.54-4.043-6.317z"/></g><g><path fill="#fff" d="M127.544 14.73c1.163 0 2.212.475 2.951 1.237a8.29 8.29 0 0 0 2.566-.95 3.953 3.953 0 0 1-1.777 2.166 8.302 8.302 0 0 0 2.322-.618 8.113 8.113 0 0 1-2.017 2.027c.007.167.011.337.011.505 0 5.174-4.066 11.14-11.502 11.14-2.282 0-4.408-.651-6.196-1.761.316.037.637.055.964.055a8.278 8.278 0 0 0 5.021-1.676c-1.77-.03-3.264-1.163-3.776-2.718a4.141 4.141 0 0 0 1.825-.067c-1.85-.358-3.243-1.94-3.243-3.838v-.05c.546.294 1.169.47 1.832.49-1.085-.703-1.799-1.9-1.799-3.258 0-.718.2-1.39.548-1.966 1.993 2.365 4.972 3.924 8.332 4.089a3.798 3.798 0 0 1-.105-.892c0-2.163 1.81-3.915 4.043-3.915 2.234 0 0 0 0 0zm-5.402 3.214a10.198 10.198 0 0 1-5.792-3.4 1.406 1.406 0 0 0-2.281.179 5.209 5.209 0 0 0-.42 4.518c-.23.255-.363.589-.363.941v.05c0 1.376.545 2.652 1.45 3.61-.052.24-.04.492.039.734.312.947.88 1.764 1.616 2.386a7.079 7.079 0 0 1-2.322.119 1.406 1.406 0 0 0-1.494.93c-.219.62.024 1.31.584 1.657a13.138 13.138 0 0 0 6.94 1.973c8 0 12.813-6.254 12.907-12.363a9.434 9.434 0 0 0 1.724-1.868 1.404 1.404 0 0 0-.32-1.999 1.403 1.403 0 0 0-1.35-1.798c-.241 0-.484.062-.702.188a6.77 6.77 0 0 1-1.486.632 5.566 5.566 0 0 0-3.328-1.107c-2.762 0-5.05 2.015-5.402 4.618z"/></g><g><path fill="#fff" d="M24.117 12.046c.09 0 .14.003.14.003h1.962l-.01 2.26H24.26c-1.072 0-1.047.919-1.047.919v3.583h3.792l-.53 2.257h-3.275v11.296h-2.25l-.002-11.296h-2.99l-.006-2.257h2.998v-3.513c0-3.062 2.535-3.252 3.166-3.252.631 0 0 0 0 0zm-2.594-.813c-.947.57-2.074 1.74-2.074 4.065v2.006h-1.496a1.503 1.503 0 0 0-1.502 1.512l.006 2.258c.003.83.675 1.501 1.502 1.501h1.488l.002 9.79c0 .832.672 1.506 1.502 1.506h2.25c.83 0 1.502-.674 1.502-1.507v-9.789h1.774c.666 0 1.253-.44 1.44-1.082l.53-2.257a1.51 1.51 0 0 0-.239-1.328 1.498 1.498 0 0 0-1.202-.604h-2.29v-1.487h1.492c.827 0 1.499-.67 1.502-1.5l.01-2.184a1.503 1.503 0 0 0-1.498-1.59H24.3a3.576 3.576 0 0 0-.183-.004c-.54 0-1.595.09-2.595.694z"/></g></g></svg>