<svg xmlns="http://www.w3.org/2000/svg" width="15" height="15" viewBox="0 0 15 15"><g><g><path fill="#38c695" d="M14.997 7.517c0 2.081-.73 3.85-2.186 5.306-1.458 1.456-3.228 2.184-5.31 2.184-2.082 0-3.852-.728-5.309-2.184C.734 11.367.006 9.598.006 7.517c0-2.08.728-3.848 2.186-5.305C3.65.756 5.42.028 7.502.028c2.081 0 3.85.728 5.309 2.184 1.457 1.457 2.186 3.225 2.186 5.305zm-1.25 0c0-1.716-.611-3.185-1.834-4.408C10.689 1.887 9.219 1.276 7.5 1.276c-1.717 0-3.188.611-4.41 1.833-1.225 1.223-1.836 2.692-1.836 4.408 0 1.717.611 3.187 1.835 4.408 1.223 1.223 2.694 1.834 4.411 1.834 1.718 0 3.188-.61 4.412-1.834 1.223-1.221 1.834-2.691 1.834-4.408zM7.501 3.772c1.041 0 1.926.365 2.655 1.093.728.728 1.093 1.613 1.093 2.652 0 1.04-.365 1.925-1.093 2.653-.729.729-1.614 1.092-2.655 1.092-1.04 0-1.926-.363-2.654-1.092-.73-.728-1.093-1.612-1.093-2.653 0-1.04.364-1.924 1.093-2.652.728-.728 1.613-1.093 2.654-1.093z"/></g></g></svg>