<svg xmlns="http://www.w3.org/2000/svg" width="47" height="51" viewBox="0 0 47 51"><g><g><path fill="#38c695" d="M7.699 29.971c-3.49 3.52-5.235 7.758-5.235 12.71v4.01H24.48v1.956H.41v-5.965c0-4.562 1.369-8.636 4.109-12.221 2.74-3.585 6.196-5.932 10.372-7.04-1.957-1.043-3.556-2.51-4.795-4.4-1.24-1.89-1.86-4.01-1.86-6.356 0-3.324 1.19-6.16 3.572-8.506 2.38-2.347 5.202-3.52 8.464-3.52 3.327 0 6.165 1.173 8.513 3.52 2.349 2.346 3.523 5.182 3.523 8.506 0 2.346-.604 4.483-1.81 6.404-1.208 1.924-2.823 3.373-4.844 4.351 3.391.848 6.424 2.609 9.1 5.28H31.72c-3.327-2.671-7.08-4.009-11.253-4.009-5.024 0-9.28 1.76-12.77 5.28zm12.77-7.333c2.803 0 5.185-.96 7.142-2.885 1.957-1.921 2.936-4.284 2.936-7.088 0-2.802-.979-5.165-2.936-7.089-1.957-1.921-4.339-2.884-7.143-2.884-2.805 0-5.17.963-7.094 2.884-1.925 1.924-2.886 4.287-2.886 7.089 0 2.804.961 5.167 2.886 7.088 1.923 1.924 4.289 2.885 7.094 2.885zm26.125 22.098h-6.067V50.7H38.57v-5.964h-6.067v-2.054h6.067v-5.964h1.957v5.964h6.067z"/></g></g></svg>