<svg xmlns="http://www.w3.org/2000/svg" width="15" height="15" viewBox="0 0 15 15"><g><g><path fill="#b27cf5" d="M14.997 7.483c0 2.092-.73 3.87-2.186 5.333-1.458 1.465-3.228 2.197-5.31 2.197-2.082 0-3.852-.732-5.309-2.197C.734 11.353.006 9.576.006 7.483c0-2.091.728-3.868 2.186-5.333C3.65.686 5.42-.046 7.502-.046c2.081 0 3.85.732 5.309 2.196 1.457 1.465 2.186 3.242 2.186 5.333zm-1.25 0c0-1.725-.611-3.202-1.834-4.431C10.689 1.823 9.219 1.209 7.5 1.209c-1.717 0-3.188.614-4.41 1.843-1.225 1.229-1.836 2.706-1.836 4.43 0 1.727.611 3.204 1.835 4.433 1.223 1.229 2.694 1.843 4.411 1.843 1.718 0 3.188-.614 4.412-1.843 1.223-1.23 1.834-2.706 1.834-4.432zM7.501 3.718c1.041 0 1.926.367 2.655 1.098.728.733 1.093 1.621 1.093 2.667 0 1.046-.365 1.935-1.093 2.667-.729.732-1.614 1.098-2.655 1.098-1.04 0-1.926-.366-2.654-1.098-.73-.732-1.093-1.62-1.093-2.667 0-1.046.364-1.934 1.093-2.667.728-.731 1.613-1.098 2.654-1.098z"/></g></g></svg>