<svg xmlns="http://www.w3.org/2000/svg" width="51" height="43" viewBox="0 0 51 43"><g><g><path fill="#b27cf5" d="M50.55 13.686c0 3.702-1.305 6.865-3.913 9.484L25.5 43.222 4.366 23.367C1.756 20.68.452 17.469.452 13.734.452 10 1.756 6.821 4.366 4.2 6.91 1.644 10.171.366 14.151.366c3.718 0 6.85 1.278 9.393 3.834 1.043 1.311 1.762 2.294 2.153 2.949.521-1.048 1.238-2.031 2.153-2.949C30.394 1.644 33.525.366 37.243.366c3.718 0 6.85 1.278 9.394 3.834 2.608 2.621 3.914 5.784 3.914 9.486zM45.072 5.38c-2.088-2.227-4.762-3.342-8.024-3.342-3.196 0-5.904 1.115-8.12 3.342a41.028 41.028 0 0 0-1.664 2.26L25.5 10.589l-1.76-2.95c-.392-.653-.947-1.407-1.664-2.26-2.219-2.226-4.926-3.341-8.122-3.341-3.197 0-5.936 1.18-8.219 3.538-2.218 2.228-3.327 4.915-3.327 8.06 0 3.211 1.109 5.932 3.327 8.158l19.765 18.971 19.766-18.97c2.087-2.097 3.13-4.882 3.13-8.355 0-3.146-1.109-5.832-3.326-8.06z"/></g></g></svg>