<svg xmlns="http://www.w3.org/2000/svg" width="51" height="45" viewBox="0 0 51 45"><g><g><path fill="#feb960" d="M50.49 17.307h-1.955v26.979H2.402V17.307H.447v-7.75h15.931c-.977-1.111-1.466-2.387-1.466-3.826 0-1.634.553-3.007 1.662-4.12C17.68.499 19.049-.057 20.679-.057c2.15 0 3.746.818 4.79 2.452 1.04-1.634 2.638-2.452 4.788-2.452 1.629 0 2.997.556 4.106 1.668 1.107 1.113 1.661 2.486 1.661 4.12 0 1.44-.488 2.715-1.466 3.826H50.49zM27.57 2.984c-.75.785-1.124 1.701-1.124 2.747v3.826h3.811c1.042 0 1.955-.376 2.737-1.128.782-.751 1.173-1.651 1.173-2.698 0-1.111-.376-2.043-1.124-2.796-.75-.751-1.678-1.129-2.786-1.129-1.043 0-1.94.393-2.687 1.178zM17.942 8.43c.782.752 1.694 1.128 2.737 1.128h3.812V5.731c0-1.046-.376-1.962-1.124-2.747-.75-.785-1.646-1.178-2.688-1.178-1.109 0-2.037.378-2.786 1.129-.75.753-1.124 1.685-1.124 2.796 0 1.047.391 1.947 1.173 2.698zm-15.54 6.916H24.49V11.52H2.4zm1.857 27.077H24.49V17.307H4.259zm42.419-25.115H26.446v25.115h20.232zm1.857-5.788h-22.09v3.826h22.09z"/></g></g></svg>