<svg xmlns="http://www.w3.org/2000/svg" width="80" height="80" viewBox="0 0 80 80"><g><g><path fill="#38c695" d="M34.687 25.312L52.5 39.062v1.875l-17.813 13.75-2.187-.937v-27.5zM35 51.249L49.219 40 35 28.75zM80 40c0 11.043-3.906 20.47-11.719 28.282C60.47 76.093 51.04 80 40 80c-11.043 0-20.469-3.907-28.281-11.72C3.906 60.469-.001 51.043-.001 40 0 28.96 3.907 19.53 11.72 11.718 19.53 3.906 28.957-.001 39.999-.001 51.04 0 60.47 3.907 68.282 11.72 76.094 19.53 80 28.96 80 39.999zm-2.5 0c0-10.207-3.648-19.062-10.938-26.562C59.062 6.147 50.207 2.5 40 2.5c-10.21 0-19.063 3.647-26.563 10.937C6.145 20.937 2.5 29.792 2.5 39.999c0 10.21 3.645 19.063 10.937 26.563C20.937 73.854 29.79 77.5 40 77.5c10.207 0 19.062-3.646 26.562-10.938 7.29-7.5 10.938-16.352 10.938-26.563z"/></g></g></svg>