<?xml version="1.0" standalone="no"?>
<!DOCTYPE svg PUBLIC "-//W3C//DTD SVG 1.1//EN" "http://www.w3.org/Graphics/SVG/1.1/DTD/svg11.dtd" >
<svg>
<metadata>
Created by FontForge 20090914 at Tue Nov  3 07:12:54 2020
 By www-data
Copyright (c) 2013-2015 Gall Productions Pvt. Ltd (http://www.sticknobillsonline.com) Copyright (c) 2015 mooniak (http://mooniak.com)
</metadata>
<defs>
<font id="PostNoBillsJaffna-Bold" horiz-adv-x="476" >
  <font-face 
    font-family="Post No Bills Jaffna"
    font-weight="700"
    font-stretch="normal"
    units-per-em="1024"
    panose-1="2 0 8 3 0 0 0 0 0 0"
    ascent="819"
    descent="-205"
    x-height="553.999"
    cap-height="700"
    bbox="-176 -592.002 2137 1208"
    underline-thickness="0"
    underline-position="0"
    unicode-range="U+0020-U+FB02"
  />
<missing-glyph horiz-adv-x="631" 
d="M50 -93v847h531v-847h-531zM262 128c0 17.333 8 29 24 35c4 1.33301 8 2 12 2c16.667 0 28 -8.33301 34 -25c1.33301 -4 2 -8 2 -12c0 -16.667 -7.66699 -28 -23 -34c-4.66699 -1.33301 -9 -2 -13 -2c-16.667 0 -28 7.66699 -34 23c-1.33301 4.66699 -2 9 -2 13zM137 658
v-662h356v662h-356zM200 465c30.667 37.333 67.333 56.332 110 56.999c53.333 0 90 -22 110 -66c8 -18 12.333 -37.333 13 -58c0 -58 -23.667 -97.333 -71 -118c-12.667 -5.33301 -23.667 -8 -33 -8v-84h-61v137c51.333 0.666992 83 11 95 31c6 10.667 9 24.334 9 41.001
c0 29.333 -12.667 49.333 -38 60c-8.66699 3.33301 -17.667 5 -27 5c-27.333 -0.666992 -50 -13 -68 -37z" />
    <glyph glyph-name="fi" unicode="fi" horiz-adv-x="494" 
d="M38 411h63v-411h98v411h119v-411h98v504h-217v48c0 29.333 13.333 46 40 50h4h26l22 94h-47c-56 -0.666992 -97.667 -27 -125 -79c-12 -23.333 -18 -45 -18 -65v-47h-63v-94zM306 616c0 -24 10.667 -41.334 32 -52.001c9.33301 -4.66699 18.666 -7 27.999 -7
c24 0 41.667 10.667 53 32c4.66699 8.66699 7 17.667 7 27c0 24 -10.667 41.667 -32 53c-9.33301 4.66699 -18.666 7 -27.999 7c-24 0 -41.667 -10.667 -53 -32c-4.66699 -9.33301 -7 -18.666 -7 -27.999z" />
    <glyph glyph-name="fl" unicode="fl" horiz-adv-x="434" 
d="M38 411h63v-411h98v411h65v94l-65 -1v48c0 16.667 6 30 18 40c8 6 17.333 9.33301 28 10h75v-602h101v696h-177c-56 -0.666992 -97.667 -27 -125 -79c-12 -23.333 -18 -45 -18 -65v-47h-63v-94z" />
    <glyph glyph-name=".notdef" horiz-adv-x="631" 
d="M50 -93v847h531v-847h-531zM262 128c0 17.333 8 29 24 35c4 1.33301 8 2 12 2c16.667 0 28 -8.33301 34 -25c1.33301 -4 2 -8 2 -12c0 -16.667 -7.66699 -28 -23 -34c-4.66699 -1.33301 -9 -2 -13 -2c-16.667 0 -28 7.66699 -34 23c-1.33301 4.66699 -2 9 -2 13zM137 658
v-662h356v662h-356zM200 465c30.667 37.333 67.333 56.332 110 56.999c53.333 0 90 -22 110 -66c8 -18 12.333 -37.333 13 -58c0 -58 -23.667 -97.333 -71 -118c-12.667 -5.33301 -23.667 -8 -33 -8v-84h-61v137c51.333 0.666992 83 11 95 31c6 10.667 9 24.334 9 41.001
c0 29.333 -12.667 49.333 -38 60c-8.66699 3.33301 -17.667 5 -27 5c-27.333 -0.666992 -50 -13 -68 -37z" />
    <glyph glyph-name="space" unicode=" " horiz-adv-x="240" 
 />
    <glyph glyph-name="exclam" unicode="!" horiz-adv-x="212" 
d="M45 44c0 25.333 11.335 43.665 34.002 54.998c8.66699 4.66699 17.667 7 27 7c25.333 0 43.666 -11.333 54.999 -34c4 -9.33301 6 -18.666 6 -27.999c0 -25.333 -11.667 -43.333 -35 -54c-8.66699 -4 -17.334 -6 -26.001 -6c-26 0 -44.333 11.333 -55 34
c-4 8.66699 -6 17.334 -6 26.001zM55.002 165.999v534h103v-534h-103z" />
    <glyph glyph-name="quotedbl" unicode="&#x22;" horiz-adv-x="340" 
d="M42 465v271h102v-271h-102zM197 465v271h102v-271h-102z" />
    <glyph glyph-name="numbersign" unicode="#" horiz-adv-x="752" 
d="M31 188l20 97h149l23 131h-158l17 97h158l29 169h98l-30 -170h129l29 170h98l-30 -170h150l-16 -97l-151 1l-23 -132h155l-15 -97l-157 1l-29 -166h-97l29 166h-129l-29 -166h-98l30 166h-152zM297 285l129 -1l23 132h-129z" />
    <glyph glyph-name="dollar" unicode="$" horiz-adv-x="493" 
d="M26 158l101 35.999c5.33301 -43.333 29.333 -73.333 72 -90l11 -4v-147h-59v56c-46 16 -81.667 47 -107 93c-11.333 20.667 -17.333 39.334 -18 56.001zM34 509.999c0 70.667 30.667 124.335 92 161.002c8.66699 5.33301 17 9.66602 25 12.999v66h59v-155
c-20.667 -3.33301 -38.667 -15.333 -54 -36c-10 -14.667 -15 -30.334 -15 -47.001c0.666992 -33.333 23.667 -59 69 -77v-120c-23.333 7.33301 -41 13.666 -53 18.999c-56 24.667 -92 56.334 -108 95.001c-10 23.333 -15 50.333 -15 81zM262 -47l-0.000976562 147.001
c25.333 1.33301 48 13.333 68 36c16.667 20 25 43 25 69c0 38 -26 67 -78 87c-4.66699 1.33301 -9.66699 3 -15 5v117c30.667 -8.66699 56.334 -18 77.001 -28c58 -28.667 95.667 -62.667 113 -102c10 -23.333 15 -49 15 -77c0 -58.667 -23 -109.334 -69 -152.001
c-23.333 -21.333 -49 -37 -77 -47v-55h-59zM261.999 595.001l-0.000976562 154.999h59v-64c44.667 -17.333 79.667 -50 105 -98c6.66699 -14 11 -25.667 13 -35l-104 -34c-3.33301 20 -11.166 36.333 -23.499 49s-23.5 20.334 -33.5 23.001z" />
    <glyph glyph-name="percent" unicode="%" horiz-adv-x="532" 
d="M34 578c0 32.667 14.333 57.001 43 73.001c13.333 7.33301 27.333 11 42 11c32 0 56 -13.667 72 -41c8 -14 12 -28.333 12 -43c0 -31.333 -13.333 -55.333 -40 -72c-14 -8 -28.667 -12 -44 -12c-32 0 -56.333 13.667 -73 41c-8 13.333 -12 27.666 -12 42.999z
M125 -19.999l175 739h101l-174 -739h-102zM329 119.001c0 32.667 13.999 57.333 41.999 74c13.333 7.33301 27.333 11 42 11c32.667 0 57 -14.333 73 -43c7.33301 -13.333 11 -27.333 11 -42c0 -32 -13.667 -56 -41 -72c-13.333 -8 -27.666 -12 -42.999 -12
c-32 0 -56.333 14 -73 42c-7.33301 13.333 -11 27.333 -11 42z" />
    <glyph glyph-name="ampersand" unicode="&#x26;" horiz-adv-x="652" 
d="M319 137c-21.333 -18.667 -44.667 -28.001 -70 -28.001c-36.667 0 -65.667 14.667 -87 44c-12 17.333 -18 36.333 -18 57c0.666992 30 13.667 56 39 78l-74 85c-50 -42.667 -75.333 -96 -76 -160c0 -66.667 25.667 -121 77 -163c40.667 -33.333 87 -50 139 -50
c54 0.666992 101.333 18.334 142 53.001zM370.999 532.999c-2 26 -13.001 45.667 -33.001 59c-6.66699 4 -13.667 7 -21 9v105c55.333 -7.33301 98 -34.666 128 -81.999c12.667 -20.667 21.334 -42.334 26.001 -65.001zM261.998 600.999
c-22.667 -3.33301 -38.668 -16.333 -48.001 -39c-4 -9.33301 -6 -19 -6 -29c0 -20.667 11 -43.334 33 -68.001l2 -2l186 -212c21.333 24 34 53.333 38 88v6h113c-5.33301 -67.333 -29.666 -128.333 -72.999 -183l112 -128l-113 -30l-344 392c-33.333 40 -52 77 -56 111
c-0.666992 8 -1 16.333 -1 25c0 56.667 22.667 102.334 68 137.001c26 20 55.667 32.333 89 37v-105z" />
    <glyph glyph-name="quotesingle" unicode="'" horiz-adv-x="185" 
d="M42 465v271h102v-271h-102z" />
    <glyph glyph-name="parenleft" unicode="(" horiz-adv-x="220" 
d="M40 189c0 -61.333 14 -108.335 42 -141.002c24 -28 61.333 -53.333 112 -76v69c-33.333 20.667 -54.333 51.334 -63 92.001c-4 19.333 -6 41 -6 65v323c0 57.333 16 98.333 48 123c6 4.66699 13 9.33398 21 14.001l-1 68c-56 -22.667 -94.333 -47.667 -115 -75
c-25.333 -33.333 -38 -80.333 -38 -141v-321z" />
    <glyph glyph-name="parenright" unicode=")" horiz-adv-x="222" 
d="M26 -29l0.00195312 69.001c30 19.333 50 44.333 60 75c7.33301 23.333 11 53 11 89v317c0 59.333 -19 102.333 -57 129c-4.66699 3.33301 -9.33398 6.33301 -14.001 9l1 68c66 -25.333 110 -59 132 -101c15.333 -30.667 23 -69.334 23 -116.001v-319
c0 -68 -19.333 -120.667 -58 -158c-24.667 -24 -57.334 -44.667 -98.001 -62z" />
    <glyph glyph-name="asterisk" unicode="*" horiz-adv-x="333" 
d="M23 695l36 50l75 -48v88h62v-91l79 51l36 -50l-94 -63l93 -64l-36 -50l-78 56v-96h-62v95l-76 -52l-35 50l93 62z" />
    <glyph glyph-name="plus" unicode="+" horiz-adv-x="420" 
d="M22 243v101h136v154h101v-154h138v-101h-138v-156h-101v156h-136z" />
    <glyph glyph-name="comma" unicode="," horiz-adv-x="233" 
d="M48 -23l37 152h101l-37 -152h-101z" />
    <glyph glyph-name="hyphen" unicode="-" horiz-adv-x="410" 
d="M47 243v101h316v-101h-316z" />
    <glyph glyph-name="period" unicode="." horiz-adv-x="195" 
d="M33 60c0 26.667 11.667 46 35 58c9.33301 4.66699 19 7 29 7c26.667 0 46 -12 58 -36c4.66699 -9.33301 7 -19 7 -29c0 -26.667 -12 -46 -36 -58c-9.33301 -4.66699 -19 -7 -29 -7c-25.333 0 -44 11.333 -56 34c-5.33301 10 -8 20.333 -8 31z" />
    <glyph glyph-name="slash" unicode="/" horiz-adv-x="370" 
d="M47 -20l175 739h101l-174 -739h-102z" />
    <glyph glyph-name="zero" unicode="0" horiz-adv-x="501" 
d="M222 0v106c-40 8 -65.333 57 -76 147c-3.33301 26.667 -5 55.334 -5 86.001v33c0.666992 110 19.334 179.667 56.001 209c8 6.66699 16.333 10.667 25 12v106c-77.333 -0.666992 -131.333 -48 -162 -142c-18 -54.667 -27 -123.334 -27 -206.001
c0 -196 46.667 -310.333 140 -343c15.333 -5.33301 31.666 -8 48.999 -8zM279 0c78.667 0.666992 133.001 49.667 163.001 147c17.333 54.667 26 122.667 26 204c0 191.333 -45.333 304 -136 338c-16.667 6.66699 -34.334 10 -53.001 10v-106
c37.333 -6 62.333 -48.333 75 -127c4.66699 -29.333 7 -60.666 7 -93.999v-33c-0.666992 -142.667 -28 -220.334 -82 -233.001v-106z" />
    <glyph glyph-name="one" unicode="1" horiz-adv-x="243" 
d="M33 546v102l65 52h112v-700h-112v546h-65z" />
    <glyph glyph-name="two" unicode="2" horiz-adv-x="499" 
d="M33 521c2 51.333 23.667 95.333 65 132c34 30 72.667 45.667 116 47v-103c-19.333 0 -37.666 -8.66699 -54.999 -26c-16.667 -17.333 -26.334 -40.333 -29.001 -69zM54 0v109h404v-109h-404zM54 158c0 58.667 38.0039 113.336 114.004 164.003
c9.33301 6.66699 22.666 15.334 39.999 26.001l33 21c5.33301 3.33301 13.333 8.66602 24 15.999c45.333 30 73.666 54.667 84.999 74c8.66699 13.333 13 27 13 41c0 47.333 -19.667 77.666 -59 90.999c-12 4 -24.667 6 -38 6v103c89.333 0 149.666 -34.333 180.999 -103
c12.667 -28.667 19 -60.667 19 -96c0 -54 -20 -99.667 -60 -137c-16 -14.667 -36 -30 -60 -46c-10 -6.66699 -25.667 -16.334 -47 -29.001c-52.667 -30.667 -86.667 -56.334 -102 -77.001c-12.667 -17.333 -19.334 -35.333 -20.001 -54h-123z" />
    <glyph glyph-name="three" unicode="3" horiz-adv-x="504" 
d="M269 -1l-0.00195312 103c48 2 78.667 21 92 57c4 11.333 6 23.666 6 36.999c0 52.667 -26.667 85 -80 97c-17.333 3.33301 -36.666 5 -57.999 5v103c85.333 0 131 28 137 84c0.666992 6 1 11.667 1 17c0 47.333 -22 77.333 -66 90
c-10.667 2.66699 -21.334 4.33398 -32.001 5.00098v103c62.667 0 113.334 -20.667 152.001 -62c33.333 -35.333 50 -80 50 -134c-0.666992 -70.667 -24.334 -122.334 -71.001 -155.001c46.667 -33.333 70.334 -84.666 71.001 -153.999c0 -76.667 -31 -132.667 -93 -168
c-33.333 -18.667 -69.666 -28 -108.999 -28zM32.998 178l97 19c4 -48 26 -78.333 66 -91c7.33301 -2.66699 13.333 -4 18 -4v-103c-56 1.33301 -102.667 25 -140 71c-26 33.333 -39.667 69.333 -41 108zM32.998 521c2 51.333 23.667 95.334 65 132.001
c34 30 72.667 45.667 116 47v-103c-50.667 -8.66699 -78.667 -39.334 -84 -92.001v-3z" />
    <glyph glyph-name="four" unicode="4" horiz-adv-x="494" 
d="M23 143v103l219 375v-199l-104 -176h104v-103h-219zM296 0v701h111v-455h54v-103h-54v-143h-111z" />
    <glyph glyph-name="five" unicode="5" horiz-adv-x="520" 
d="M44 354l29 346h357v-103l-261 -1l-15 -167c24.667 12 48.667 18 72 18v-98c-40 -3.33301 -69.667 -20 -89 -50zM278 0l-0.000976562 99.999c39.333 5.33301 69 24.666 89 57.999c12 20 18 42 18 66c0 50.667 -20.667 87.667 -62 111c-15.333 8 -30.333 12.667 -45 14v98
c82.667 -1.33301 142.334 -35.666 179.001 -102.999c20 -36 30 -76.333 30 -121c0 -80 -29.333 -141 -88 -183c-36 -25.333 -76.333 -38.666 -121 -39.999zM32.999 155.999l96.001 23c8 -34 29.667 -57.333 65 -70c10.667 -3.33301 20.667 -5.33301 30 -6v-104
c-54.667 0 -102.334 21 -143.001 63c-27.333 28.667 -43.333 60 -48 94z" />
    <glyph glyph-name="six" unicode="6" horiz-adv-x="513" 
d="M236 -1l-0.000976562 103c-38.667 4.66699 -64.667 28 -78 70c-4.66699 13.333 -7 26.666 -7 39.999c0 42.667 14.667 74.334 44 95.001c12.667 8 26.334 13 41.001 15v103c-42.667 -0.666992 -74.667 -13.667 -96 -39c0 122 28.667 191.333 86 208l10 2v103
c-106.667 -2.66699 -171.667 -78 -195 -226c-5.33301 -36 -8 -75.333 -8 -118c0 -170 33.667 -278.667 101 -326c28 -19.333 62 -29.333 102 -30zM290.999 -1c57.333 0 104.667 23.334 142 70.001c32 40 48 87.333 48 142c0 78 -24.333 136.667 -73 176
c-32.667 25.333 -71.667 38 -117 38v-103c35.333 -5.33301 60.333 -25 75 -59c6.66699 -16 10 -33 10 -51c0 -37.333 -13 -67.333 -39 -90c-14 -10.667 -29.333 -17.334 -46 -20.001v-103zM371 536.001l85.001 58c-22 44.667 -56.667 76 -104 94
c-20.667 7.33301 -41.334 11 -62.001 11v-103c29.333 0 52.666 -13 69.999 -39c4.66699 -6.66699 8.33398 -13.667 11.001 -21z" />
    <glyph glyph-name="seven" unicode="7" horiz-adv-x="446" 
d="M432 596h-399v104h399v-104zM165 0c4 149.333 37.001 298.999 99.001 448.999c14.667 34 29.667 65.667 45 95h114c-77.333 -147.333 -124.333 -304.333 -141 -471c-2.66699 -25.333 -4.33398 -49.666 -5.00098 -72.999h-112z" />
    <glyph glyph-name="eight" unicode="8" horiz-adv-x="500" 
d="M221 -1c-51.333 0 -96.332 20.998 -134.999 62.998c-35.333 39.333 -53 84.666 -53 135.999c0 70 22.333 119.667 67 149c1.33301 0.666992 2.33301 1.33398 3 2.00098c-38.667 24.667 -61.334 65.667 -68.001 123c-0.666992 8.66699 -1 17.334 -1 26.001
c0 61.333 23.667 112.666 71 153.999c36 31.333 75 47 117 47v-102c-38 -4 -63.667 -25 -77 -63c-4.66699 -12.667 -7 -25.667 -7 -39c0 -40.667 15.667 -69 47 -85c10.667 -5.33301 22.667 -8.66602 36 -9.99902v-102c-38.667 -4 -64.667 -22.333 -78 -55
c-4.66699 -12 -7 -25 -7 -39c0 -45.333 17.667 -76.666 53 -93.999c10 -4.66699 20.667 -7.66699 32 -9v-102zM278.001 -1.00195l0.000976562 101.997c39.333 4.66699 65.666 25.334 78.999 62.001c4.66699 12.667 7 26.334 7 41.001c0 42 -18.333 70.667 -55 86
c-10 4 -20 6.66699 -30 8v102c40 3.33301 66 24 78 62c3.33301 10.667 5 21.667 5 33c0 38.667 -13.667 67.667 -41 87c-13.333 8 -27.666 13 -42.999 15v102c50 0 94.333 -21 133 -63c36.667 -40 55 -86 55 -138c0 -62.667 -20 -110 -60 -142l-9 -7
c44.667 -33.333 68 -83.666 70 -150.999c0 -61.333 -23.333 -112.333 -70 -153c-36.667 -30.667 -76.334 -46 -119.001 -46z" />
    <glyph glyph-name="nine" unicode="9" horiz-adv-x="513" 
d="M275 0c115.333 -0.666992 182 81.3311 200 245.998c3.33301 28.667 5 60.334 5 95.001c0 173.333 -34.333 283.333 -103 330c-28.667 19.333 -62.667 29 -102 29v-104c38 -4.66699 64 -26.667 78 -66c5.33301 -14 8 -28 8 -42c0 -51.333 -18.667 -85.333 -56 -102
c-10 -4 -20 -6.66699 -30 -8v-104c30.667 0 62 11.333 94 34c1.33301 0.666992 2.33301 1.33398 3 2.00098c0 -113.333 -24 -180.333 -72 -201c-8 -3.33301 -16.333 -5.33301 -25 -6v-103zM224 273.998v104.001c-40.667 5.33301 -67.334 28 -80.001 68
c-4 13.333 -6 27 -6 41c0 36.667 13 66 39 88c14 11.333 29.667 18.333 47 21v104c-57.333 0 -104.666 -23.333 -141.999 -70c-32.667 -40.667 -49 -88.334 -49 -143.001c0 -80.667 25.667 -140 77 -178c31.333 -23.333 69.333 -35 114 -35zM55 107.999
c29.333 -58 73.334 -93.001 132.001 -105.001c12.667 -2 25 -3 37 -3v103c-28.667 0.666992 -53 14.667 -73 42c-4.66699 6.66699 -8.33398 13.334 -11.001 20.001z" />
    <glyph glyph-name="colon" unicode=":" horiz-adv-x="222" 
d="M50 105c0 25.333 11.333 43.666 34 54.999c8.66699 4.66699 17.667 7 27 7c25.333 0 43.666 -11.333 54.999 -34c4 -9.33301 6 -18.666 6 -27.999c0 -24.667 -11 -42.334 -33 -53.001c-9.33301 -4.66699 -18.666 -7 -27.999 -7c-26 0 -44.333 11.333 -55 34
c-4 8.66699 -6 17.334 -6 26.001zM50 395c0 25.333 11.333 43.666 34 54.999c8.66699 4.66699 17.667 7 27 7c25.333 0 43.666 -11.333 54.999 -34c4 -9.33301 6 -18.666 6 -27.999c0 -24.667 -11 -42.334 -33 -53.001c-9.33301 -4.66699 -18.666 -7 -27.999 -7
c-26 0 -44.333 11.333 -55 34c-4 8.66699 -6 17.334 -6 26.001z" />
    <glyph glyph-name="semicolon" unicode=";" horiz-adv-x="264" 
d="M50 -23l37 152h101l-37 -152h-101zM93 346c0 26 11.666 44.3311 34.999 54.998c8.66699 4 17.334 6 26.001 6c24.667 0 42.334 -11 53.001 -33c4.66699 -9.33301 7 -18.666 7 -27.999c0 -26 -11.333 -44.333 -34 -55c-8.66699 -4 -17.334 -6 -26.001 -6
c-26 0 -44.333 11.667 -55 35c-4 8.66699 -6 17.334 -6 26.001z" />
    <glyph glyph-name="less" unicode="&#x3c;" horiz-adv-x="420" 
d="M33 263v55l354 182v-104l-214 -104l214 -111v-102z" />
    <glyph glyph-name="equal" unicode="=" horiz-adv-x="418" 
d="M50 156v102h318v-102h-318zM50 325v102h318v-102h-318z" />
    <glyph glyph-name="greater" unicode="&#x3e;" horiz-adv-x="420" 
d="M33 79v102l214 111l-214 104v104l354 -182v-55z" />
    <glyph glyph-name="question" unicode="?" horiz-adv-x="466" 
d="M33 611c38.667 48.667 84.667 78 138 88c16 2.66699 32.667 4 50 4c83.333 0 143.333 -31.333 180 -94c20 -34 30.667 -73.333 32 -118c0 -36.667 -6.16699 -69.167 -18.5 -97.5s-27.5 -49.5 -45.5 -63.5s-35.833 -25.5 -53.5 -34.5s-32.834 -14.5 -45.501 -16.5l-18 -3
v-138h-103v228c80.667 1.33301 133.334 16.333 158.001 45c16 20 24 47 24 81c0 42.667 -18.333 74 -55 94c-18.667 10 -39 15 -61 15c-48 -0.666992 -86.667 -20 -116 -58zM139 39c0 26 11.667 44.333 35 55c8.66699 4 17.334 6 26.001 6c26 0 44.333 -11.667 55 -35
c4 -8.66699 6 -17.334 6 -26.001c0 -26 -11.667 -44.333 -35 -55c-8.66699 -4 -17.334 -6 -26.001 -6c-26 0 -44.333 11.667 -55 35c-4 8.66699 -6 17.334 -6 26.001z" />
    <glyph glyph-name="at" unicode="@" horiz-adv-x="793" 
d="M23 309c0 106.667 36.332 197.334 108.999 272.001c76 77.333 173 118.333 291 123h20c86 0 160 -24.667 222 -74c68.667 -55.333 103.334 -128 104.001 -218c0 -120 -40 -203.667 -120 -251c-36.667 -21.333 -76 -32 -118 -32c-28.667 0 -52 11 -70 33
c-4 6 -7 11.333 -9 16c-22 -30.667 -57 -46.334 -105 -47.001c-41.333 0 -75.333 20.333 -102 61c-18.667 30 -28 63.667 -28 101c0 78 29.333 138 88 180c33.333 24 67.666 36 102.999 36c38.667 -0.666992 69.334 -13.334 92.001 -38.001l2 -2l8 25h71l-48 -186
c-4.66699 -16.667 -7.33398 -30.667 -8.00098 -42c-1.33301 -18.667 5 -30.667 19 -36c3.33301 -1.33301 7 -2 11 -2c29.333 0 55.333 14.333 78 43c26.667 34 40 81 40 141c0 65.333 -29.667 118 -89 158c-43.333 28.667 -89.666 43 -138.999 43
c-88.667 0 -164.667 -28.667 -228 -86c-64 -58.667 -96.333 -130.667 -97 -216c0 -106 36.333 -186.333 109 -241c50.667 -38.667 111.334 -58 182.001 -58c92 0.666992 177.333 28.334 256 83.001l41 -75c-52.667 -46 -122.667 -76 -210 -90
c-27.333 -4.66699 -54 -7 -80 -7c-124.667 0 -223.334 38.333 -296.001 115c-66 70 -99 160.333 -99 271z" />
    <glyph glyph-name="A" unicode="A" horiz-adv-x="499" 
d="M31 0l132 587h15l46 -212l-83 -375h-110zM216 100l23 109h75l-108 491h110l161 -700h-111l-22 100h-128z" />
    <glyph glyph-name="B" unicode="B" horiz-adv-x="495" 
d="M33 0h111v700h-111v-700zM196 0l56 -0.000976562c82 0 141.667 29.667 179 89c20.667 32.667 31 69.334 31 110.001c-0.666992 66 -24 116.667 -70 152c37.333 27.333 59.333 68.333 66 123c1.33301 9.33301 2 18.666 2 27.999c0 63.333 -22 114 -66 152
c-37.333 30.667 -85 46 -143 46h-55v-98h41c48.667 0 82.667 -20 102 -60c6.66699 -15.333 10 -31 10 -47c0 -44.667 -18.333 -74 -55 -88c-14 -5.33301 -29.333 -8 -46 -8h-52v-97h52c50 0 82 -20.333 96 -61c4 -11.333 6 -23 6 -35c0 -41.333 -17.333 -71.666 -52 -90.999
c-20 -11.333 -43.667 -17 -71 -17h-31v-98z" />
    <glyph glyph-name="C" unicode="C" horiz-adv-x="500" 
d="M39 181c0 -38.667 14.332 -76.334 42.999 -113.001c38.667 -48 90.334 -72.333 155.001 -73v111c-39.333 0 -66.333 17.333 -81 52c-4 9.33301 -6 17 -6 23v337c0 18 8.33301 35.333 25 52c17.333 15.333 38 23.333 62 24v111c-75.333 0 -132 -32 -170 -96
c-18.667 -31.333 -28 -61.666 -28 -90.999v-337zM287.999 -5c52.667 0 98.333 20.666 137 61.999c33.333 36.667 50 78.334 50 125.001l-108 26c0 -7.33301 -0.333008 -12 -1 -14c0 -14 -1.66699 -26 -5 -36c-5.33301 -13.333 -14 -24.333 -26 -33s-23 -14 -33 -16l-14 -3
v-111zM287.998 593.999l25.999 -8.00098c22.667 -11.333 38.334 -27.666 47.001 -48.999c3.33301 -10 5 -21.333 5 -34v-15l109 28c0 51.333 -21.333 97 -64 137c-38 34.667 -79 52 -123 52v-111z" />
    <glyph glyph-name="D" unicode="D" horiz-adv-x="472" 
d="M41 0v700h112v-700h-112zM205 0v111.001c76.667 0 115.667 28 117 84v2v306c0 40 -22.333 66.333 -67 79c-15.333 4.66699 -32 7 -50 7v111c85.333 0 149 -28 191 -84c24.667 -33.333 37 -71 37 -113v-306c0 -92.667 -43.667 -153.334 -131 -182.001
c-30 -10 -62.333 -15 -97 -15z" />
    <glyph glyph-name="E" unicode="E" horiz-adv-x="444" 
d="M41 0v700h364v-110h-252v-186h158v-112h-158v-181h252v-111h-364z" />
    <glyph glyph-name="F" unicode="F" horiz-adv-x="435" 
d="M41 1v699h364v-110h-252v-186h158v-112h-158v-291h-112z" />
    <glyph glyph-name="G" unicode="G" horiz-adv-x="509" 
d="M39 192c0 -74.667 33.0029 -130.666 99.0029 -167.999c34 -19.333 66.667 -29 98 -29v111c-16.667 0 -34.667 7.33301 -54 22c-20.667 17.333 -31.334 38.666 -32.001 63.999v316c0 27.333 11.333 50 34 68c15.333 11.333 32.666 17.333 51.999 18v111
c-72.667 0 -128.334 -31.333 -167.001 -94c-17.333 -29.333 -27.333 -58.333 -30 -87v-332zM287.003 -4.99902c42.667 0.666992 84.999 21.332 126.999 61.999c39.333 40 59.333 79.667 60 119v177h-187v-103h74v-60c0 -29.333 -15.333 -53.666 -46 -72.999
c-11.333 -7.33301 -20.666 -11 -27.999 -11v-111zM287.002 593.999c24.667 -0.666992 45.001 -12.333 61.001 -35c9.33301 -14.667 14.666 -31.667 15.999 -51v-32l110 40c0 51.333 -21.333 97 -64 137c-38 34.667 -79 52 -123 52v-111z" />
    <glyph glyph-name="H" unicode="H" horiz-adv-x="489" 
d="M40 0v700h112v-293h66v-109h-66v-298h-112zM271 298v109h66v293h112v-700h-112v298h-66z" />
    <glyph glyph-name="I" unicode="I" horiz-adv-x="196" 
d="M42 0v700h112v-700h-112z" />
    <glyph glyph-name="J" unicode="J" horiz-adv-x="488" 
d="M16 193l-0.000976562 49h112v-47c0.666992 -38.667 18.334 -66 53.001 -82c9.33301 -4 17.333 -6 24 -6v-112c-36.667 0 -73.667 14 -111 42c-51.333 40 -77.333 92 -78 156zM255.999 -5l0.000976562 112.001c16 0 33.667 7.33301 53 22
c21.333 17.333 32.333 38.666 33 63.999v507h111v-507c0 -74 -33 -130 -99 -168c-34.667 -20 -67.334 -30 -98.001 -30z" />
    <glyph glyph-name="K" unicode="K" horiz-adv-x="489" 
d="M41 0v700h112v-700h-112zM195 341l160 359h113l-160 -359l164 -341h-112z" />
    <glyph glyph-name="L" unicode="L" horiz-adv-x="434" 
d="M41 0v700h112v-590h264v-110h-376z" />
    <glyph glyph-name="M" unicode="M" horiz-adv-x="696" 
d="M42 0v474h9l103 -247v-227h-112zM42 628v72h89l212 -515l138 312h10v-254l-108 -243h-80zM542 0v700h112v-700h-112z" />
    <glyph glyph-name="N" unicode="N" horiz-adv-x="529" 
d="M42 0v522h8l104 -167v-355h-112zM42 628v72h93l352 -565v-135h-54zM375 408v292h112v-459h-8z" />
    <glyph glyph-name="O" unicode="O" horiz-adv-x="525" 
d="M39 195v329.001c0 35.333 15 71.333 45 108c40 48 90.667 72.333 152 73v-111c-34.667 -0.666992 -60.667 -19.334 -78 -56.001c-5.33301 -12 -8 -22 -8 -30v-313c0 -36 18.667 -62.667 56 -80c11.333 -5.33301 21 -8 29 -8v-112c-38 0 -76 13.667 -114 41
c-54 40 -81.333 93 -82 159zM290 -4.99902l0.00195312 111.999c17.333 0 35.333 8 54 24c20 18 30.333 39.333 31 64v313c0 20 -8.66699 39.333 -26 58c-16.667 18 -36.334 27.333 -59.001 28v111c67.333 0 121.333 -29 162 -87c23.333 -33.333 35 -64.666 35 -93.999v-329
c0 -74 -33 -130.667 -99 -170c-34.667 -20 -67.334 -30 -98.001 -30z" />
    <glyph glyph-name="P" unicode="P" horiz-adv-x="480" 
d="M42 0v700h112v-700h-112zM205 316l-0.000976562 108.999h67c48.667 0 75 23.667 79 71v12c-4.66699 52.667 -31 80.334 -79 83.001h-67v109h76c121.333 -2 182.333 -65.333 183 -190c0 -96.667 -30.667 -157 -92 -181c-25.333 -8.66699 -55.666 -13 -90.999 -13h-76z" />
    <glyph glyph-name="Q" unicode="Q" horiz-adv-x="527" 
d="M39 195l0.00195312 328.999c0 35.333 14.667 71 44 107c40.667 48.667 92 73.334 154 74.001v-111c-36 -0.666992 -62.333 -19 -79 -55c-5.33301 -12 -8 -22.333 -8 -31v-313c0 -40 21.333 -67.667 64 -83c9.33301 -3.33301 16.666 -5 21.999 -5v-112
c-39.333 0 -78.333 14 -117 42c-52.667 40 -79.334 92.667 -80.001 158zM288.002 -5.00098l-0.000976562 111.998c14 0 30.667 6.66699 50 20c24 17.333 36.333 40 37 68v313c0 20.667 -9 40.334 -27 59.001c-16.667 17.333 -36.667 26.333 -60 27v111
c68.667 0 123.334 -29 164.001 -87c23.333 -33.333 35 -64.666 35 -93.999v-329c-0.666992 -66 -31.667 -119.667 -93 -161l55 -81l-88 -60z" />
    <glyph glyph-name="R" unicode="R" horiz-adv-x="506" 
d="M42 0v700h112v-700h-112zM205 295v100.001h56c58 0 90 27.667 96 83c0.666992 6 1 11.667 1 17c0 56 -25.333 89 -76 99c-9.33301 1.33301 -19 2 -29 2h-48v104h61c88.667 -2 148.334 -35 179.001 -99c12.667 -26.667 19 -57.334 19 -92.001
c-0.666992 -74 -23.334 -127.667 -68.001 -161c34.667 -20 56.667 -55.667 66 -107c1.33301 -8.66699 2.33301 -16.667 3 -24l17 -217h-104l-15 178c-5.33301 56 -20.333 91.333 -45 106c-14.667 7.33301 -33 11 -55 11h-58z" />
    <glyph glyph-name="S" unicode="S" horiz-adv-x="487" 
d="M23 158l101.001 36c4 -43.333 27.667 -73.333 71 -90l12 -4v-103c-57.333 0 -106 24.667 -146 74c-24.667 31.333 -37.334 60.333 -38.001 87zM31.001 510c0 72.667 31.335 127.332 94.002 163.999c29.333 16.667 56.666 25.334 81.999 26.001v-105
c-20.667 -3.33301 -38.667 -15.333 -54 -36c-10 -14.667 -15 -30.334 -15 -47.001c0 -34.667 25 -62.334 75 -83.001c12 -4.66699 30.667 -11 56 -19c32 -10 54.333 -18 67 -24c58 -28.667 95.667 -62.667 113 -102c10 -23.333 15 -49 15 -77
c0 -58.667 -22.667 -109.667 -68 -153c-40.667 -38 -86.334 -57 -137.001 -57v103c25.333 1.33301 48 13.333 68 36c16.667 20 25 43 25 69c0 40.667 -28.333 71.334 -85 92.001c-12 4.66699 -30.667 10.667 -56 18c-28 8 -47 14.333 -57 19
c-56 24.667 -92 56.334 -108 95.001c-10 23.333 -15 50.333 -15 81zM259.003 594.998v104.999c57.333 0 105.333 -24.667 144 -74c20.667 -26.667 31.667 -51 33 -73l-103 -34c-2.66699 20 -10.167 36.333 -22.5 49s-23.833 20.334 -34.5 23.001z" />
    <glyph glyph-name="T" unicode="T" horiz-adv-x="466" 
d="M16 591v109h433v-109h-160v-591h-112v591h-161z" />
    <glyph glyph-name="U" unicode="U" horiz-adv-x="516" 
d="M34 193l0.000976562 507h112v-507c0.666992 -37.333 21 -64 61 -80c10 -4 18.333 -6 25 -6v-112c-38 0 -76.333 13.333 -115 40c-54.667 39.333 -82.334 92 -83.001 158zM284.001 -5l-0.000976562 112c17.333 0 35.333 7.33301 54 22
c20.667 17.333 31.334 38.666 32.001 63.999v507h111v-507c0 -75.333 -33.333 -131.666 -100 -168.999c-34 -19.333 -66.333 -29 -97 -29z" />
    <glyph glyph-name="V" unicode="V" horiz-adv-x="473" 
d="M9 700h113l169 -578l-41 -122h-38zM259 413l92 286.999h114c-6 -20 -20.333 -65.333 -43 -136c-54.667 -171.333 -88.667 -279.666 -102 -324.999h-10z" />
    <glyph glyph-name="W" unicode="W" horiz-adv-x="792" 
d="M10 700l203 -700h38l41 125l-168 575h-114zM258 418l51 -174h10l74 258l141 -502h38l41 123l-163 577h-113zM585 417l51 -173h10l136 456h-114z" />
    <glyph glyph-name="X" unicode="X" horiz-adv-x="451" 
d="M19 0l151 361l-139 339h109l85 -195l86 195h108l-138 -339l150 -361h-114l-92 213l-91 -213h-115z" />
    <glyph glyph-name="Y" unicode="Y" horiz-adv-x="461" 
d="M17 700h116l146 -447v-253h-115v252zM256 505l73 195h115l-128 -375h-8z" />
    <glyph glyph-name="Z" unicode="Z" horiz-adv-x="432" 
d="M33 0v110l243 480h-243v110h366v-107l-243 -480h243v-113h-366z" />
    <glyph glyph-name="bracketleft" unicode="[" horiz-adv-x="235" 
d="M50 -36v775h161v-89h-55l-3 -597h58v-89h-161z" />
    <glyph glyph-name="backslash" unicode="\" horiz-adv-x="359" 
d="M41 716h102l175 -739h-103z" />
    <glyph glyph-name="bracketright" unicode="]" horiz-adv-x="230" 
d="M24 -36v89h58l-3 597h-55v89h161v-775h-161z" />
    <glyph glyph-name="asciicircum" unicode="^" horiz-adv-x="483" 
d="M57 460l149 296h71l149 -296h-100l-86 172l-84 -172h-99z" />
    <glyph glyph-name="underscore" unicode="_" horiz-adv-x="516" 
d="M33 -118h450v-87h-450v87z" />
    <glyph glyph-name="grave" unicode="`" horiz-adv-x="291" 
d="M41 757h102l37 -152h-73z" />
    <glyph glyph-name="a" unicode="a" horiz-adv-x="470" 
d="M29 129c0 -37.333 18.0029 -69.001 54.0029 -95.001c31.333 -22.667 68.666 -34 111.999 -34v99c-49.333 0.666992 -74.333 18 -75 52v21c0.666992 13.333 4.66699 22.666 12 27.999c5.33301 4 36.666 13.667 93.999 29c40 10.667 68 20.334 84 29.001v-99
c0 -32 -15 -51.333 -45 -58c-6 -1.33301 -12.333 -2 -19 -2v-99c44 0.666992 79.333 12 106 34c23.333 -22.667 52.666 -34 87.999 -34v100c-17.333 1.33301 -26.333 12 -27 32v269c0 40 -16 75.667 -48 107s-72 47 -120 47v-98c30 0 50 -12.333 60 -37
c3.33301 -8 5 -16.333 5 -25v-21c0 -17.333 -36.667 -37.333 -110 -60c-69.333 -21.333 -108.666 -34.666 -117.999 -39.999c-34.667 -20.667 -52.334 -52.667 -53.001 -96v-49zM37.0029 415.999l92.001 -34.999c0 38 14.667 62 44 72c7.33301 2.66699 14.666 4 21.999 4v98
c-46 0 -85.667 -16.667 -119 -50c-26 -26.667 -39 -56.334 -39 -89.001z" />
    <glyph glyph-name="b" unicode="b" horiz-adv-x="455" 
d="M41 0v711h110v-711h-110zM201 0v102.999h60c24 0 42 11 54 33c4 6.66699 6 12.334 6 17.001v248c0 14 -8 26.667 -24 38c-11.333 7.33301 -23 11.333 -35 12h-61v103h61c56.667 0 101.667 -24.333 135 -73c18 -26 27.333 -51.333 28 -76v-254
c0 -30.667 -13 -61.667 -39 -93c-33.333 -38 -75 -57.333 -125 -58h-60z" />
    <glyph glyph-name="c" unicode="c" horiz-adv-x="449" 
d="M38 151c0 -34.667 13.667 -67.001 41 -97.001c33.333 -36 77.333 -54 132 -54v102c-34.667 0 -56.334 11.667 -65.001 35c-2 4.66699 -3 9.33398 -3 14.001v251c0 18 9.66699 32 29 42c11.333 6 24.333 9 39 9v101c-65.333 0 -114.666 -26 -147.999 -78
c-16 -24.667 -24.333 -48.667 -25 -72v-253zM256 451.999c32 0 51.333 -15 58 -45c1.33301 -5.33301 2 -10.666 2 -15.999v-28l98 37c0 49.333 -20 89.666 -60 120.999c-29.333 22 -62 33 -98 33v-102zM256 -1.00098c47.333 -1.33301 89 16.333 125 53
c30 30.667 45 64.667 45 102l-98 37v-27c-3.33301 -41.333 -27.333 -62.333 -72 -63v-102z" />
    <glyph glyph-name="d" unicode="d" horiz-adv-x="451" 
d="M30 151l0.000976562 253.001c0.666992 34 15.667 66.333 45 97c32.667 34 71.667 51.333 117 52h58v-104h-58c-24 0 -41.667 -11 -53 -33c-3.33301 -6.66699 -5 -12.334 -5 -17.001v-246c0 -14.667 8.66699 -27.667 26 -39c10.667 -7.33301 22 -11 34 -11h56v-103h-56
c-60.667 -0 -107.334 26.333 -140.001 79c-16 26 -24 50 -24 72zM300.001 0.000976562v711h110v-711h-110z" />
    <glyph glyph-name="e" unicode="e" horiz-adv-x="475" 
d="M38 151v253.999c1.33301 32.667 16.333 64.334 45 95.001c35.333 35.333 78 53.333 128 54v-100c-26 0 -45.667 -11.667 -59 -35c-4.66699 -8 -7 -15.333 -7 -22v-60h190v59c0 28 -15.333 46.333 -46 55c-8.66699 2.66699 -17.334 4 -26.001 4v99
c47.333 0 89.333 -16.333 126 -49c30.667 -29.333 46.334 -62.333 47.001 -99v-172h-291v-83c0 -17.333 9.66699 -31.666 29 -42.999c12 -6.66699 25 -10 39 -10v-98c-62 0 -111 25 -147 75c-18.667 27.333 -28 52.666 -28 75.999zM263 -0.000976562l-0.000976562 99
c38.667 0 65.334 16.333 80.001 49c2 4.66699 3.66699 9 5 13l89 -32c-12 -45.333 -39 -80.333 -81 -105c-28.667 -16 -59.667 -24 -93 -24z" />
    <glyph glyph-name="f" unicode="f" horiz-adv-x="298" 
d="M19 403v104.001h68v49c0 33.333 12.333 65.666 37 96.999c30.667 38 70 57.333 118 58h51l-24 -103h-27c-28.667 -6 -44.667 -23.333 -48 -52v-49h70v-104h-70v-403h-107v403h-68z" />
    <glyph glyph-name="g" unicode="g" horiz-adv-x="449" 
d="M23 -187l25.002 98h193c31.333 1.33301 52.666 14.333 63.999 39c2.66699 5.33301 4 10 4 14v60c-26.667 -12 -48.667 -18.333 -66 -19v99c29.333 0 49.666 11.333 60.999 34c3.33301 6.66699 5 13 5 19v250c0 18 -10.333 32.667 -31 44c-11.333 6 -23 9 -35 9v99
c23.333 0 45.333 -6.33301 66 -19v19h103v-595c0 -28.667 -13 -58.667 -39 -90c-34 -40 -75.667 -60.333 -125 -61h-225zM33.002 155l0.000976562 256c0.666992 31.333 14.667 62.333 42 93c33.333 36 75 54.333 125 55v-99c-28.667 0 -49 -12 -61 -36
c-3.33301 -6 -5 -11.333 -5 -16v-252c0 -17.333 9.66699 -31.333 29 -42c11.333 -6 23.666 -9 36.999 -9v-100c-62 0.666992 -109.667 27 -143 79c-16 25.333 -24 49 -24 71z" />
    <glyph glyph-name="h" unicode="h" horiz-adv-x="465" 
d="M41 -5v716h100v-191c22.667 14 47.667 21 75 21v-99c-27.333 0 -49.333 -12 -66 -36c-5.33301 -8 -8 -15.333 -8 -22v-389h-101zM264 442v99c63.333 0 111 -22.667 143 -68c16.667 -24.667 25 -51 25 -79v-399h-101v389c0 20 -9 35.667 -27 47
c-12 7.33301 -25.333 11 -40 11z" />
    <glyph glyph-name="i" unicode="i" horiz-adv-x="214" 
d="M48 631c0 24.667 11 42.334 33 53.001c8.66699 4 17.334 6 26.001 6c25.333 0 43.333 -11 54 -33c4 -8.66699 6 -17.334 6 -26.001c0 -24 -11.333 -41.333 -34 -52c-8.66699 -4 -17.334 -6 -26.001 -6c-24 0 -41.667 10.667 -53 32c-4 8 -6 16.667 -6 26zM55 0v533h107
v-533h-107z" />
    <glyph glyph-name="j" unicode="j" horiz-adv-x="222" 
d="M63 533l106.999 0.00195312v-573c0 -31.333 -13.333 -63 -40 -95c-32.667 -38.667 -73.667 -58.334 -123 -59.001h-49l24 102h24c24.667 1.33301 42.334 13.666 53.001 36.999c2.66699 5.33301 4 10.333 4 15v573zM56.999 631.002c0 24.667 10.999 42.334 32.999 53.001
c8.66699 4 17.334 6 26.001 6c24 0 41.667 -11 53 -33c4 -8.66699 6 -17.334 6 -26.001c0 -24 -11 -41.333 -33 -52c-8 -4 -16.667 -6 -26 -6c-24 0 -41.667 10.667 -53 32c-4 8 -6 16.667 -6 26z" />
    <glyph glyph-name="k" unicode="k" horiz-adv-x="488" 
d="M41 0v711h110v-711h-110zM178 279l167 275h122l-170 -275l171 -279h-121z" />
    <glyph glyph-name="l" unicode="l" horiz-adv-x="198" 
d="M42 0v711h114v-711h-114z" />
    <glyph glyph-name="m" unicode="m" horiz-adv-x="744" 
d="M38 0l0.000976562 403.999c0 34.667 14.333 67.667 43 99c33.333 35.333 75.666 53 126.999 53v-106c-33.333 0 -53.333 -14.667 -60 -44c-1.33301 -5.33301 -2 -10.666 -2 -15.999v-390h-108zM254.001 449.999l0.00195312 105.999c48 -0.666992 87.333 -16 118 -46
c31.333 30.667 70.666 46 117.999 46v-106c-34.667 0 -55.334 -14.667 -62.001 -44c-1.33301 -5.33301 -2 -10.666 -2 -15.999v-390h-108v390c0 30 -13.667 49 -41 57c-7.33301 2 -15 3 -23 3zM535.003 449.998v105.999c63.333 0 112 -26 146 -78
c16.667 -26 25 -50.667 25 -74v-404h-108v390c0 34.667 -16.667 54.334 -50 59.001c-4 0.666992 -8.33301 1 -13 1z" />
    <glyph glyph-name="n" unicode="n" 
d="M38 0v404c0 32 14.667 63.667 44 95c36 37.333 80.667 56.333 134 57v-106c-30.667 0 -52 -12 -64 -36c-4 -8 -6 -15.667 -6 -23v-391h-108zM260 450v106c63.333 0 113 -25.667 149 -77c19.333 -26.667 29 -51.667 29 -75v-404h-108v391c0 20 -9.66699 36 -29 48
c-12 7.33301 -25.667 11 -41 11z" />
    <glyph glyph-name="o" unicode="o" horiz-adv-x="466" 
d="M38 151l-0.000976562 252.998c0 32.667 14.667 64.334 44 95.001c34.667 36.667 78.334 55 131.001 55v-103c-34.667 0 -57 -14.333 -67 -43c-2 -6 -3 -12 -3 -18v-225c0 -25.333 11.667 -43.666 35 -54.999c10.667 -5.33301 22.667 -8 36 -8v-103
c-64.667 0 -114.667 26 -150 78c-17.333 26 -26 50.667 -26 74zM257.999 -1.00195l0.000976562 103.001c32 0 53 13.667 63 41c2.66699 7.33301 4 14 4 20v227c0 28 -13 46.667 -39 56c-8.66699 3.33301 -18.334 5 -29.001 5v103c62.667 0 111 -25.333 145 -76
c17.333 -26 26 -50.667 26 -74v-253c0 -32.667 -14 -64.667 -42 -96c-34 -36.667 -76.667 -55.334 -128 -56.001z" />
    <glyph glyph-name="p" unicode="p" horiz-adv-x="470" 
d="M202 0v103.001h56c31.333 0 52 12.333 62 37c2 4.66699 3 9 3 13v248c0 13.333 -7.66699 25.333 -23 36c-12.667 9.33301 -27.667 14 -45 14h-55v103h55c63.333 0 112.333 -25.667 147 -77c17.333 -26 26 -50.667 26 -74v-252c0 -32 -14 -63.667 -42 -95
c-34 -36.667 -76.667 -55.334 -128 -56.001h-56zM40 -193.999v748h111v-748h-111z" />
    <glyph glyph-name="q" unicode="q" horiz-adv-x="465" 
d="M209 0c-62.667 0 -110.666 25.666 -143.999 76.999c-17.333 26 -26 50.667 -26 74v252c0 32 13.667 63.667 41 95c34 36.667 77 55.334 129 56.001h56v-103h-56c-32 0 -52.667 -12.667 -62 -38c-2 -4.66699 -3 -8.66699 -3 -12v-248c0 -16 8.33301 -29.333 25 -40
c11.333 -6.66699 24.666 -10 39.999 -10h54v-103h-54zM313.001 -194.001v748h112v-748h-112z" />
    <glyph glyph-name="r" unicode="r" horiz-adv-x="324" 
d="M42 0l-0.000976562 554.001h108v-69c18.667 29.333 46.667 50.333 84 63c17.333 6 34.333 9 51 9h26l-25 -105c-39.333 -0.666992 -73.666 -19.667 -102.999 -57c-22 -28.667 -33 -58.334 -33 -89.001v-306h-108z" />
    <glyph glyph-name="s" unicode="s" horiz-adv-x="443" 
d="M20 146l99 18c0 -26 13.667 -45.667 41 -59c12 -6 23.667 -9 35 -9v-101c-70.667 0 -121.667 25 -153 75c-14.667 24 -22 49.333 -22 76zM25 400c0 61.333 28.335 107.001 85.002 137.001c27.333 14 54.666 21 81.999 21v-99c-32 0 -53.333 -12.667 -64 -38
c-2.66699 -7.33301 -4 -14.333 -4 -21c0 -20 17.333 -37.667 52 -53c29.333 -12 74 -25 134 -39c46 -9.33301 78.667 -33 98 -71c10 -20.667 15 -43.334 15 -68.001c0 -66 -26.667 -114.667 -80 -146c-30.667 -18.667 -65.667 -28 -105 -28v100c26.667 0 48.667 9 66 27
c10.667 12.667 16 26.667 16 42c0 23.333 -26 43 -78 59c-10.667 3.33301 -27.334 8 -50.001 14c-34 8 -58 14.667 -72 20c-49.333 22 -79.333 54.333 -90 97c-3.33301 14 -5 29.333 -5 46zM237.002 459.001v99c58.667 0 106 -21.667 142 -65c22.667 -28 34 -57.333 34 -88
l-99 -17c0 34 -18.333 56.333 -55 67c-8 2.66699 -15.333 4 -22 4z" />
    <glyph glyph-name="t" unicode="t" horiz-adv-x="303" 
d="M16 448l0.000976562 103h68v160h106v-160h66v-104h-66l1 -277c1.33301 -40 21.333 -60.333 60 -61h21l24 -109h-47c-84.667 -0 -136.334 32.333 -155.001 97c-6.66699 23.333 -10 51 -10 83v268h-68z" />
    <glyph glyph-name="u" unicode="u" 
d="M38 147v406.999h108v-395c0 -21.333 10.667 -37.666 32 -48.999c11.333 -6 24 -9 38 -9v-106c-64.667 0 -115 25.333 -151 76c-18 26 -27 51.333 -27 76zM260 -5.00098v106.001c33.333 0 55.333 13 66 39c2.66699 6.66699 4 13 4 19v395h108v-407
c0 -31.333 -14 -62.333 -42 -93c-36.667 -38.667 -82 -58.334 -136 -59.001z" />
    <glyph glyph-name="v" unicode="v" horiz-adv-x="432" 
d="M8 554h119l151 -447l-35 -107h-60zM236 348l69 206h119l-120 -365h-13z" />
    <glyph glyph-name="w" unicode="w" horiz-adv-x="723" 
d="M8 554l176 -554h60l34 107l-151 447h-119zM236 349l55 -160h13l57 179l117 -368h60l34 107l-151 447h-119zM531 349l54 -160h13l117 365h-119z" />
    <glyph glyph-name="x" unicode="x" horiz-adv-x="405" 
d="M8 0l135 281l-132 273h109l83 -157l81 157h110l-130 -273l133 -281h-109l-85 166l-86 -166h-109z" />
    <glyph glyph-name="y" unicode="y" horiz-adv-x="418" 
d="M6 554h114l143 -433l-105 -316h-110l99 318zM233 367l69 187h113l-124 -344h-11z" />
    <glyph glyph-name="z" unicode="z" horiz-adv-x="377" 
d="M30 0v104l197 346h-197v104h317v-102l-193 -348h193v-104h-317z" />
    <glyph glyph-name="braceleft" unicode="{" horiz-adv-x="271" 
d="M15 348c28.667 12 45.999 21.6689 51.999 29.002c6 8 9.33301 18.333 10 31v111c0 105.333 24 171 72 197c23.333 12.667 57.333 19 102 19v-81c-31.333 0 -51.333 -10.333 -60 -31c-8 -20 -12 -71.333 -12 -154v-86c-1.33301 -16.667 -14.666 -28.334 -39.999 -35.001
c26 -9.33301 39.333 -24 40 -44v-97c0 -84.667 9.66699 -135.667 29 -153c9.33301 -8 23.666 -12 42.999 -12v-80c-55.333 0.666992 -94 8.66699 -116 24c-38.667 29.333 -58 92.666 -58 189.999v114c0 16.667 -10.333 30.667 -31 42c-2.66699 2 -7.66699 4.66699 -15 8
s-12.666 6 -15.999 8z" />
    <glyph glyph-name="bar" unicode="|" horiz-adv-x="185" 
d="M50 -134v888h85v-888h-85z" />
    <glyph glyph-name="braceright" unicode="}" horiz-adv-x="271" 
d="M20 -38l-0.00195312 79.999c28 0 46.667 10.667 56 32c10.667 24 16 68.667 16 134v96c1.33301 20.667 14.666 35.334 39.999 44.001c-26 7.33301 -39.333 19.333 -40 36v85c-0.666992 84 -5 135.333 -13 154c-9.33301 20.667 -29 31 -59 31v81
c60.667 0 103.334 -13 128.001 -39c30.667 -33.333 46 -92.333 46 -177v-111c0.666992 -21.333 11.334 -37 32.001 -47c4 -2 14 -6.33301 30 -13c-29.333 -15.333 -45.666 -24.333 -48.999 -27c-8.66699 -8.66699 -13 -19 -13 -31v-114
c0 -107.333 -25.333 -173.333 -76 -198c-22 -10.667 -54.667 -16 -98 -16z" />
    <glyph glyph-name="asciitilde" unicode="~" horiz-adv-x="628" 
d="M80 286l0.000976562 105c40.667 23.333 78.334 35 113.001 35c28.667 0 65 -11.667 109 -35c43.333 -23.333 77.666 -36 102.999 -38h12c38.667 0.666992 82.334 15.667 131.001 45v-103c-50.667 -30.667 -96.334 -46 -137.001 -46c-31.333 0 -70 12.333 -116 37
c-48 22.667 -84 34.667 -108 36c-34.667 -0.666992 -70.334 -12.667 -107.001 -36z" />
    <glyph glyph-name="exclamdown" unicode="&#xa1;" horiz-adv-x="214" 
d="M21 493c0 26 11.667 45 35 57c10 5.33301 20 8 30 8c26.667 0 46 -12 58 -36c4.66699 -9.33301 7 -19 7 -29c0 -25.333 -11.333 -44 -34 -56c-10 -5.33301 -20.333 -8 -31 -8c-25.333 0 -44.333 11.333 -57 34c-5.33301 10 -8 20 -8 30zM33 -168v553h107v-553h-107z" />
    <glyph glyph-name="cent" unicode="&#xa2;" horiz-adv-x="446" 
d="M255 29v-113h46v89c47.333 13.333 82.666 40.333 105.999 81c12.667 22 19 44.667 19 68l-98 37v-7v-14l-1 -7c-2 -31.333 -18.333 -51 -49 -59c-7.33301 -2 -14.666 -3 -21.999 -3v-72h-1zM255 637l0.000976562 -113h1v-74c25.333 0 43.333 -10.667 54 -32
c3.33301 -8.66699 5.33301 -17.667 6 -27v-29l98 36c0 48.667 -20 88.667 -60 120c-16.667 12.667 -34.334 22 -53.001 28v91h-46zM165.001 637l-0.000976562 -88.999c-50.667 -12.667 -88 -42.667 -112 -90c-9.33301 -20 -14.333 -38.667 -15 -56v-251
c0 -35.333 14 -68 42 -98c22.667 -24.667 51 -40.667 85 -48v-89h45v186c-29.333 0.666992 -50 13 -62 37c-3.33301 6.66699 -5 13 -5 19v233c0 23.333 10.667 40.666 32 51.999c10.667 5.33301 22.334 8 35.001 8v186h-45z" />
    <glyph glyph-name="sterling" unicode="&#xa3;" horiz-adv-x="434" 
d="M20 298l58 -0.000976562v-298h331v88h-226v211h142v87h-141v142c0 45.333 18.333 71.333 55 78c5.33301 0.666992 10.666 1 15.999 1c36 -0.666992 62 -20.667 78 -60l81 40c-13.333 48 -42.666 82.333 -87.999 103c-2.66699 0.666992 -4.66699 1.33398 -6 2.00098
c-22 8.66699 -45 13 -69 13h-2c-76 0 -127.333 -31.333 -154 -94c-11.333 -26 -17 -54.667 -17 -86v-140h-58v-87z" />
    <glyph glyph-name="currency" unicode="&#xa4;" horiz-adv-x="632" 
d="M41 182l89.9971 81.998c-1.33301 2.66699 -2 9.33398 -2 20.001v161c0 8.66699 0.666992 16 2 22l-91 81l58 66l76 -66c30.667 31.333 70.334 47 119.001 47v-95c-33.333 0 -54.666 -13.333 -63.999 -40c-2 -6.66699 -3 -12.667 -3 -18v-156c0 -22 10.667 -38.667 32 -50
c10.667 -5.33301 22.334 -8 35.001 -8v-95c-49.333 0.666992 -89.333 17.334 -120 50.001l-75 -66zM333.997 132.998v94.001c30.667 0 50.667 13 60 39c2.66699 6.66699 4 13 4 19v157c0 22.667 -10.333 39.667 -31 51c-10 4.66699 -21 7 -33 7v95
c46 -0.666992 84.333 -16.667 115 -48l75 67l58 -66l-92 -82c2 -4 3 -10.667 3 -20v-162c0 -8.66699 -1 -15.334 -3 -20.001l91 -82l-58 -65l-74 65c-30 -32.667 -68.333 -49 -115 -49z" />
    <glyph glyph-name="yen" unicode="&#xa5;" horiz-adv-x="450" 
d="M177 0h109v214h154v52h-149l15 52h134v52h-118l100 328h-110l-79 -254l-82 254h-110l100 -328h-124v-52h140l16 -52h-156v-52h160v-214z" />
    <glyph glyph-name="brokenbar" unicode="&#xa6;" horiz-adv-x="190" 
d="M42 -138v356h98v-356h-98zM42 405v356h98v-356h-98z" />
    <glyph glyph-name="section" unicode="&#xa7;" horiz-adv-x="603" 
d="M54 352c0.666992 62.667 25.002 112.002 73.002 148.002c-7.33301 18.667 -11 42.667 -11 72c0 78.667 32 134 96 166c27.333 14 55.666 21 84.999 21h108v-104h-94c-50.667 -0.666992 -80.334 -20 -89.001 -58c-1.33301 -6.66699 -2 -13.334 -2 -20.001
c0.666992 -28.667 19 -52 55 -70v-123c-14 4 -26 8 -36 12c-21.333 10 -36 18 -44 24c-18.667 -15.333 -28.334 -37 -29.001 -65c0 -38 28.333 -67.667 85 -89c7.33301 -2.66699 15.333 -5.33398 24 -8.00098v-116c-50.667 16.667 -82 28 -94 34
c-55.333 29.333 -91.666 61.333 -108.999 96c-12 23.333 -18 50 -18 80zM198.002 -30.998l91.999 0.000976562c46 -0.666992 75 15.666 87 48.999c3.33301 9.33301 5 19.333 5 30c-0.666992 30 -19 53.667 -55 71v122c15.333 -4.66699 27.333 -9 36 -13
c20.667 -7.33301 36.334 -15.666 47.001 -24.999c18 17.333 27 38.666 27 63.999c0 39.333 -26.333 69 -79 89c-9.33301 4 -19.666 7.66699 -30.999 11v116c52.667 -18 84 -29.667 94 -35c56.667 -28 93.667 -60.667 111 -98c11.333 -23.333 17 -50 17 -80
c-0.666992 -61.333 -24.667 -111 -72 -149c6.66699 -19.333 10 -43 10 -71c0 -71.333 -28 -124 -84 -158c-30.667 -18.667 -63.334 -28 -98.001 -28h-107v105z" />
    <glyph glyph-name="dieresis" unicode="&#xa8;" horiz-adv-x="382" 
d="M55 678c0 25.333 11.333 43.667 34 55c8.66699 4.66699 17.667 7 27 7c26 0 44.333 -12 55 -36c4 -8.66699 6 -17.334 6 -26.001c0 -26 -11.333 -44.333 -34 -55c-8.66699 -4 -17.667 -6 -27 -6c-26 0 -44.333 11.667 -55 35c-4 8.66699 -6 17.334 -6 26.001z
M205 678.001c0 25.333 11.333 43.667 34 55c8.66699 4.66699 17.667 7 27 7c26 0 44.333 -12 55 -36c4 -8.66699 6 -17.334 6 -26.001c0 -26 -11.333 -44.333 -34 -55c-8.66699 -4 -17.667 -6 -27 -6c-26 0 -44.333 11.667 -55 35c-4 8.66699 -6 17.334 -6 26.001z" />
    <glyph glyph-name="copyright" unicode="&#xa9;" horiz-adv-x="807" 
d="M35 339c0 -106.667 37 -197.002 111 -271.002c64 -63.333 138.333 -98.666 223 -105.999c7.33301 -0.666992 14 -1 20 -1v75c-78 2.66699 -145 34.334 -201 95.001c-54 60 -81 129.333 -81 208c0 92 33.333 168.333 100 229c55.333 50 116 75.333 182 76v73
c-68 0 -134.333 -23.667 -199 -71c-84.667 -62 -135 -144 -151 -246c-2.66699 -20 -4 -40.333 -4 -61zM263 235.998c0 -32.667 12.001 -61.666 36.001 -86.999c23.333 -24.667 53.333 -37 90 -37v73c-24.667 0 -41.334 12 -50.001 36c-2 5.33301 -3 10.333 -3 15v205
c0 17.333 7.33301 31.666 22 42.999c9.33301 6 19.666 9 30.999 9v73c-51.333 0 -88.666 -23.333 -111.999 -70c-9.33301 -18.667 -14 -36.667 -14 -54v-206zM424.001 -39.001c82.667 2 157.667 32.667 225 92c76 67.333 118.333 151.333 127 252
c0.666992 8.66699 1 17 1 25c0 116 -40.333 212 -121 288c-62 58 -131.333 90.667 -208 98c-8.66699 0.666992 -16.667 1 -24 1v-73c69.333 -0.666992 131.333 -27.667 186 -81c63.333 -62 95 -138.333 95 -229c0 -78.667 -28.333 -147.667 -85 -207
c-56 -58 -121.333 -88.333 -196 -91v-75zM424.001 111.999c36 0 66.667 16.332 92 48.999c17.333 22.667 26 46.334 26 71.001l-72 26v-18c0 -26 -9.66699 -43.333 -29 -52c-6 -2.66699 -11.667 -4 -17 -4v-72zM424.001 492.998c18.667 -0.666992 32.333 -10.999 41 -30.999
c3.33301 -8.66699 5 -17.667 5 -27v-16l71 27c0 37.333 -16 68.666 -48 93.999c-22 17.333 -45 26 -69 26v-73z" />
    <glyph glyph-name="ordfeminine" unicode="&#xaa;" horiz-adv-x="243" 
d="M19 345v53h201v-53h-201zM16 492c0 -23.333 12.334 -41.3369 37.001 -54.0039c14 -7.33301 29.667 -11 47 -11v49c-24.667 1.33301 -37.334 10 -38.001 26v11c0.666992 6.66699 2.66699 11.334 6 14.001c1.33301 1.33301 20 7 56 17c15.333 4 26.333 8 33 12v-50
c0 -18 -9.33301 -27.667 -28 -29c-2 0 -3.33301 -0.333008 -4 -1v-49c22 0.666992 39.667 6.33398 53 17.001c12 -11.333 26.667 -17 44 -17v50c-8.66699 0.666992 -13.334 6 -14.001 16v135c0 24.667 -11 45 -33 61c-14.667 10 -31.667 15 -51 15v-48
c18.667 0 29.334 -8.33301 32.001 -25c0.666992 -2.66699 1 -5 1 -7v-10c0 -9.33301 -22.667 -20.666 -68 -33.999c-24.667 -7.33301 -40 -12.666 -46 -15.999c-17.333 -10 -26.333 -26 -27 -48v-24zM20.001 634.996l46.001 -17c0 22 9.33301 34.333 28 37
c2 0 4 0.333008 6 1v48c-27.333 0 -49.333 -10.333 -66 -31c-8.66699 -12 -13.334 -24.667 -14.001 -38z" />
    <glyph glyph-name="guillemotleft" unicode="&#xab;" horiz-adv-x="462" 
d="M22 265v50l211 156v-104l-108 -75l108 -82v-102zM233 265v50l211 156v-104l-108 -75l108 -82v-102z" />
    <glyph glyph-name="logicalnot" unicode="&#xac;" horiz-adv-x="529" 
d="M40 339v93h439v-224h-96v131h-343z" />
    <glyph glyph-name="uni00AD" unicode="&#xad;" horiz-adv-x="376" 
d="M27 243v101h316v-101h-316z" />
    <glyph glyph-name="registered" unicode="&#xae;" horiz-adv-x="398" 
d="M189 513l0.000976562 30.999h8c19.333 0.666992 29.333 9 30 25c-1.33301 17.333 -12.333 26.333 -33 27h-5v32c42 0 65 -16 69 -48c0.666992 -3.33301 1 -6.66602 1 -9.99902c-0.666992 -19.333 -7.33398 -33 -20.001 -41c12 -8.66699 18.667 -21 20 -37l3 -61h-30
l-4 50c-0.666992 18.667 -9 29 -25 31c-4 0.666992 -8.66699 1 -14 1zM190.001 357.999c-47.333 1.33301 -87.667 22 -121 62c-25.333 32 -38 67.333 -38 106c0 64 25.667 112.333 77 145c27.333 17.333 55.333 26.333 84 27v-36c-39.333 -0.666992 -72 -17.667 -98 -51
c-18.667 -24.667 -28 -52.667 -28 -84c0.666992 -44.667 18.667 -80.334 54 -107.001c21.333 -15.333 44.333 -23.666 69 -24.999zM208 357.999l-0.000976562 37c40.667 2 73.667 20.333 99 55c16.667 24 25 49.667 25 77c0 48 -19 85.333 -57 112
c-21.333 14.667 -43.666 22.334 -66.999 23.001v36c43.333 -1.33301 81.333 -19.333 114 -54c30 -32.667 45 -71.334 45 -116.001c0 -57.333 -22.667 -103 -68 -137c-28 -20 -58.333 -31 -91 -33zM139.999 430.999v196h34v-196h-34z" />
    <glyph glyph-name="macron" unicode="&#xaf;" horiz-adv-x="510" 
d="M33 799h450v-87h-450v87z" />
    <glyph glyph-name="degree" unicode="&#xb0;" horiz-adv-x="274" 
d="M35 583c0 36.667 15.667 65.334 47 86.001c17.333 10.667 35.666 16 54.999 16c36.667 0 65.334 -15.667 86.001 -47c10.667 -17.333 16 -35.666 16 -54.999c0 -36.667 -15.667 -65.334 -47 -86.001c-17.333 -10.667 -35.666 -16 -54.999 -16
c-36.667 0 -65.334 15.667 -86.001 47c-10.667 17.333 -16 35.666 -16 54.999zM99 583c0 -18 8.33301 -29.999 25 -35.999c4.66699 -1.33301 9 -2 13 -2c18.667 0 31 8.66699 37 26c1.33301 4 2 8 2 12c0 18.667 -8.66699 31 -26 37c-4 1.33301 -8.33301 2 -13 2
c-17.333 0 -29 -8.33301 -35 -25c-2 -4.66699 -3 -9.33398 -3 -14.001z" />
    <glyph glyph-name="plusminus" unicode="&#xb1;" horiz-adv-x="429" 
d="M27 66v101h376v-101h-376zM33 404v101h136v154h101v-154h138v-101h-138v-156h-101v156h-136z" />
    <glyph glyph-name="twosuperior" unicode="&#xb2;" horiz-adv-x="225" 
d="M12 624c0.666992 27.333 13.668 49.333 39.001 66c13.333 8 27.333 12.333 42 13v-49c-13.333 0 -23.333 -6.66699 -30 -20c-2.66699 -6 -4.33398 -12.333 -5.00098 -19zM20.001 389v51h181v-51h-181zM20.001 462c0 27.333 20.001 53.999 60.001 79.999
c15.333 9.33301 23.333 14.333 24 15c28 18.667 44.333 33 49 43c2.66699 5.33301 4 10.333 4 15c0 20 -9.66699 32.667 -29 38c-4 0.666992 -8 1 -12 1v49c46 0 74.667 -19.333 86 -58c2.66699 -10 4 -20 4 -30c0 -29.333 -14.667 -55 -44 -77
c-4.66699 -2.66699 -9.33398 -5.66699 -14.001 -9s-11.667 -7.66602 -21 -12.999c-26 -16 -41.333 -29.667 -46 -41c-1.33301 -4.66699 -2 -9 -2 -13h-59z" />
    <glyph glyph-name="threesuperior" unicode="&#xb3;" horiz-adv-x="230" 
d="M120 387l0.00195312 48.999c21.333 1.33301 34.666 10.333 39.999 27c1.33301 4.66699 2 9 2 13c-1.33301 28 -21.333 42.333 -60 43v49c39.333 0.666992 59.333 15.334 60 44.001c0 22 -11.667 35 -35 39c-2.66699 0.666992 -5 1 -7 1v49c34 0 59.667 -13 77 -39
c9.33301 -14.667 14 -31 14 -49c-0.666992 -31.333 -11 -54.333 -31 -69c20 -14.667 30.333 -37.667 31 -69c0 -39.333 -17.667 -66.333 -53 -81c-12.667 -4.66699 -25.334 -7 -38.001 -7zM16.002 465.999l46 8.99805c4 -22 15.333 -35 34 -39v-49
c-29.333 0.666992 -52 14.334 -68 41.001c-7.33301 12.667 -11.333 25.334 -12 38.001zM16.002 621.997c0.666992 27.333 13.333 49.333 38 66c13.333 8 27.333 12.333 42 13v-49c-20.667 -4 -32 -16 -34 -36v-3z" />
    <glyph glyph-name="acute" unicode="&#xb4;" horiz-adv-x="370" 
d="M115 605l37 152h102l-66 -152h-73z" />
    <glyph glyph-name="uni00B5" unicode="&#xb5;" horiz-adv-x="500" 
d="M44 0h100v204c28.667 -8.66699 50.667 -13 66 -13v97c-34.667 0 -56 8.66699 -64 26c-1.33301 3.33301 -2 6.33301 -2 9v375h-100v-698zM252 191c45.333 0.666992 83 12.333 113 35c26 -22 57.667 -33 95 -33v97c-27.333 0.666992 -41.333 12 -42 34v376h-99v-377
c0 -14 -11.333 -24.333 -34 -31c-10.667 -2.66699 -21.667 -4 -33 -4v-97z" />
    <glyph glyph-name="paragraph" unicode="&#xb6;" horiz-adv-x="447" 
d="M35 517c0 -76.667 25.667 -131.333 77 -164c26.667 -16 57.334 -24 92.001 -24v-334h68v710h-68c-58.667 0 -104.334 -25 -137.001 -75c-21.333 -33.333 -32 -71 -32 -113zM325 -4.99902h68v710h-68v-710z" />
    <glyph glyph-name="periodcentered" unicode="&#xb7;" horiz-adv-x="222" 
d="M58 352c0 26.667 11.667 46 35 58c9.33301 4.66699 19 7 29 7c26.667 0 46 -12 58 -36c4.66699 -9.33301 7 -19 7 -29c0 -26.667 -12 -46 -36 -58c-9.33301 -4.66699 -19 -7 -29 -7c-25.333 0 -44 11.333 -56 34c-5.33301 10 -8 20.333 -8 31z" />
    <glyph glyph-name="cedilla" unicode="&#xb8;" horiz-adv-x="418" 
d="M123 -28v74.999c42.667 0 69 16.333 79 49c2.66699 8.66699 4 17.667 4 27h77c0 -55.333 -20.333 -96.666 -61 -123.999c-26.667 -18 -59.667 -27 -99 -27z" />
    <glyph glyph-name="onesuperior" unicode="&#xb9;" horiz-adv-x="138" 
d="M10 630v46l30 23h53v-314h-53v245h-30z" />
    <glyph glyph-name="ordmasculine" unicode="&#xba;" horiz-adv-x="230" 
d="M26 376v56h178v-56h-178zM27 525l-0.000976562 112.999c0 19.333 9.33301 36.333 28 51c14.667 10.667 31.334 16 50.001 16v-46c-17.333 0 -27.333 -7.66699 -30 -23c-0.666992 -1.33301 -1 -2.66602 -1 -3.99902v-101c0 -14.667 7.66699 -23.667 23 -27
c3.33301 -0.666992 6.33301 -1 9 -1v-46c-34 0 -58 14.667 -72 44c-4.66699 8.66699 -7 16.667 -7 24zM125.999 456.999l-0.000976562 45.998c16.667 0 26.334 7.33301 29.001 22c0.666992 2 1 3.66699 1 5v102c-4 16 -14.333 25 -31 27v46c32.667 0 56 -14 70 -42
c4.66699 -9.33301 7 -17.666 7 -24.999v-113c0 -19.333 -9.33301 -36.666 -28 -51.999c-14 -10.667 -30 -16 -48 -16z" />
    <glyph glyph-name="guillemotright" unicode="&#xbb;" horiz-adv-x="457" 
d="M15 114v98l114 80l-114 72v101l211 -147v-56zM226 114v98l114 80l-114 72v101l211 -147v-56z" />
    <glyph glyph-name="onequarter" unicode="&#xbc;" horiz-adv-x="505" 
d="M380 0v350h66v-231h27v-58h-27v-61h-66zM53 623v51l33 26h66v-350h-66v273h-33zM234 61v58l119 206v-120l-48 -86h48v-58h-119zM0 0l432 700h64l-427 -700h-69z" />
    <glyph glyph-name="onehalf" unicode="&#xbd;" horiz-adv-x="574" 
d="M307 0v62h226v-62h-226zM0 0l432 700h64l-427 -700h-69zM53 623v51l33 26h66v-350h-66v273h-33zM304 252c0.666992 35.333 16.999 62.667 48.999 82c16 10 33 15.333 51 16v-63c-23.333 -2.66699 -36.666 -15.667 -39.999 -39c-0.666992 -2.66699 -1 -5 -1 -7z
M306.999 87.001c0 32.667 24.666 60.3301 73.999 82.9971c2 1.33301 8.66699 4.33301 20 9c37.333 16.667 60 30.334 68 41.001c4.66699 6.66699 7 13.667 7 21c-1.33301 28.667 -16.666 44 -45.999 46v63c53.333 0 88 -21.667 104 -65c4.66699 -13.333 7 -28 7 -44
c-0.666992 -39.333 -24 -70.333 -70 -93c-6 -3.33301 -15.667 -7.66602 -29 -12.999c-32 -13.333 -50.333 -25.666 -55 -36.999c-1.33301 -4 -2 -7.66699 -2 -11h-78z" />
    <glyph glyph-name="threequarters" unicode="&#xbe;" horiz-adv-x="589" 
d="M161 349v64.002c22 0 35 10 39 30c0.666992 4 1 7.33301 1 10c0 19.333 -8.66699 32.333 -26 39c-6.66699 2.66699 -13.667 4 -21 4h-16v58h16c26 0 41.333 11.333 46 34c0.666992 2.66699 1 5.33398 1 8.00098c0 21.333 -9.66699 34.666 -29 39.999
c-4 0.666992 -7.66699 1 -11 1v63c34 0 61.333 -13.333 82 -40c12.667 -17.333 19 -37 19 -59c-0.666992 -36 -12.334 -61.333 -35.001 -76c22.667 -16.667 34.334 -42.334 35.001 -77.001c0 -38.667 -17.333 -67.334 -52 -86.001c-16 -8.66699 -32.333 -13 -49 -13z
M464 0.00195312v350h66v-231h27v-58h-27v-61h-66zM318 61.002v58l119 206v-120l-48 -86h48v-58h-119zM33 447.002l59.002 10.999c1.33301 -26.667 14.666 -42 39.999 -46h2v-63c-34.667 0.666992 -62.334 15.667 -83.001 45c-11.333 16.667 -17.333 34.334 -18 53.001z
M33.002 601.001c1.33301 36.667 18.333 64.667 51 84c16 9.33301 32.667 14.333 50 15v-63c-24 -2.66699 -37.667 -16 -41 -40c-0.666992 -2.66699 -1 -5 -1 -7zM84.002 0.000976562l432 700h65l-428 -700h-69z" />
    <glyph glyph-name="questiondown" unicode="&#xbf;" horiz-adv-x="445" 
d="M421 80c-38.667 -48.667 -84.667 -78 -138 -88c-16 -2.66699 -32.667 -4 -50 -4c-83.333 0 -143.333 31.333 -180 94c-20 34 -30.667 73.333 -32 118c0 36.667 6.16699 69.167 18.5 97.5s27.5 49.5 45.5 63.5s35.833 25.5 53.5 34.5s32.834 14.5 45.501 16.5l18 3v138
h103v-228c-80.667 -1.33301 -133.334 -16.333 -158.001 -45c-16 -20 -24 -47 -24 -81c0 -42.667 18.333 -74 55 -94c18.667 -10 39 -15 61 -15c48 0.666992 86.667 20 116 58zM315 652c0 -26 -11.667 -44.333 -35 -55c-8.66699 -4 -17.334 -6 -26.001 -6
c-26 0 -44.333 11.667 -55 35c-4 8.66699 -6 17.334 -6 26.001c0 26 11.667 44.333 35 55c8.66699 4 17.334 6 26.001 6c26 0 44.333 -11.667 55 -35c4 -8.66699 6 -17.334 6 -26.001z" />
    <glyph glyph-name="Agrave" unicode="&#xc0;" horiz-adv-x="499" 
d="M154 918h102l37 -152h-73zM31 0l132 587h15l46 -212l-83 -375h-110zM216 100l23 109h75l-108 491h110l161 -700h-111l-22 100h-128z" />
    <glyph glyph-name="Aacute" unicode="&#xc1;" horiz-adv-x="499" 
d="M226 766l37 152h102l-66 -152h-73zM31 0l132 587h15l46 -212l-83 -375h-110zM216 100l23 109h75l-108 491h110l161 -700h-111l-22 100h-128z" />
    <glyph glyph-name="Acircumflex" unicode="&#xc2;" horiz-adv-x="499" 
d="M159 766l75 152h56l77 -152h-69l-36 73l-35 -73h-68zM31 0l132 587h15l46 -212l-83 -375h-110zM216 100l23 109h75l-108 491h110l161 -700h-111l-22 100h-128z" />
    <glyph glyph-name="Atilde" unicode="&#xc3;" horiz-adv-x="499" 
d="M121 771l-0.000976562 84c26 14.667 49.333 22 70 22c16.667 0 40.334 -7.66699 71.001 -23c23.333 -12 43.333 -18 60 -18c23.333 0.666992 50 10 80 28v-83c-30.667 -18.667 -58.667 -28 -84 -28c-18 0 -42.667 7.66699 -74 23c-22.667 11.333 -41.667 17 -57 17
c-20.667 -0.666992 -42.667 -8 -66 -22zM30.999 0l132 587h15l46 -212l-83 -375h-110zM215.999 100l23 109h75l-108 491h110l161 -700h-111l-22 100h-128z" />
    <glyph glyph-name="Adieresis" unicode="&#xc4;" horiz-adv-x="499" 
d="M126 827c0 25.333 11.333 43.667 34 55c8.66699 4.66699 17.667 7 27 7c26 0 44.333 -12 55 -36c4 -8.66699 6 -17.334 6 -26.001c0 -26 -11.333 -44.333 -34 -55c-8.66699 -4 -17.667 -6 -27 -6c-26 0 -44.333 11.667 -55 35c-4 8.66699 -6 17.334 -6 26.001z
M276 827.001c0 25.333 11.333 43.667 34 55c8.66699 4.66699 17.667 7 27 7c26 0 44.333 -12 55 -36c4 -8.66699 6 -17.334 6 -26.001c0 -26 -11.333 -44.333 -34 -55c-8.66699 -4 -17.667 -6 -27 -6c-26 0 -44.333 11.667 -55 35c-4 8.66699 -6 17.334 -6 26.001z
M31 0.00195312l132 587h15l46 -212l-83 -375h-110zM216 100.002l23 109h75l-108 491h110l161 -700h-111l-22 100h-128z" />
    <glyph glyph-name="Aring" unicode="&#xc5;" horiz-adv-x="516" 
d="M40 0l131 587h16l45 -212l-82 -375h-110zM224 100l24.002 109.001h75l-108 488c-22.667 16 -34.334 38.667 -35.001 68c0 34 14.333 59.667 43 77c14.667 8 30 12 46 12c33.333 0 58.666 -14 75.999 -42c8.66699 -14.667 13 -30.334 13 -47.001
c-0.666992 -28.667 -11.667 -51 -33 -67l151 -698h-108l-23 100h-121zM235.002 765.001c0 -16 7.66699 -26.667 23 -32c4 -1.33301 7.66699 -2 11 -2c16 0 26.667 7.66699 32 23c1.33301 4 2 7.66699 2 11c0 16 -7.66699 26.667 -23 32c-4 1.33301 -7.66699 2 -11 2
c-16 0 -26.667 -7.66699 -32 -23c-1.33301 -4 -2 -7.66699 -2 -11z" />
    <glyph glyph-name="AE" unicode="&#xc6;" horiz-adv-x="727" 
d="M42 0l180 700h479v-111h-238v-186h144v-111h-144v-181h238v-111h-349v160h-96l24 96h72v333h-40l-147 -589h-123z" />
    <glyph glyph-name="Ccedilla" unicode="&#xc7;" horiz-adv-x="500" 
d="M140 -191v74.999c42.667 0 69 16.333 79 49c2.66699 8.66699 4 17.667 4 27h77c0 -55.333 -20.333 -96.666 -61 -123.999c-26.667 -18 -59.667 -27 -99 -27zM39 180.999c0 -38.667 14.332 -76.334 42.999 -113.001c38.667 -48 90.334 -72.333 155.001 -73v111
c-39.333 0 -66.333 17.333 -81 52c-4 9.33301 -6 17 -6 23v337c0 18 8.33301 35.333 25 52c17.333 15.333 38 23.333 62 24v111c-75.333 0 -132 -32 -170 -96c-18.667 -31.333 -28 -61.666 -28 -90.999v-337zM287.999 -5.00098c52.667 0 98.333 20.666 137 61.999
c33.333 36.667 50 78.334 50 125.001l-108 26c0 -7.33301 -0.333008 -12 -1 -14c0 -14 -1.66699 -26 -5 -36c-5.33301 -13.333 -14 -24.333 -26 -33s-23 -14 -33 -16l-14 -3v-111zM287.998 593.998l25.999 -8.00098c22.667 -11.333 38.334 -27.666 47.001 -48.999
c3.33301 -10 5 -21.333 5 -34v-15l109 28c0 51.333 -21.333 97 -64 137c-38 34.667 -79 52 -123 52v-111z" />
    <glyph glyph-name="Egrave" unicode="&#xc8;" horiz-adv-x="444" 
d="M115 918h102l37 -152h-73zM41 0v700h364v-110h-252v-186h158v-112h-158v-181h252v-111h-364z" />
    <glyph glyph-name="Eacute" unicode="&#xc9;" horiz-adv-x="444" 
d="M242 766l37 152h102l-66 -152h-73zM41 0v700h364v-110h-252v-186h158v-112h-158v-181h252v-111h-364z" />
    <glyph glyph-name="Ecircumflex" unicode="&#xca;" horiz-adv-x="444" 
d="M120 766l75 152h56l77 -152h-69l-36 73l-35 -73h-68zM41 0v700h364v-110h-252v-186h158v-112h-158v-181h252v-111h-364z" />
    <glyph glyph-name="Edieresis" unicode="&#xcb;" horiz-adv-x="444" 
d="M88 827c0 25.333 11.333 43.667 34 55c8.66699 4.66699 17.667 7 27 7c26 0 44.333 -12 55 -36c4 -8.66699 6 -17.334 6 -26.001c0 -26 -11.333 -44.333 -34 -55c-8.66699 -4 -17.667 -6 -27 -6c-26 0 -44.333 11.667 -55 35c-4 8.66699 -6 17.334 -6 26.001z
M238 827.001c0 25.333 11.333 43.667 34 55c8.66699 4.66699 17.667 7 27 7c26 0 44.333 -12 55 -36c4 -8.66699 6 -17.334 6 -26.001c0 -26 -11.333 -44.333 -34 -55c-8.66699 -4 -17.667 -6 -27 -6c-26 0 -44.333 11.667 -55 35c-4 8.66699 -6 17.334 -6 26.001z
M41 0.00195312v700h364v-110h-252v-186h158v-112h-158v-181h252v-111h-364z" />
    <glyph glyph-name="Igrave" unicode="&#xcc;" horiz-adv-x="196" 
d="M-5 918h102l37 -152h-73zM42 0v700h112v-700h-112z" />
    <glyph glyph-name="Iacute" unicode="&#xcd;" horiz-adv-x="196" 
d="M61 766l37 152h102l-66 -152h-73zM42 0v700h112v-700h-112z" />
    <glyph glyph-name="Icircumflex" unicode="&#xce;" horiz-adv-x="196" 
d="M-6 766l75 152h56l77 -152h-69l-36 73l-35 -73h-68zM42 0v700h112v-700h-112z" />
    <glyph glyph-name="Idieresis" unicode="&#xcf;" horiz-adv-x="196" 
d="M-38 827c0 25.333 11.333 43.667 34 55c8.66699 4.66699 17.667 7 27 7c26 0 44.333 -12 55 -36c4 -8.66699 6 -17.334 6 -26.001c0 -26 -11.333 -44.333 -34 -55c-8.66699 -4 -17.667 -6 -27 -6c-26 0 -44.333 11.667 -55 35c-4 8.66699 -6 17.334 -6 26.001z
M112 827.001c0 25.333 11.333 43.667 34 55c8.66699 4.66699 17.667 7 27 7c26 0 44.333 -12 55 -36c4 -8.66699 6 -17.334 6 -26.001c0 -26 -11.333 -44.333 -34 -55c-8.66699 -4 -17.667 -6 -27 -6c-26 0 -44.333 11.667 -55 35c-4 8.66699 -6 17.334 -6 26.001z
M42 0.00195312v700h112v-700h-112z" />
    <glyph glyph-name="Eth" unicode="&#xd0;" horiz-adv-x="487" 
d="M26 304v102h57v294h111v-294h56v-102h-56v-304h-111v304h-57zM246 0l0.000976562 111.001c76.667 0 115.667 28 117 84v2v306c0 40 -22.333 66.333 -67 79c-14.667 4.66699 -31.334 7 -50.001 7v111c84.667 0 148.334 -27.667 191.001 -83c25.333 -34 38 -72 38 -114
v-306c0 -92.667 -43.667 -153.334 -131 -182.001c-30.667 -10 -63.334 -15 -98.001 -15z" />
    <glyph glyph-name="Ntilde" unicode="&#xd1;" horiz-adv-x="529" 
d="M124 784l-0.000976562 84c26 14.667 49.333 22 70 22c16.667 0 40.334 -7.66699 71.001 -23c23.333 -12 43.333 -18 60 -18c23.333 0.666992 50 10 80 28v-83c-30.667 -18.667 -58.667 -28 -84 -28c-18 0 -42.667 7.66699 -74 23c-22.667 11.333 -41.667 17 -57 17
c-20.667 -0.666992 -42.667 -8 -66 -22zM41.999 0v522h8l104 -167v-355h-112zM41.999 628v72h93l352 -565v-135h-54zM374.999 408v292h112v-459h-8z" />
    <glyph glyph-name="Ograve" unicode="&#xd2;" horiz-adv-x="525" 
d="M153 918h102l37 -152h-73zM39 195v329.001c0 35.333 15 71.333 45 108c40 48 90.667 72.333 152 73v-111c-34.667 -0.666992 -60.667 -19.334 -78 -56.001c-5.33301 -12 -8 -22 -8 -30v-313c0 -36 18.667 -62.667 56 -80c11.333 -5.33301 21 -8 29 -8v-112
c-38 0 -76 13.667 -114 41c-54 40 -81.333 93 -82 159zM290 -4.99902l0.00195312 111.999c17.333 0 35.333 8 54 24c20 18 30.333 39.333 31 64v313c0 20 -8.66699 39.333 -26 58c-16.667 18 -36.334 27.333 -59.001 28v111c67.333 0 121.333 -29 162 -87
c23.333 -33.333 35 -64.666 35 -93.999v-329c0 -74 -33 -130.667 -99 -170c-34.667 -20 -67.334 -30 -98.001 -30z" />
    <glyph glyph-name="Oacute" unicode="&#xd3;" horiz-adv-x="525" 
d="M226 766l37 152h102l-66 -152h-73zM39 195v329.001c0 35.333 15 71.333 45 108c40 48 90.667 72.333 152 73v-111c-34.667 -0.666992 -60.667 -19.334 -78 -56.001c-5.33301 -12 -8 -22 -8 -30v-313c0 -36 18.667 -62.667 56 -80c11.333 -5.33301 21 -8 29 -8v-112
c-38 0 -76 13.667 -114 41c-54 40 -81.333 93 -82 159zM290 -4.99902l0.00195312 111.999c17.333 0 35.333 8 54 24c20 18 30.333 39.333 31 64v313c0 20 -8.66699 39.333 -26 58c-16.667 18 -36.334 27.333 -59.001 28v111c67.333 0 121.333 -29 162 -87
c23.333 -33.333 35 -64.666 35 -93.999v-329c0 -74 -33 -130.667 -99 -170c-34.667 -20 -67.334 -30 -98.001 -30z" />
    <glyph glyph-name="Ocircumflex" unicode="&#xd4;" horiz-adv-x="525" 
d="M158 766l75 152h56l77 -152h-69l-36 73l-35 -73h-68zM39 195v329.001c0 35.333 15 71.333 45 108c40 48 90.667 72.333 152 73v-111c-34.667 -0.666992 -60.667 -19.334 -78 -56.001c-5.33301 -12 -8 -22 -8 -30v-313c0 -36 18.667 -62.667 56 -80
c11.333 -5.33301 21 -8 29 -8v-112c-38 0 -76 13.667 -114 41c-54 40 -81.333 93 -82 159zM290 -4.99902l0.00195312 111.999c17.333 0 35.333 8 54 24c20 18 30.333 39.333 31 64v313c0 20 -8.66699 39.333 -26 58c-16.667 18 -36.334 27.333 -59.001 28v111
c67.333 0 121.333 -29 162 -87c23.333 -33.333 35 -64.666 35 -93.999v-329c0 -74 -33 -130.667 -99 -170c-34.667 -20 -67.334 -30 -98.001 -30z" />
    <glyph glyph-name="Otilde" unicode="&#xd5;" horiz-adv-x="525" 
d="M121 775l-0.000976562 84c26 14.667 49.333 22 70 22c16.667 0 40.334 -7.66699 71.001 -23c23.333 -12 43.333 -18 60 -18c23.333 0.666992 50 10 80 28v-83c-30.667 -18.667 -58.667 -28 -84 -28c-18 0 -42.667 7.66699 -74 23c-22.667 11.333 -41.667 17 -57 17
c-20.667 -0.666992 -42.667 -8 -66 -22zM38.999 195v329.001c0 35.333 15 71.333 45 108c40 48 90.667 72.333 152 73v-111c-34.667 -0.666992 -60.667 -19.334 -78 -56.001c-5.33301 -12 -8 -22 -8 -30v-313c0 -36 18.667 -62.667 56 -80c11.333 -5.33301 21 -8 29 -8v-112
c-38 0 -76 13.667 -114 41c-54 40 -81.333 93 -82 159zM289.999 -4.99902l0.00195312 111.999c17.333 0 35.333 8 54 24c20 18 30.333 39.333 31 64v313c0 20 -8.66699 39.333 -26 58c-16.667 18 -36.334 27.333 -59.001 28v111c67.333 0 121.333 -29 162 -87
c23.333 -33.333 35 -64.666 35 -93.999v-329c0 -74 -33 -130.667 -99 -170c-34.667 -20 -67.334 -30 -98.001 -30z" />
    <glyph glyph-name="Odieresis" unicode="&#xd6;" horiz-adv-x="525" 
d="M126 827c0 25.333 11.333 43.667 34 55c8.66699 4.66699 17.667 7 27 7c26 0 44.333 -12 55 -36c4 -8.66699 6 -17.334 6 -26.001c0 -26 -11.333 -44.333 -34 -55c-8.66699 -4 -17.667 -6 -27 -6c-26 0 -44.333 11.667 -55 35c-4 8.66699 -6 17.334 -6 26.001z
M276 827.001c0 25.333 11.333 43.667 34 55c8.66699 4.66699 17.667 7 27 7c26 0 44.333 -12 55 -36c4 -8.66699 6 -17.334 6 -26.001c0 -26 -11.333 -44.333 -34 -55c-8.66699 -4 -17.667 -6 -27 -6c-26 0 -44.333 11.667 -55 35c-4 8.66699 -6 17.334 -6 26.001z
M39 195.002v329.001c0 35.333 15 71.333 45 108c40 48 90.667 72.333 152 73v-111c-34.667 -0.666992 -60.667 -19.334 -78 -56.001c-5.33301 -12 -8 -22 -8 -30v-313c0 -36 18.667 -62.667 56 -80c11.333 -5.33301 21 -8 29 -8v-112c-38 0 -76 13.667 -114 41
c-54 40 -81.333 93 -82 159zM290 -4.99707l0.00195312 111.999c17.333 0 35.333 8 54 24c20 18 30.333 39.333 31 64v313c0 20 -8.66699 39.333 -26 58c-16.667 18 -36.334 27.333 -59.001 28v111c67.333 0 121.333 -29 162 -87c23.333 -33.333 35 -64.666 35 -93.999v-329
c0 -74 -33 -130.667 -99 -170c-34.667 -20 -67.334 -30 -98.001 -30z" />
    <glyph glyph-name="multiply" unicode="&#xd7;" horiz-adv-x="638" 
d="M176 177l-72 72l168 168l-168 169l71 72l168 -168l168 167l72 -72l-168 -167l168 -168l-72 -72l-168 167z" />
    <glyph glyph-name="Oslash" unicode="&#xd8;" horiz-adv-x="665" 
d="M7 122l101.002 90.999v311c0 35.333 15 71.333 45 108c40 48 90.667 72.333 152 73v-111c-36.667 -0.666992 -62.667 -19.667 -78 -57c-4.66699 -12 -7 -23 -7 -33v-190l223 201c-4.66699 32.667 -20 56 -46 70c-11.333 5.33301 -24 8.33301 -38 9v111
c67.333 0 120.666 -28.667 159.999 -86c5.33301 -8 10 -15.667 14 -23l59 53l62 -70l-98 -89v-295c0 -74 -33 -130.667 -99 -170c-34.667 -20 -67.334 -30 -98.001 -30v112c18 0 36.333 8 55 24c19.333 18 29.333 39.333 30 64v194l-223 -202
c2.66699 -33.333 22 -57.666 58 -72.999c10 -4.66699 18.333 -7 25 -7v-112c-37.333 0 -75.333 13.667 -114 41c-26 20 -46 43.333 -60 70l-60 -54z" />
    <glyph glyph-name="Ugrave" unicode="&#xd9;" horiz-adv-x="516" 
d="M147 918h102l37 -152h-73zM34 193l0.000976562 507h112v-507c0.666992 -37.333 21 -64 61 -80c10 -4 18.333 -6 25 -6v-112c-38 0 -76.333 13.333 -115 40c-54.667 39.333 -82.334 92 -83.001 158zM284.001 -5l-0.000976562 112c17.333 0 35.333 7.33301 54 22
c20.667 17.333 31.334 38.666 32.001 63.999v507h111v-507c0 -75.333 -33.333 -131.666 -100 -168.999c-34 -19.333 -66.333 -29 -97 -29z" />
    <glyph glyph-name="Uacute" unicode="&#xda;" horiz-adv-x="516" 
d="M219 766l37 152h102l-66 -152h-73zM34 193l0.000976562 507h112v-507c0.666992 -37.333 21 -64 61 -80c10 -4 18.333 -6 25 -6v-112c-38 0 -76.333 13.333 -115 40c-54.667 39.333 -82.334 92 -83.001 158zM284.001 -5l-0.000976562 112c17.333 0 35.333 7.33301 54 22
c20.667 17.333 31.334 38.666 32.001 63.999v507h111v-507c0 -75.333 -33.333 -131.666 -100 -168.999c-34 -19.333 -66.333 -29 -97 -29z" />
    <glyph glyph-name="Ucircumflex" unicode="&#xdb;" horiz-adv-x="516" 
d="M152 766l75 152h56l77 -152h-69l-36 73l-35 -73h-68zM34 193l0.000976562 507h112v-507c0.666992 -37.333 21 -64 61 -80c10 -4 18.333 -6 25 -6v-112c-38 0 -76.333 13.333 -115 40c-54.667 39.333 -82.334 92 -83.001 158zM284.001 -5l-0.000976562 112
c17.333 0 35.333 7.33301 54 22c20.667 17.333 31.334 38.666 32.001 63.999v507h111v-507c0 -75.333 -33.333 -131.666 -100 -168.999c-34 -19.333 -66.333 -29 -97 -29z" />
    <glyph glyph-name="Udieresis" unicode="&#xdc;" horiz-adv-x="516" 
d="M119 827c0 25.333 11.333 43.667 34 55c8.66699 4.66699 17.667 7 27 7c26 0 44.333 -12 55 -36c4 -8.66699 6 -17.334 6 -26.001c0 -26 -11.333 -44.333 -34 -55c-8.66699 -4 -17.667 -6 -27 -6c-26 0 -44.333 11.667 -55 35c-4 8.66699 -6 17.334 -6 26.001z
M269 827.001c0 25.333 11.333 43.667 34 55c8.66699 4.66699 17.667 7 27 7c26 0 44.333 -12 55 -36c4 -8.66699 6 -17.334 6 -26.001c0 -26 -11.333 -44.333 -34 -55c-8.66699 -4 -17.667 -6 -27 -6c-26 0 -44.333 11.667 -55 35c-4 8.66699 -6 17.334 -6 26.001z
M34 193.002l0.000976562 507h112v-507c0.666992 -37.333 21 -64 61 -80c10 -4 18.333 -6 25 -6v-112c-38 0 -76.333 13.333 -115 40c-54.667 39.333 -82.334 92 -83.001 158zM284.001 -4.99805l-0.000976562 112c17.333 0 35.333 7.33301 54 22
c20.667 17.333 31.334 38.666 32.001 63.999v507h111v-507c0 -75.333 -33.333 -131.666 -100 -168.999c-34 -19.333 -66.333 -29 -97 -29z" />
    <glyph glyph-name="Yacute" unicode="&#xdd;" horiz-adv-x="461" 
d="M189 766l37 152h102l-66 -152h-73zM17 700h116l146 -447v-253h-115v252zM256 505l73 195h115l-128 -375h-8z" />
    <glyph glyph-name="Thorn" unicode="&#xde;" horiz-adv-x="474" 
d="M41 0v700h111v-700h-111zM205 208l-0.000976562 110h36c62 1.33301 93.333 28 94 80c-0.666992 54.667 -32 82 -94 82h-36v110c116 1.33301 189.333 -26 220 -82c14.667 -27.333 22.334 -63 23.001 -107c0.666992 -90.667 -32.333 -148.667 -99 -174
c-36.667 -14 -84.667 -20.333 -144 -19z" />
    <glyph glyph-name="germandbls" unicode="&#xdf;" horiz-adv-x="522" 
d="M26 0v456.998c0.666992 58.667 4.66699 100.667 12 126c24.667 80.667 87.334 121.334 188.001 122.001c110 0 169.667 -52 179 -156c0.666992 -10 1 -20.333 1 -31v-113l-60 1c-22.667 -2.66699 -36 -14.667 -40 -36c-0.666992 -2.66699 -1 -4.66699 -1 -6
c0 -19.333 16.667 -36.333 50 -51c10.667 -4.66699 22.667 -9.33398 36 -14.001c69.333 -24.667 104.333 -71.667 105 -141c0 -62 -25.333 -107 -76 -135c-28 -15.333 -59 -23 -93 -23h-128v88h120c38.667 1.33301 64.334 14 77.001 38c4 8.66699 6 17.667 6 27
c0 24.667 -11.333 43.334 -34 56.001c-6 3.33301 -16 8.33301 -30 15c-13.333 6 -23.333 10.667 -30 14c-40.667 20 -67.334 41.667 -80.001 65c-10.667 19.333 -16 42 -16 68c0 52.667 26.333 89.334 79 110.001c8 3.33301 16 6 24 8v12c0 60.667 -20.333 95.667 -61 105
c-8.66699 2 -18.334 3 -29.001 3c-63.333 -1.33301 -95.333 -38.333 -96 -111v-498h-103z" />
    <glyph glyph-name="agrave" unicode="&#xe0;" horiz-adv-x="470" 
d="M113 769h102l37 -152h-73zM29 129c0 -37.333 18.0029 -69.001 54.0029 -95.001c31.333 -22.667 68.666 -34 111.999 -34v99c-49.333 0.666992 -74.333 18 -75 52v21c0.666992 13.333 4.66699 22.666 12 27.999c5.33301 4 36.666 13.667 93.999 29
c40 10.667 68 20.334 84 29.001v-99c0 -32 -15 -51.333 -45 -58c-6 -1.33301 -12.333 -2 -19 -2v-99c44 0.666992 79.333 12 106 34c23.333 -22.667 52.666 -34 87.999 -34v100c-17.333 1.33301 -26.333 12 -27 32v269c0 40 -16 75.667 -48 107s-72 47 -120 47v-98
c30 0 50 -12.333 60 -37c3.33301 -8 5 -16.333 5 -25v-21c0 -17.333 -36.667 -37.333 -110 -60c-69.333 -21.333 -108.666 -34.666 -117.999 -39.999c-34.667 -20.667 -52.334 -52.667 -53.001 -96v-49zM37.0029 415.999l92.001 -34.999c0 38 14.667 62 44 72
c7.33301 2.66699 14.666 4 21.999 4v98c-46 0 -85.667 -16.667 -119 -50c-26 -26.667 -39 -56.334 -39 -89.001z" />
    <glyph glyph-name="aacute" unicode="&#xe1;" horiz-adv-x="470" 
d="M180 617l37 152h102l-66 -152h-73zM29 129c0 -37.333 18.0029 -69.001 54.0029 -95.001c31.333 -22.667 68.666 -34 111.999 -34v99c-49.333 0.666992 -74.333 18 -75 52v21c0.666992 13.333 4.66699 22.666 12 27.999c5.33301 4 36.666 13.667 93.999 29
c40 10.667 68 20.334 84 29.001v-99c0 -32 -15 -51.333 -45 -58c-6 -1.33301 -12.333 -2 -19 -2v-99c44 0.666992 79.333 12 106 34c23.333 -22.667 52.666 -34 87.999 -34v100c-17.333 1.33301 -26.333 12 -27 32v269c0 40 -16 75.667 -48 107s-72 47 -120 47v-98
c30 0 50 -12.333 60 -37c3.33301 -8 5 -16.333 5 -25v-21c0 -17.333 -36.667 -37.333 -110 -60c-69.333 -21.333 -108.666 -34.666 -117.999 -39.999c-34.667 -20.667 -52.334 -52.667 -53.001 -96v-49zM37.0029 415.999l92.001 -34.999c0 38 14.667 62 44 72
c7.33301 2.66699 14.666 4 21.999 4v98c-46 0 -85.667 -16.667 -119 -50c-26 -26.667 -39 -56.334 -39 -89.001z" />
    <glyph glyph-name="acircumflex" unicode="&#xe2;" horiz-adv-x="470" 
d="M112 617l75 152h56l77 -152h-69l-36 73l-35 -73h-68zM29 129c0 -37.333 18.0029 -69.001 54.0029 -95.001c31.333 -22.667 68.666 -34 111.999 -34v99c-49.333 0.666992 -74.333 18 -75 52v21c0.666992 13.333 4.66699 22.666 12 27.999
c5.33301 4 36.666 13.667 93.999 29c40 10.667 68 20.334 84 29.001v-99c0 -32 -15 -51.333 -45 -58c-6 -1.33301 -12.333 -2 -19 -2v-99c44 0.666992 79.333 12 106 34c23.333 -22.667 52.666 -34 87.999 -34v100c-17.333 1.33301 -26.333 12 -27 32v269
c0 40 -16 75.667 -48 107s-72 47 -120 47v-98c30 0 50 -12.333 60 -37c3.33301 -8 5 -16.333 5 -25v-21c0 -17.333 -36.667 -37.333 -110 -60c-69.333 -21.333 -108.666 -34.666 -117.999 -39.999c-34.667 -20.667 -52.334 -52.667 -53.001 -96v-49zM37.0029 415.999
l92.001 -34.999c0 38 14.667 62 44 72c7.33301 2.66699 14.666 4 21.999 4v98c-46 0 -85.667 -16.667 -119 -50c-26 -26.667 -39 -56.334 -39 -89.001z" />
    <glyph glyph-name="atilde" unicode="&#xe3;" horiz-adv-x="470" 
d="M78 634l-0.000976562 84c26 14.667 49.333 22 70 22c16.667 0 40.334 -7.66699 71.001 -23c23.333 -12 43.333 -18 60 -18c23.333 0.666992 50 10 80 28v-83c-30.667 -18.667 -58.667 -28 -84 -28c-18 0 -42.667 7.66699 -74 23c-22.667 11.333 -41.667 17 -57 17
c-20.667 -0.666992 -42.667 -8 -66 -22zM28.999 129c0 -37.333 18.0029 -69.001 54.0029 -95.001c31.333 -22.667 68.666 -34 111.999 -34v99c-49.333 0.666992 -74.333 18 -75 52v21c0.666992 13.333 4.66699 22.666 12 27.999c5.33301 4 36.666 13.667 93.999 29
c40 10.667 68 20.334 84 29.001v-99c0 -32 -15 -51.333 -45 -58c-6 -1.33301 -12.333 -2 -19 -2v-99c44 0.666992 79.333 12 106 34c23.333 -22.667 52.666 -34 87.999 -34v100c-17.333 1.33301 -26.333 12 -27 32v269c0 40 -16 75.667 -48 107s-72 47 -120 47v-98
c30 0 50 -12.333 60 -37c3.33301 -8 5 -16.333 5 -25v-21c0 -17.333 -36.667 -37.333 -110 -60c-69.333 -21.333 -108.666 -34.666 -117.999 -39.999c-34.667 -20.667 -52.334 -52.667 -53.001 -96v-49zM37.002 415.999l92.001 -34.999c0 38 14.667 62 44 72
c7.33301 2.66699 14.666 4 21.999 4v98c-46 0 -85.667 -16.667 -119 -50c-26 -26.667 -39 -56.334 -39 -89.001z" />
    <glyph glyph-name="adieresis" unicode="&#xe4;" horiz-adv-x="470" 
d="M80 677c0 25.333 11.333 43.667 34 55c8.66699 4.66699 17.667 7 27 7c26 0 44.333 -12 55 -36c4 -8.66699 6 -17.334 6 -26.001c0 -26 -11.333 -44.333 -34 -55c-8.66699 -4 -17.667 -6 -27 -6c-26 0 -44.333 11.667 -55 35c-4 8.66699 -6 17.334 -6 26.001z
M230 677.001c0 25.333 11.333 43.667 34 55c8.66699 4.66699 17.667 7 27 7c26 0 44.333 -12 55 -36c4 -8.66699 6 -17.334 6 -26.001c0 -26 -11.333 -44.333 -34 -55c-8.66699 -4 -17.667 -6 -27 -6c-26 0 -44.333 11.667 -55 35c-4 8.66699 -6 17.334 -6 26.001z
M29 129.002c0 -37.333 18.0029 -69.001 54.0029 -95.001c31.333 -22.667 68.666 -34 111.999 -34v99c-49.333 0.666992 -74.333 18 -75 52v21c0.666992 13.333 4.66699 22.666 12 27.999c5.33301 4 36.666 13.667 93.999 29c40 10.667 68 20.334 84 29.001v-99
c0 -32 -15 -51.333 -45 -58c-6 -1.33301 -12.333 -2 -19 -2v-99c44 0.666992 79.333 12 106 34c23.333 -22.667 52.666 -34 87.999 -34v100c-17.333 1.33301 -26.333 12 -27 32v269c0 40 -16 75.667 -48 107s-72 47 -120 47v-98c30 0 50 -12.333 60 -37
c3.33301 -8 5 -16.333 5 -25v-21c0 -17.333 -36.667 -37.333 -110 -60c-69.333 -21.333 -108.666 -34.666 -117.999 -39.999c-34.667 -20.667 -52.334 -52.667 -53.001 -96v-49zM37.0029 416.001l92.001 -34.999c0 38 14.667 62 44 72c7.33301 2.66699 14.666 4 21.999 4v98
c-46 0 -85.667 -16.667 -119 -50c-26 -26.667 -39 -56.334 -39 -89.001z" />
    <glyph glyph-name="aring" unicode="&#xe5;" horiz-adv-x="470" 
d="M132 713c0 32 14 57 42 75c14.667 8.66699 30 13 46 13c32 0 57 -14 75 -42c8.66699 -14.667 13 -30 13 -46c0 -32 -14 -57 -42 -75c-14.667 -8.66699 -30 -13 -46 -13c-32 0 -57 14 -75 42c-8.66699 14.667 -13 30 -13 46zM188 713c0 -16 7.33301 -26.333 22 -31
c4 -0.666992 7.33301 -1 10 -1c16 0 26.333 7.33301 31 22c0.666992 4 1 7.33301 1 10c0 16 -7.33301 26.333 -22 31c-4 0.666992 -7.33301 1 -10 1c-16 0 -26.333 -7.33301 -31 -22c-0.666992 -4 -1 -7.33301 -1 -10zM29 129c0 -37.333 18.0029 -69.001 54.0029 -95.001
c31.333 -22.667 68.666 -34 111.999 -34v99c-49.333 0.666992 -74.333 18 -75 52v21c0.666992 13.333 4.66699 22.666 12 27.999c5.33301 4 36.666 13.667 93.999 29c40 10.667 68 20.334 84 29.001v-99c0 -32 -15 -51.333 -45 -58c-6 -1.33301 -12.333 -2 -19 -2v-99
c44 0.666992 79.333 12 106 34c23.333 -22.667 52.666 -34 87.999 -34v100c-17.333 1.33301 -26.333 12 -27 32v269c0 40 -16 75.667 -48 107s-72 47 -120 47v-98c30 0 50 -12.333 60 -37c3.33301 -8 5 -16.333 5 -25v-21c0 -17.333 -36.667 -37.333 -110 -60
c-69.333 -21.333 -108.666 -34.666 -117.999 -39.999c-34.667 -20.667 -52.334 -52.667 -53.001 -96v-49zM37.0029 415.999l92.001 -34.999c0 38 14.667 62 44 72c7.33301 2.66699 14.666 4 21.999 4v98c-46 0 -85.667 -16.667 -119 -50
c-26 -26.667 -39 -56.334 -39 -89.001z" />
    <glyph glyph-name="ae" unicode="&#xe6;" horiz-adv-x="599" 
d="M26 113c0 -36 18.6699 -65.334 56.0029 -88.001c28 -16 61 -24 99 -24v91c-46.667 1.33301 -70.334 19.666 -71.001 54.999v15c-0.666992 21.333 22.333 38.666 69 51.999l33 9c40.667 10 66.667 19 78 27v-101c0 -25.333 -11.667 -42.666 -35 -51.999
c-8.66699 -3.33301 -17.667 -5 -27 -5v-91c50 0.666992 86 17 108 49c30.667 -33.333 77.334 -50 140.001 -50c82 0 138.667 27 170 81c7.33301 12 12.666 25 15.999 39l-81 30c-11.333 -41.333 -47 -62.333 -107 -63c-37.333 0 -64 11.667 -80 35
c-6.66699 10 -10 20.667 -10 32v65h277v159c0 40.667 -21.333 75.667 -64 105c-31.333 22 -64 33 -98 33v-92c26.667 0 47 -10.333 61 -31c6 -10 9 -20.333 9 -31v-49h-185v49c0 22 10.667 39 32 51c10.667 6.66699 22.667 10 36 10v93
c-44.667 -0.666992 -82.334 -16 -113.001 -46c-31.333 32.667 -75.666 49 -132.999 49c-54 0 -97.667 -17.667 -131 -53c-23.333 -25.333 -35 -54.333 -35 -87l78 -22c0 36.667 19 60.334 57 71.001c11.333 2.66699 22.666 4 33.999 4c33.333 0 57.666 -10.333 72.999 -31
c5.33301 -8.66699 8 -17 8 -25v-22c0 -18 -21.667 -34.333 -65 -49c-8 -2.66699 -20.667 -6.66699 -38 -12c-66.667 -20 -110.667 -39.667 -132 -59c-19.333 -17.333 -29 -37.666 -29 -60.999v-60z" />
    <glyph glyph-name="ccedilla" unicode="&#xe7;" horiz-adv-x="449" 
d="M113 -191v74.999c42.667 0 69 16.333 79 49c2.66699 8.66699 4 17.667 4 27h77c0 -55.333 -20.333 -96.666 -61 -123.999c-26.667 -18 -59.667 -27 -99 -27zM38 150.999c0 -34.667 13.667 -67.001 41 -97.001c33.333 -36 77.333 -54 132 -54v102
c-34.667 0 -56.334 11.667 -65.001 35c-2 4.66699 -3 9.33398 -3 14.001v251c0 18 9.66699 32 29 42c11.333 6 24.333 9 39 9v101c-65.333 0 -114.666 -26 -147.999 -78c-16 -24.667 -24.333 -48.667 -25 -72v-253zM256 451.998c32 0 51.333 -15 58 -45
c1.33301 -5.33301 2 -10.666 2 -15.999v-28l98 37c0 49.333 -20 89.666 -60 120.999c-29.333 22 -62 33 -98 33v-102zM256 -1.00195c47.333 -1.33301 89 16.333 125 53c30 30.667 45 64.667 45 102l-98 37v-27c-3.33301 -41.333 -27.333 -62.333 -72 -63v-102z" />
    <glyph glyph-name="egrave" unicode="&#xe8;" horiz-adv-x="475" 
d="M134 766h102l37 -152h-73zM38 151v253.999c1.33301 32.667 16.333 64.334 45 95.001c35.333 35.333 78 53.333 128 54v-100c-26 0 -45.667 -11.667 -59 -35c-4.66699 -8 -7 -15.333 -7 -22v-60h190v59c0 28 -15.333 46.333 -46 55c-8.66699 2.66699 -17.334 4 -26.001 4
v99c47.333 0 89.333 -16.333 126 -49c30.667 -29.333 46.334 -62.333 47.001 -99v-172h-291v-83c0 -17.333 9.66699 -31.666 29 -42.999c12 -6.66699 25 -10 39 -10v-98c-62 0 -111 25 -147 75c-18.667 27.333 -28 52.666 -28 75.999zM263 -0.000976562l-0.000976562 99
c38.667 0 65.334 16.333 80.001 49c2 4.66699 3.66699 9 5 13l89 -32c-12 -45.333 -39 -80.333 -81 -105c-28.667 -16 -59.667 -24 -93 -24z" />
    <glyph glyph-name="eacute" unicode="&#xe9;" horiz-adv-x="475" 
d="M201 614l37 152h102l-66 -152h-73zM38 151v253.999c1.33301 32.667 16.333 64.334 45 95.001c35.333 35.333 78 53.333 128 54v-100c-26 0 -45.667 -11.667 -59 -35c-4.66699 -8 -7 -15.333 -7 -22v-60h190v59c0 28 -15.333 46.333 -46 55
c-8.66699 2.66699 -17.334 4 -26.001 4v99c47.333 0 89.333 -16.333 126 -49c30.667 -29.333 46.334 -62.333 47.001 -99v-172h-291v-83c0 -17.333 9.66699 -31.666 29 -42.999c12 -6.66699 25 -10 39 -10v-98c-62 0 -111 25 -147 75c-18.667 27.333 -28 52.666 -28 75.999z
M263 -0.000976562l-0.000976562 99c38.667 0 65.334 16.333 80.001 49c2 4.66699 3.66699 9 5 13l89 -32c-12 -45.333 -39 -80.333 -81 -105c-28.667 -16 -59.667 -24 -93 -24z" />
    <glyph glyph-name="ecircumflex" unicode="&#xea;" horiz-adv-x="475" 
d="M133 614l75 152h56l77 -152h-69l-36 73l-35 -73h-68zM38 151v253.999c1.33301 32.667 16.333 64.334 45 95.001c35.333 35.333 78 53.333 128 54v-100c-26 0 -45.667 -11.667 -59 -35c-4.66699 -8 -7 -15.333 -7 -22v-60h190v59c0 28 -15.333 46.333 -46 55
c-8.66699 2.66699 -17.334 4 -26.001 4v99c47.333 0 89.333 -16.333 126 -49c30.667 -29.333 46.334 -62.333 47.001 -99v-172h-291v-83c0 -17.333 9.66699 -31.666 29 -42.999c12 -6.66699 25 -10 39 -10v-98c-62 0 -111 25 -147 75c-18.667 27.333 -28 52.666 -28 75.999z
M263 -0.000976562l-0.000976562 99c38.667 0 65.334 16.333 80.001 49c2 4.66699 3.66699 9 5 13l89 -32c-12 -45.333 -39 -80.333 -81 -105c-28.667 -16 -59.667 -24 -93 -24z" />
    <glyph glyph-name="edieresis" unicode="&#xeb;" horiz-adv-x="475" 
d="M101 674c0 25.333 11.333 43.667 34 55c8.66699 4.66699 17.667 7 27 7c26 0 44.333 -12 55 -36c4 -8.66699 6 -17.334 6 -26.001c0 -26 -11.333 -44.333 -34 -55c-8.66699 -4 -17.667 -6 -27 -6c-26 0 -44.333 11.667 -55 35c-4 8.66699 -6 17.334 -6 26.001z
M251 674.001c0 25.333 11.333 43.667 34 55c8.66699 4.66699 17.667 7 27 7c26 0 44.333 -12 55 -36c4 -8.66699 6 -17.334 6 -26.001c0 -26 -11.333 -44.333 -34 -55c-8.66699 -4 -17.667 -6 -27 -6c-26 0 -44.333 11.667 -55 35c-4 8.66699 -6 17.334 -6 26.001z
M38 151.002v253.999c1.33301 32.667 16.333 64.334 45 95.001c35.333 35.333 78 53.333 128 54v-100c-26 0 -45.667 -11.667 -59 -35c-4.66699 -8 -7 -15.333 -7 -22v-60h190v59c0 28 -15.333 46.333 -46 55c-8.66699 2.66699 -17.334 4 -26.001 4v99
c47.333 0 89.333 -16.333 126 -49c30.667 -29.333 46.334 -62.333 47.001 -99v-172h-291v-83c0 -17.333 9.66699 -31.666 29 -42.999c12 -6.66699 25 -10 39 -10v-98c-62 0 -111 25 -147 75c-18.667 27.333 -28 52.666 -28 75.999zM263 0.000976562l-0.000976562 99
c38.667 0 65.334 16.333 80.001 49c2 4.66699 3.66699 9 5 13l89 -32c-12 -45.333 -39 -80.333 -81 -105c-28.667 -16 -59.667 -24 -93 -24z" />
    <glyph glyph-name="igrave" unicode="&#xec;" horiz-adv-x="174" 
d="M-16 766h102l37 -152h-73zM38 0v516h98v-516h-98z" />
    <glyph glyph-name="iacute" unicode="&#xed;" horiz-adv-x="174" 
d="M51 614l37 152h102l-66 -152h-73zM38 0v516h98v-516h-98z" />
    <glyph glyph-name="icircumflex" unicode="&#xee;" horiz-adv-x="174" 
d="M-17 614l75 152h56l77 -152h-69l-36 73l-35 -73h-68zM38 0v516h98v-516h-98z" />
    <glyph glyph-name="idieresis" unicode="&#xef;" horiz-adv-x="174" 
d="M-49 674c0 25.333 11.333 43.667 34 55c8.66699 4.66699 17.667 7 27 7c26 0 44.333 -12 55 -36c4 -8.66699 6 -17.334 6 -26.001c0 -26 -11.333 -44.333 -34 -55c-8.66699 -4 -17.667 -6 -27 -6c-26 0 -44.333 11.667 -55 35c-4 8.66699 -6 17.334 -6 26.001z
M101 674.001c0 25.333 11.333 43.667 34 55c8.66699 4.66699 17.667 7 27 7c26 0 44.333 -12 55 -36c4 -8.66699 6 -17.334 6 -26.001c0 -26 -11.333 -44.333 -34 -55c-8.66699 -4 -17.667 -6 -27 -6c-26 0 -44.333 11.667 -55 35c-4 8.66699 -6 17.334 -6 26.001z
M38 0.00195312v516h98v-516h-98z" />
    <glyph glyph-name="eth" unicode="&#xf0;" horiz-adv-x="420" 
d="M28 141l-0.00195312 234.999c0 30.667 14 60.334 42 89.001c32.667 34 73.334 51 122.001 51v-95c-33.333 0 -54.666 -13.667 -63.999 -41c-2 -6 -3 -11.667 -3 -17v-209c0 -24 11 -41.333 33 -52c10.667 -5.33301 22 -8 34 -8v-95c-61.333 0 -108.333 24.667 -141 74
c-15.333 24 -23 46.667 -23 68zM191.998 657.999v55.9971c60 -11.333 106.667 -36.666 140 -75.999l53 17l16 -52l-38 -12c19.333 -41.333 29 -91.666 29 -150.999v-299c0 -31.333 -13.667 -61.666 -41 -90.999c-31.333 -33.333 -70.666 -50.333 -117.999 -51v95
c31.333 0 51.666 13.333 60.999 40c2 6.66699 3 12.667 3 18v214c0 25.333 -12.333 42.333 -37 51c-8.66699 2.66699 -17.667 4 -27 4v95c24 0 44.333 -5.33301 61 -16c-1.33301 26.667 -5.33301 48.667 -12 66l-59 -17l-16 51l51 16c-14.667 15.333 -36.667 29.333 -66 42z
" />
    <glyph glyph-name="ntilde" unicode="&#xf1;" 
d="M97 634l-0.000976562 84c26 14.667 49.333 22 70 22c16.667 0 40.334 -7.66699 71.001 -23c23.333 -12 43.333 -18 60 -18c23.333 0.666992 50 10 80 28v-83c-30.667 -18.667 -58.667 -28 -84 -28c-18 0 -42.667 7.66699 -74 23c-22.667 11.333 -41.667 17 -57 17
c-20.667 -0.666992 -42.667 -8 -66 -22zM37.999 0v404c0 32 14.667 63.667 44 95c36 37.333 80.667 56.333 134 57v-106c-30.667 0 -52 -12 -64 -36c-4 -8 -6 -15.667 -6 -23v-391h-108zM259.999 450v106c63.333 0 113 -25.667 149 -77c19.333 -26.667 29 -51.667 29 -75
v-404h-108v391c0 20 -9.66699 36 -29 48c-12 7.33301 -25.667 11 -41 11z" />
    <glyph glyph-name="ograve" unicode="&#xf2;" horiz-adv-x="466" 
d="M132 766h102l37 -152h-73zM38 151l-0.000976562 252.998c0 32.667 14.667 64.334 44 95.001c34.667 36.667 78.334 55 131.001 55v-103c-34.667 0 -57 -14.333 -67 -43c-2 -6 -3 -12 -3 -18v-225c0 -25.333 11.667 -43.666 35 -54.999c10.667 -5.33301 22.667 -8 36 -8
v-103c-64.667 0 -114.667 26 -150 78c-17.333 26 -26 50.667 -26 74zM257.999 -1.00195l0.000976562 103.001c32 0 53 13.667 63 41c2.66699 7.33301 4 14 4 20v227c0 28 -13 46.667 -39 56c-8.66699 3.33301 -18.334 5 -29.001 5v103c62.667 0 111 -25.333 145 -76
c17.333 -26 26 -50.667 26 -74v-253c0 -32.667 -14 -64.667 -42 -96c-34 -36.667 -76.667 -55.334 -128 -56.001z" />
    <glyph glyph-name="oacute" unicode="&#xf3;" horiz-adv-x="466" 
d="M199 614l37 152h102l-66 -152h-73zM38 151l-0.000976562 252.998c0 32.667 14.667 64.334 44 95.001c34.667 36.667 78.334 55 131.001 55v-103c-34.667 0 -57 -14.333 -67 -43c-2 -6 -3 -12 -3 -18v-225c0 -25.333 11.667 -43.666 35 -54.999
c10.667 -5.33301 22.667 -8 36 -8v-103c-64.667 0 -114.667 26 -150 78c-17.333 26 -26 50.667 -26 74zM257.999 -1.00195l0.000976562 103.001c32 0 53 13.667 63 41c2.66699 7.33301 4 14 4 20v227c0 28 -13 46.667 -39 56c-8.66699 3.33301 -18.334 5 -29.001 5v103
c62.667 0 111 -25.333 145 -76c17.333 -26 26 -50.667 26 -74v-253c0 -32.667 -14 -64.667 -42 -96c-34 -36.667 -76.667 -55.334 -128 -56.001z" />
    <glyph glyph-name="ocircumflex" unicode="&#xf4;" horiz-adv-x="466" 
d="M132 614l75 152h56l77 -152h-69l-36 73l-35 -73h-68zM38 151l-0.000976562 252.998c0 32.667 14.667 64.334 44 95.001c34.667 36.667 78.334 55 131.001 55v-103c-34.667 0 -57 -14.333 -67 -43c-2 -6 -3 -12 -3 -18v-225c0 -25.333 11.667 -43.666 35 -54.999
c10.667 -5.33301 22.667 -8 36 -8v-103c-64.667 0 -114.667 26 -150 78c-17.333 26 -26 50.667 -26 74zM257.999 -1.00195l0.000976562 103.001c32 0 53 13.667 63 41c2.66699 7.33301 4 14 4 20v227c0 28 -13 46.667 -39 56c-8.66699 3.33301 -18.334 5 -29.001 5v103
c62.667 0 111 -25.333 145 -76c17.333 -26 26 -50.667 26 -74v-253c0 -32.667 -14 -64.667 -42 -96c-34 -36.667 -76.667 -55.334 -128 -56.001z" />
    <glyph glyph-name="otilde" unicode="&#xf5;" horiz-adv-x="466" 
d="M95 631l-0.000976562 84c26 14.667 49.333 22 70 22c16.667 0 40.334 -7.66699 71.001 -23c23.333 -12 43.333 -18 60 -18c23.333 0.666992 50 10 80 28v-83c-30.667 -18.667 -58.667 -28 -84 -28c-18 0 -42.667 7.66699 -74 23c-22.667 11.333 -41.667 17 -57 17
c-20.667 -0.666992 -42.667 -8 -66 -22zM37.999 151l-0.000976562 252.998c0 32.667 14.667 64.334 44 95.001c34.667 36.667 78.334 55 131.001 55v-103c-34.667 0 -57 -14.333 -67 -43c-2 -6 -3 -12 -3 -18v-225c0 -25.333 11.667 -43.666 35 -54.999
c10.667 -5.33301 22.667 -8 36 -8v-103c-64.667 0 -114.667 26 -150 78c-17.333 26 -26 50.667 -26 74zM257.998 -1.00195l0.000976562 103.001c32 0 53 13.667 63 41c2.66699 7.33301 4 14 4 20v227c0 28 -13 46.667 -39 56c-8.66699 3.33301 -18.334 5 -29.001 5v103
c62.667 0 111 -25.333 145 -76c17.333 -26 26 -50.667 26 -74v-253c0 -32.667 -14 -64.667 -42 -96c-34 -36.667 -76.667 -55.334 -128 -56.001z" />
    <glyph glyph-name="odieresis" unicode="&#xf6;" horiz-adv-x="466" 
d="M99 674c0 25.333 11.333 43.667 34 55c8.66699 4.66699 17.667 7 27 7c26 0 44.333 -12 55 -36c4 -8.66699 6 -17.334 6 -26.001c0 -26 -11.333 -44.333 -34 -55c-8.66699 -4 -17.667 -6 -27 -6c-26 0 -44.333 11.667 -55 35c-4 8.66699 -6 17.334 -6 26.001z
M249 674.001c0 25.333 11.333 43.667 34 55c8.66699 4.66699 17.667 7 27 7c26 0 44.333 -12 55 -36c4 -8.66699 6 -17.334 6 -26.001c0 -26 -11.333 -44.333 -34 -55c-8.66699 -4 -17.667 -6 -27 -6c-26 0 -44.333 11.667 -55 35c-4 8.66699 -6 17.334 -6 26.001z
M38 151.002l-0.000976562 252.998c0 32.667 14.667 64.334 44 95.001c34.667 36.667 78.334 55 131.001 55v-103c-34.667 0 -57 -14.333 -67 -43c-2 -6 -3 -12 -3 -18v-225c0 -25.333 11.667 -43.666 35 -54.999c10.667 -5.33301 22.667 -8 36 -8v-103
c-64.667 0 -114.667 26 -150 78c-17.333 26 -26 50.667 -26 74zM257.999 -1l0.000976562 103.001c32 0 53 13.667 63 41c2.66699 7.33301 4 14 4 20v227c0 28 -13 46.667 -39 56c-8.66699 3.33301 -18.334 5 -29.001 5v103c62.667 0 111 -25.333 145 -76
c17.333 -26 26 -50.667 26 -74v-253c0 -32.667 -14 -64.667 -42 -96c-34 -36.667 -76.667 -55.334 -128 -56.001z" />
    <glyph glyph-name="divide" unicode="&#xf7;" horiz-adv-x="650" 
d="M77 241v101h450v-101h-450zM246 464c0 26.667 11.667 46 35 58c9.33301 4.66699 19 7 29 7c26.667 0 46 -12 58 -36c4.66699 -9.33301 7 -19 7 -29c0 -26.667 -12 -46 -36 -58c-9.33301 -4.66699 -19 -7 -29 -7c-25.333 0 -44 11.333 -56 34c-5.33301 10 -8 20.333 -8 31
zM246 144c0 26.667 11.667 46 35 58c9.33301 4.66699 19 7 29 7c26.667 0 46 -12 58 -36c4.66699 -9.33301 7 -19 7 -29c0 -26.667 -12 -46 -36 -58c-9.33301 -4.66699 -19 -7 -29 -7c-25.333 0 -44 11.333 -56 34c-5.33301 10 -8 20.333 -8 31z" />
    <glyph glyph-name="oslash" unicode="&#xf8;" horiz-adv-x="475" 
d="M4 78l63.999 57.998c-0.666992 2 -1 6.66699 -1 14v226c0 30.667 13.667 60.334 41 89.001c33.333 34 74.333 51 123 51v-95c-33.333 0 -54.666 -13.667 -63.999 -41c-2 -6 -3 -11.667 -3 -17v-139l169 156c-9.33301 26.667 -29.666 40.334 -60.999 41.001v95
c58.667 -0.666992 103 -24 133 -70l44 40l46 -51l-65 -59v-6c0.666992 -4 1 -6.33301 1 -7v-222c0 -31.333 -13.667 -61.666 -41 -90.999c-32 -33.333 -71.333 -50.333 -118 -51v95c31.333 0 51.666 13.333 60.999 40c2 6.66699 3 12.667 3 18v137l-168 -154
c8.66699 -26.667 29.667 -40.334 63 -41.001v-95c-60.667 0.666992 -106 23.667 -136 69l-45 -41z" />
    <glyph glyph-name="ugrave" unicode="&#xf9;" 
d="M135 766h102l37 -152h-73zM38 147v406.999h108v-395c0 -21.333 10.667 -37.666 32 -48.999c11.333 -6 24 -9 38 -9v-106c-64.667 0 -115 25.333 -151 76c-18 26 -27 51.333 -27 76zM260 -5.00098v106.001c33.333 0 55.333 13 66 39c2.66699 6.66699 4 13 4 19v395h108
v-407c0 -31.333 -14 -62.333 -42 -93c-36.667 -38.667 -82 -58.334 -136 -59.001z" />
    <glyph glyph-name="uacute" unicode="&#xfa;" 
d="M248 614l37 152h102l-66 -152h-73zM38 147v406.999h108v-395c0 -21.333 10.667 -37.666 32 -48.999c11.333 -6 24 -9 38 -9v-106c-64.667 0 -115 25.333 -151 76c-18 26 -27 51.333 -27 76zM260 -5.00098v106.001c33.333 0 55.333 13 66 39c2.66699 6.66699 4 13 4 19
v395h108v-407c0 -31.333 -14 -62.333 -42 -93c-36.667 -38.667 -82 -58.334 -136 -59.001z" />
    <glyph glyph-name="ucircumflex" unicode="&#xfb;" 
d="M134 614l75 152h56l77 -152h-69l-36 73l-35 -73h-68zM38 147v406.999h108v-395c0 -21.333 10.667 -37.666 32 -48.999c11.333 -6 24 -9 38 -9v-106c-64.667 0 -115 25.333 -151 76c-18 26 -27 51.333 -27 76zM260 -5.00098v106.001c33.333 0 55.333 13 66 39
c2.66699 6.66699 4 13 4 19v395h108v-407c0 -31.333 -14 -62.333 -42 -93c-36.667 -38.667 -82 -58.334 -136 -59.001z" />
    <glyph glyph-name="udieresis" unicode="&#xfc;" 
d="M102 674c0 25.333 11.333 43.667 34 55c8.66699 4.66699 17.667 7 27 7c26 0 44.333 -12 55 -36c4 -8.66699 6 -17.334 6 -26.001c0 -26 -11.333 -44.333 -34 -55c-8.66699 -4 -17.667 -6 -27 -6c-26 0 -44.333 11.667 -55 35c-4 8.66699 -6 17.334 -6 26.001z
M252 674.001c0 25.333 11.333 43.667 34 55c8.66699 4.66699 17.667 7 27 7c26 0 44.333 -12 55 -36c4 -8.66699 6 -17.334 6 -26.001c0 -26 -11.333 -44.333 -34 -55c-8.66699 -4 -17.667 -6 -27 -6c-26 0 -44.333 11.667 -55 35c-4 8.66699 -6 17.334 -6 26.001z
M38 147.002v406.999h108v-395c0 -21.333 10.667 -37.666 32 -48.999c11.333 -6 24 -9 38 -9v-106c-64.667 0 -115 25.333 -151 76c-18 26 -27 51.333 -27 76zM260 -4.99902v106.001c33.333 0 55.333 13 66 39c2.66699 6.66699 4 13 4 19v395h108v-407
c0 -31.333 -14 -62.333 -42 -93c-36.667 -38.667 -82 -58.334 -136 -59.001z" />
    <glyph glyph-name="yacute" unicode="&#xfd;" horiz-adv-x="418" 
d="M219 619l37 152h102l-66 -152h-73zM6 554h114l143 -433l-105 -316h-110l99 318zM233 367l69 187h113l-124 -344h-11z" />
    <glyph glyph-name="thorn" unicode="&#xfe;" horiz-adv-x="422" 
d="M30 -182v882h100v-882h-100zM173 423l-0.000976562 94.999h55c60 0 107 -22.667 141 -68c18 -25.333 27 -49.666 27 -72.999v-238c0 -34.667 -15 -66 -45 -94c-31.333 -30 -71 -45 -119 -45h-52v95h54c40.667 4.66699 62.334 22 65.001 52v225c0 22 -13 37.333 -39 46
c-10 3.33301 -20.667 5 -32 5h-55z" />
    <glyph glyph-name="ydieresis" unicode="&#xff;" horiz-adv-x="418" 
d="M73 680c0 25.333 11.333 43.667 34 55c8.66699 4.66699 17.667 7 27 7c26 0 44.333 -12 55 -36c4 -8.66699 6 -17.334 6 -26.001c0 -26 -11.333 -44.333 -34 -55c-8.66699 -4 -17.667 -6 -27 -6c-26 0 -44.333 11.667 -55 35c-4 8.66699 -6 17.334 -6 26.001z
M223 680.001c0 25.333 11.333 43.667 34 55c8.66699 4.66699 17.667 7 27 7c26 0 44.333 -12 55 -36c4 -8.66699 6 -17.334 6 -26.001c0 -26 -11.333 -44.333 -34 -55c-8.66699 -4 -17.667 -6 -27 -6c-26 0 -44.333 11.667 -55 35c-4 8.66699 -6 17.334 -6 26.001z
M6 554.002h114l143 -433l-105 -316h-110l99 318zM233 367.002l69 187h113l-124 -344h-11z" />
    <glyph glyph-name="Amacron" unicode="&#x100;" horiz-adv-x="499" 
d="M104 766v66h316v-66h-316zM31 0l132 587h15l46 -212l-83 -375h-110zM216 100l23 109h75l-108 491h110l161 -700h-111l-22 100h-128z" />
    <glyph glyph-name="amacron" unicode="&#x101;" horiz-adv-x="470" 
d="M64 617v66h316v-66h-316zM29 129c0 -37.333 18.0029 -69.001 54.0029 -95.001c31.333 -22.667 68.666 -34 111.999 -34v99c-49.333 0.666992 -74.333 18 -75 52v21c0.666992 13.333 4.66699 22.666 12 27.999c5.33301 4 36.666 13.667 93.999 29
c40 10.667 68 20.334 84 29.001v-99c0 -32 -15 -51.333 -45 -58c-6 -1.33301 -12.333 -2 -19 -2v-99c44 0.666992 79.333 12 106 34c23.333 -22.667 52.666 -34 87.999 -34v100c-17.333 1.33301 -26.333 12 -27 32v269c0 40 -16 75.667 -48 107s-72 47 -120 47v-98
c30 0 50 -12.333 60 -37c3.33301 -8 5 -16.333 5 -25v-21c0 -17.333 -36.667 -37.333 -110 -60c-69.333 -21.333 -108.666 -34.666 -117.999 -39.999c-34.667 -20.667 -52.334 -52.667 -53.001 -96v-49zM37.0029 415.999l92.001 -34.999c0 38 14.667 62 44 72
c7.33301 2.66699 14.666 4 21.999 4v98c-46 0 -85.667 -16.667 -119 -50c-26 -26.667 -39 -56.334 -39 -89.001z" />
    <glyph glyph-name="Abreve" unicode="&#x102;" horiz-adv-x="499" 
d="M175 852h55.001c0 -16 7.33301 -26.333 22 -31c4 -0.666992 7.33301 -1 10 -1c16 0 26.333 7.33301 31 22c0.666992 4 1 7.33301 1 10h55c0 -30.667 -13.333 -54.667 -40 -72c-14.667 -9.33301 -30.334 -14 -47.001 -14c-32.667 0 -57.667 14.333 -75 43
c-8 14 -12 28.333 -12 43zM31.001 0l132 587h15l46 -212l-83 -375h-110zM216.001 100l23 109h75l-108 491h110l161 -700h-111l-22 100h-128z" />
    <glyph glyph-name="abreve" unicode="&#x103;" horiz-adv-x="470" 
d="M129 703h55.001c0 -16 7.33301 -26.333 22 -31c4 -0.666992 7.33301 -1 10 -1c16 0 26.333 7.33301 31 22c0.666992 4 1 7.33301 1 10h55c0 -30.667 -13.333 -54.667 -40 -72c-14.667 -9.33301 -30.334 -14 -47.001 -14c-32.667 0 -57.667 14.333 -75 43
c-8 14 -12 28.333 -12 43zM29.001 129c0 -37.333 18.0029 -69.001 54.0029 -95.001c31.333 -22.667 68.666 -34 111.999 -34v99c-49.333 0.666992 -74.333 18 -75 52v21c0.666992 13.333 4.66699 22.666 12 27.999c5.33301 4 36.666 13.667 93.999 29
c40 10.667 68 20.334 84 29.001v-99c0 -32 -15 -51.333 -45 -58c-6 -1.33301 -12.333 -2 -19 -2v-99c44 0.666992 79.333 12 106 34c23.333 -22.667 52.666 -34 87.999 -34v100c-17.333 1.33301 -26.333 12 -27 32v269c0 40 -16 75.667 -48 107s-72 47 -120 47v-98
c30 0 50 -12.333 60 -37c3.33301 -8 5 -16.333 5 -25v-21c0 -17.333 -36.667 -37.333 -110 -60c-69.333 -21.333 -108.666 -34.666 -117.999 -39.999c-34.667 -20.667 -52.334 -52.667 -53.001 -96v-49zM37.0039 415.999l92.001 -34.999c0 38 14.667 62 44 72
c7.33301 2.66699 14.666 4 21.999 4v98c-46 0 -85.667 -16.667 -119 -50c-26 -26.667 -39 -56.334 -39 -89.001z" />
    <glyph glyph-name="Aogonek" unicode="&#x104;" horiz-adv-x="499" 
d="M546 -191c-74.667 0 -124 29.333 -148 88c-8 20 -12 41 -12 63h77c0 -41.333 20 -66 60 -74c8 -1.33301 15.667 -2 23 -2v-75zM31 0l132 587h15l46 -212l-83 -375h-110zM216 100l23 109h75l-108 491h110l161 -700h-111l-22 100h-128z" />
    <glyph glyph-name="aogonek" unicode="&#x105;" horiz-adv-x="470" 
d="M479 -191c-74.667 0 -124 29.333 -148 88c-8 20 -12 41 -12 63h77c0 -41.333 20 -66 60 -74c8 -1.33301 15.667 -2 23 -2v-75zM29 129c0 -37.333 18.0029 -69.001 54.0029 -95.001c31.333 -22.667 68.666 -34 111.999 -34v99c-49.333 0.666992 -74.333 18 -75 52v21
c0.666992 13.333 4.66699 22.666 12 27.999c5.33301 4 36.666 13.667 93.999 29c40 10.667 68 20.334 84 29.001v-99c0 -32 -15 -51.333 -45 -58c-6 -1.33301 -12.333 -2 -19 -2v-99c44 0.666992 79.333 12 106 34c23.333 -22.667 52.666 -34 87.999 -34v100
c-17.333 1.33301 -26.333 12 -27 32v269c0 40 -16 75.667 -48 107s-72 47 -120 47v-98c30 0 50 -12.333 60 -37c3.33301 -8 5 -16.333 5 -25v-21c0 -17.333 -36.667 -37.333 -110 -60c-69.333 -21.333 -108.666 -34.666 -117.999 -39.999
c-34.667 -20.667 -52.334 -52.667 -53.001 -96v-49zM37.0029 415.999l92.001 -34.999c0 38 14.667 62 44 72c7.33301 2.66699 14.666 4 21.999 4v98c-46 0 -85.667 -16.667 -119 -50c-26 -26.667 -39 -56.334 -39 -89.001z" />
    <glyph glyph-name="Cacute" unicode="&#x106;" horiz-adv-x="500" 
d="M234 766l37 152h102l-66 -152h-73zM39 181c0 -38.667 14.332 -76.334 42.999 -113.001c38.667 -48 90.334 -72.333 155.001 -73v111c-39.333 0 -66.333 17.333 -81 52c-4 9.33301 -6 17 -6 23v337c0 18 8.33301 35.333 25 52c17.333 15.333 38 23.333 62 24v111
c-75.333 0 -132 -32 -170 -96c-18.667 -31.333 -28 -61.666 -28 -90.999v-337zM287.999 -5c52.667 0 98.333 20.666 137 61.999c33.333 36.667 50 78.334 50 125.001l-108 26c0 -7.33301 -0.333008 -12 -1 -14c0 -14 -1.66699 -26 -5 -36
c-5.33301 -13.333 -14 -24.333 -26 -33s-23 -14 -33 -16l-14 -3v-111zM287.998 593.999l25.999 -8.00098c22.667 -11.333 38.334 -27.666 47.001 -48.999c3.33301 -10 5 -21.333 5 -34v-15l109 28c0 51.333 -21.333 97 -64 137c-38 34.667 -79 52 -123 52v-111z" />
    <glyph glyph-name="cacute" unicode="&#x107;" horiz-adv-x="449" 
d="M196 614l37 152h102l-66 -152h-73zM38 151c0 -34.667 13.667 -67.001 41 -97.001c33.333 -36 77.333 -54 132 -54v102c-34.667 0 -56.334 11.667 -65.001 35c-2 4.66699 -3 9.33398 -3 14.001v251c0 18 9.66699 32 29 42c11.333 6 24.333 9 39 9v101
c-65.333 0 -114.666 -26 -147.999 -78c-16 -24.667 -24.333 -48.667 -25 -72v-253zM256 451.999c32 0 51.333 -15 58 -45c1.33301 -5.33301 2 -10.666 2 -15.999v-28l98 37c0 49.333 -20 89.666 -60 120.999c-29.333 22 -62 33 -98 33v-102zM256 -1.00098
c47.333 -1.33301 89 16.333 125 53c30 30.667 45 64.667 45 102l-98 37v-27c-3.33301 -41.333 -27.333 -62.333 -72 -63v-102z" />
    <glyph glyph-name="Ccaron" unicode="&#x10c;" horiz-adv-x="500" 
d="M158 918h68l35 -73l36 73h69l-77 -152h-56zM39 181c0 -38.667 14.332 -76.334 42.999 -113.001c38.667 -48 90.334 -72.333 155.001 -73v111c-39.333 0 -66.333 17.333 -81 52c-4 9.33301 -6 17 -6 23v337c0 18 8.33301 35.333 25 52c17.333 15.333 38 23.333 62 24v111
c-75.333 0 -132 -32 -170 -96c-18.667 -31.333 -28 -61.666 -28 -90.999v-337zM287.999 -5c52.667 0 98.333 20.666 137 61.999c33.333 36.667 50 78.334 50 125.001l-108 26c0 -7.33301 -0.333008 -12 -1 -14c0 -14 -1.66699 -26 -5 -36
c-5.33301 -13.333 -14 -24.333 -26 -33s-23 -14 -33 -16l-14 -3v-111zM287.998 593.999l25.999 -8.00098c22.667 -11.333 38.334 -27.666 47.001 -48.999c3.33301 -10 5 -21.333 5 -34v-15l109 28c0 51.333 -21.333 97 -64 137c-38 34.667 -79 52 -123 52v-111z" />
    <glyph glyph-name="ccaron" unicode="&#x10d;" horiz-adv-x="449" 
d="M129 766h68l35 -73l36 73h69l-77 -152h-56zM38 151c0 -34.667 13.667 -67.001 41 -97.001c33.333 -36 77.333 -54 132 -54v102c-34.667 0 -56.334 11.667 -65.001 35c-2 4.66699 -3 9.33398 -3 14.001v251c0 18 9.66699 32 29 42c11.333 6 24.333 9 39 9v101
c-65.333 0 -114.666 -26 -147.999 -78c-16 -24.667 -24.333 -48.667 -25 -72v-253zM256 451.999c32 0 51.333 -15 58 -45c1.33301 -5.33301 2 -10.666 2 -15.999v-28l98 37c0 49.333 -20 89.666 -60 120.999c-29.333 22 -62 33 -98 33v-102zM256 -1.00098
c47.333 -1.33301 89 16.333 125 53c30 30.667 45 64.667 45 102l-98 37v-27c-3.33301 -41.333 -27.333 -62.333 -72 -63v-102z" />
    <glyph glyph-name="Dcaron" unicode="&#x10e;" horiz-adv-x="472" 
d="M134 918h68l35 -73l36 73h69l-77 -152h-56zM41 0v700h112v-700h-112zM205 0v111.001c76.667 0 115.667 28 117 84v2v306c0 40 -22.333 66.333 -67 79c-15.333 4.66699 -32 7 -50 7v111c85.333 0 149 -28 191 -84c24.667 -33.333 37 -71 37 -113v-306
c0 -92.667 -43.667 -153.334 -131 -182.001c-30 -10 -62.333 -15 -97 -15z" />
    <glyph glyph-name="dcaron" unicode="&#x10f;" horiz-adv-x="451" 
d="M497 589l37 152h101l-37 -152h-101zM30 151l0.000976562 253.001c0.666992 34 15.667 66.333 45 97c32.667 34 71.667 51.333 117 52h58v-104h-58c-24 0 -41.667 -11 -53 -33c-3.33301 -6.66699 -5 -12.334 -5 -17.001v-246c0 -14.667 8.66699 -27.667 26 -39
c10.667 -7.33301 22 -11 34 -11h56v-103h-56c-60.667 -0 -107.334 26.333 -140.001 79c-16 26 -24 50 -24 72zM300.001 0.000976562v711h110v-711h-110z" />
    <glyph glyph-name="Dcroat" unicode="&#x110;" horiz-adv-x="487" 
d="M26 304v102h57v294h111v-294h56v-102h-56v-304h-111v304h-57zM246 0l0.000976562 111.001c76.667 0 115.667 28 117 84v2v306c0 40 -22.333 66.333 -67 79c-14.667 4.66699 -31.334 7 -50.001 7v111c84.667 0 148.334 -27.667 191.001 -83c25.333 -34 38 -72 38 -114
v-306c0 -92.667 -43.667 -153.334 -131 -182.001c-30.667 -10 -63.334 -15 -98.001 -15z" />
    <glyph glyph-name="dcroat" unicode="&#x111;" horiz-adv-x="414" 
d="M29 141v236.001c0.666992 32.667 15.334 63.667 44.001 93c30 30 65.667 45.333 107 46h56v-95h-56c-24 -0.666992 -41.333 -11.334 -52 -32.001c-2.66699 -6 -4 -11.333 -4 -16v-230c0 -14 8.66699 -26.667 26 -38c10 -6.66699 20.667 -10 32 -10h54v-95h-54
c-56.667 0 -100.334 25 -131.001 75c-14.667 24 -22 46 -22 66zM205 575.001v79h78v57h101v-57h64v-79h-64v-575h-101v575h-78z" />
    <glyph glyph-name="Emacron" unicode="&#x112;" horiz-adv-x="444" 
d="M66 766v66h316v-66h-316zM41 0v700h364v-110h-252v-186h158v-112h-158v-181h252v-111h-364z" />
    <glyph glyph-name="emacron" unicode="&#x113;" horiz-adv-x="475" 
d="M79 614v66h316v-66h-316zM38 151v253.999c1.33301 32.667 16.333 64.334 45 95.001c35.333 35.333 78 53.333 128 54v-100c-26 0 -45.667 -11.667 -59 -35c-4.66699 -8 -7 -15.333 -7 -22v-60h190v59c0 28 -15.333 46.333 -46 55c-8.66699 2.66699 -17.334 4 -26.001 4
v99c47.333 0 89.333 -16.333 126 -49c30.667 -29.333 46.334 -62.333 47.001 -99v-172h-291v-83c0 -17.333 9.66699 -31.666 29 -42.999c12 -6.66699 25 -10 39 -10v-98c-62 0 -111 25 -147 75c-18.667 27.333 -28 52.666 -28 75.999zM263 -0.000976562l-0.000976562 99
c38.667 0 65.334 16.333 80.001 49c2 4.66699 3.66699 9 5 13l89 -32c-12 -45.333 -39 -80.333 -81 -105c-28.667 -16 -59.667 -24 -93 -24z" />
    <glyph glyph-name="Edotaccent" unicode="&#x116;" horiz-adv-x="444" 
d="M162 828c0 26.667 11.335 45.667 34.002 57c9.33301 4 18.666 6 27.999 6c26 0 44.667 -11.667 56 -35c4 -9.33301 6 -18.666 6 -27.999c0 -26.667 -11.667 -45.334 -35 -56.001c-8.66699 -4 -17.667 -6 -27 -6c-26.667 0 -45.334 11.667 -56.001 35
c-4 8.66699 -6 17.667 -6 27zM41.002 0v700h364v-110h-252v-186h158v-112h-158v-181h252v-111h-364z" />
    <glyph glyph-name="edotaccent" unicode="&#x117;" horiz-adv-x="475" 
d="M175 676c0 26.667 11.335 45.667 34.002 57c9.33301 4 18.666 6 27.999 6c26 0 44.667 -11.667 56 -35c4 -9.33301 6 -18.666 6 -27.999c0 -26.667 -11.667 -45.334 -35 -56.001c-8.66699 -4 -17.667 -6 -27 -6c-26.667 0 -45.334 11.667 -56.001 35
c-4 8.66699 -6 17.667 -6 27zM38.002 151v253.999c1.33301 32.667 16.333 64.334 45 95.001c35.333 35.333 78 53.333 128 54v-100c-26 0 -45.667 -11.667 -59 -35c-4.66699 -8 -7 -15.333 -7 -22v-60h190v59c0 28 -15.333 46.333 -46 55
c-8.66699 2.66699 -17.334 4 -26.001 4v99c47.333 0 89.333 -16.333 126 -49c30.667 -29.333 46.334 -62.333 47.001 -99v-172h-291v-83c0 -17.333 9.66699 -31.666 29 -42.999c12 -6.66699 25 -10 39 -10v-98c-62 0 -111 25 -147 75c-18.667 27.333 -28 52.666 -28 75.999z
M263.002 -0.000976562l-0.000976562 99c38.667 0 65.334 16.333 80.001 49c2 4.66699 3.66699 9 5 13l89 -32c-12 -45.333 -39 -80.333 -81 -105c-28.667 -16 -59.667 -24 -93 -24z" />
    <glyph glyph-name="Eogonek" unicode="&#x118;" horiz-adv-x="444" 
d="M421 -191v74.999c-42.667 0 -69 16.333 -79 49c-2.66699 8.66699 -4 17.667 -4 27h-77c0 -55.333 20.333 -96.666 61 -123.999c26.667 -18 59.667 -27 99 -27zM41 -0.000976562v700h364v-110h-252v-186h158v-112h-158v-181h252v-111h-364z" />
    <glyph glyph-name="eogonek" unicode="&#x119;" horiz-adv-x="475" 
d="M362 -191v74.999c-42.667 0 -69 16.333 -79 49c-2.66699 8.66699 -4 17.667 -4 27h-77c0 -55.333 20.333 -96.666 61 -123.999c26.667 -18 59.667 -27 99 -27zM38 150.999v253.999c1.33301 32.667 16.333 64.334 45 95.001c35.333 35.333 78 53.333 128 54v-100
c-26 0 -45.667 -11.667 -59 -35c-4.66699 -8 -7 -15.333 -7 -22v-60h190v59c0 28 -15.333 46.333 -46 55c-8.66699 2.66699 -17.334 4 -26.001 4v99c47.333 0 89.333 -16.333 126 -49c30.667 -29.333 46.334 -62.333 47.001 -99v-172h-291v-83
c0 -17.333 9.66699 -31.666 29 -42.999c12 -6.66699 25 -10 39 -10v-98c-62 0 -111 25 -147 75c-18.667 27.333 -28 52.666 -28 75.999zM263 -0.00195312l-0.000976562 99c38.667 0 65.334 16.333 80.001 49c2 4.66699 3.66699 9 5 13l89 -32
c-12 -45.333 -39 -80.333 -81 -105c-28.667 -16 -59.667 -24 -93 -24z" />
    <glyph glyph-name="Ecaron" unicode="&#x11a;" horiz-adv-x="444" 
d="M120 918h68l35 -73l36 73h69l-77 -152h-56zM41 0v700h364v-110h-252v-186h158v-112h-158v-181h252v-111h-364z" />
    <glyph glyph-name="ecaron" unicode="&#x11b;" horiz-adv-x="475" 
d="M133 766h68l35 -73l36 73h69l-77 -152h-56zM38 151v253.999c1.33301 32.667 16.333 64.334 45 95.001c35.333 35.333 78 53.333 128 54v-100c-26 0 -45.667 -11.667 -59 -35c-4.66699 -8 -7 -15.333 -7 -22v-60h190v59c0 28 -15.333 46.333 -46 55
c-8.66699 2.66699 -17.334 4 -26.001 4v99c47.333 0 89.333 -16.333 126 -49c30.667 -29.333 46.334 -62.333 47.001 -99v-172h-291v-83c0 -17.333 9.66699 -31.666 29 -42.999c12 -6.66699 25 -10 39 -10v-98c-62 0 -111 25 -147 75c-18.667 27.333 -28 52.666 -28 75.999z
M263 -0.000976562l-0.000976562 99c38.667 0 65.334 16.333 80.001 49c2 4.66699 3.66699 9 5 13l89 -32c-12 -45.333 -39 -80.333 -81 -105c-28.667 -16 -59.667 -24 -93 -24z" />
    <glyph glyph-name="Gbreve" unicode="&#x11e;" horiz-adv-x="509" 
d="M174 852h55.001c0 -16 7.33301 -26.333 22 -31c4 -0.666992 7.33301 -1 10 -1c16 0 26.333 7.33301 31 22c0.666992 4 1 7.33301 1 10h55c0 -30.667 -13.333 -54.667 -40 -72c-14.667 -9.33301 -30.334 -14 -47.001 -14c-32.667 0 -57.667 14.333 -75 43
c-8 14 -12 28.333 -12 43zM39.001 192c0 -74.667 33.0029 -130.666 99.0029 -167.999c34 -19.333 66.667 -29 98 -29v111c-16.667 0 -34.667 7.33301 -54 22c-20.667 17.333 -31.334 38.666 -32.001 63.999v316c0 27.333 11.333 50 34 68
c15.333 11.333 32.666 17.333 51.999 18v111c-72.667 0 -128.334 -31.333 -167.001 -94c-17.333 -29.333 -27.333 -58.333 -30 -87v-332zM287.004 -4.99902c42.667 0.666992 84.999 21.332 126.999 61.999c39.333 40 59.333 79.667 60 119v177h-187v-103h74v-60
c0 -29.333 -15.333 -53.666 -46 -72.999c-11.333 -7.33301 -20.666 -11 -27.999 -11v-111zM287.003 593.999c24.667 -0.666992 45.001 -12.333 61.001 -35c9.33301 -14.667 14.666 -31.667 15.999 -51v-32l110 40c0 51.333 -21.333 97 -64 137c-38 34.667 -79 52 -123 52
v-111z" />
    <glyph glyph-name="gbreve" unicode="&#x11f;" horiz-adv-x="449" 
d="M131 706h55.001c0 -16 7.33301 -26.333 22 -31c4 -0.666992 7.33301 -1 10 -1c16 0 26.333 7.33301 31 22c0.666992 4 1 7.33301 1 10h55c0 -30.667 -13.333 -54.667 -40 -72c-14.667 -9.33301 -30.334 -14 -47.001 -14c-32.667 0 -57.667 14.333 -75 43
c-8 14 -12 28.333 -12 43zM23.001 -187l25.002 98h193c31.333 1.33301 52.666 14.333 63.999 39c2.66699 5.33301 4 10 4 14v60c-26.667 -12 -48.667 -18.333 -66 -19v99c29.333 0 49.666 11.333 60.999 34c3.33301 6.66699 5 13 5 19v250c0 18 -10.333 32.667 -31 44
c-11.333 6 -23 9 -35 9v99c23.333 0 45.333 -6.33301 66 -19v19h103v-595c0 -28.667 -13 -58.667 -39 -90c-34 -40 -75.667 -60.333 -125 -61h-225zM33.0029 155l0.000976562 256c0.666992 31.333 14.667 62.333 42 93c33.333 36 75 54.333 125 55v-99
c-28.667 0 -49 -12 -61 -36c-3.33301 -6 -5 -11.333 -5 -16v-252c0 -17.333 9.66699 -31.333 29 -42c11.333 -6 23.666 -9 36.999 -9v-100c-62 0.666992 -109.667 27 -143 79c-16 25.333 -24 49 -24 71z" />
    <glyph glyph-name="uni0122" unicode="&#x122;" horiz-adv-x="509" 
d="M185 -218l37 152h101l-37 -152h-101zM39 192c0 -74.667 33.0029 -130.666 99.0029 -167.999c34 -19.333 66.667 -29 98 -29v111c-16.667 0 -34.667 7.33301 -54 22c-20.667 17.333 -31.334 38.666 -32.001 63.999v316c0 27.333 11.333 50 34 68
c15.333 11.333 32.666 17.333 51.999 18v111c-72.667 0 -128.334 -31.333 -167.001 -94c-17.333 -29.333 -27.333 -58.333 -30 -87v-332zM287.003 -4.99902c42.667 0.666992 84.999 21.332 126.999 61.999c39.333 40 59.333 79.667 60 119v177h-187v-103h74v-60
c0 -29.333 -15.333 -53.666 -46 -72.999c-11.333 -7.33301 -20.666 -11 -27.999 -11v-111zM287.002 593.999c24.667 -0.666992 45.001 -12.333 61.001 -35c9.33301 -14.667 14.666 -31.667 15.999 -51v-32l110 40c0 51.333 -21.333 97 -64 137c-38 34.667 -79 52 -123 52
v-111z" />
    <glyph glyph-name="uni0123" unicode="&#x123;" horiz-adv-x="449" 
d="M230 620l37 152h102l-66 -152h-73zM23 -187l25.002 98h193c31.333 1.33301 52.666 14.333 63.999 39c2.66699 5.33301 4 10 4 14v60c-26.667 -12 -48.667 -18.333 -66 -19v99c29.333 0 49.666 11.333 60.999 34c3.33301 6.66699 5 13 5 19v250
c0 18 -10.333 32.667 -31 44c-11.333 6 -23 9 -35 9v99c23.333 0 45.333 -6.33301 66 -19v19h103v-595c0 -28.667 -13 -58.667 -39 -90c-34 -40 -75.667 -60.333 -125 -61h-225zM33.002 155l0.000976562 256c0.666992 31.333 14.667 62.333 42 93
c33.333 36 75 54.333 125 55v-99c-28.667 0 -49 -12 -61 -36c-3.33301 -6 -5 -11.333 -5 -16v-252c0 -17.333 9.66699 -31.333 29 -42c11.333 -6 23.666 -9 36.999 -9v-100c-62 0.666992 -109.667 27 -143 79c-16 25.333 -24 49 -24 71z" />
    <glyph glyph-name="Imacron" unicode="&#x12a;" horiz-adv-x="196" 
d="M-60 766v66h316v-66h-316zM42 0v700h112v-700h-112z" />
    <glyph glyph-name="imacron" unicode="&#x12b;" horiz-adv-x="174" 
d="M-71 614v66h316v-66h-316zM38 0v516h98v-516h-98z" />
    <glyph glyph-name="Iogonek" unicode="&#x12e;" horiz-adv-x="196" 
d="M220 -189c-74.667 0 -124 29.333 -148 88c-8 20 -12 41 -12 63h77c0 -41.333 20 -66 60 -74c8 -1.33301 15.667 -2 23 -2v-75zM42 0v700h112v-700h-112z" />
    <glyph glyph-name="iogonek" unicode="&#x12f;" horiz-adv-x="214" 
d="M230 -190c-74.667 0 -124 29.333 -148 88c-8 20 -12 41 -12 63h77c0 -41.333 20 -66 60 -74c8 -1.33301 15.667 -2 23 -2v-75zM48 631c0 24.667 11 42.334 33 53.001c8.66699 4 17.334 6 26.001 6c25.333 0 43.333 -11 54 -33c4 -8.66699 6 -17.334 6 -26.001
c0 -24 -11.333 -41.333 -34 -52c-8.66699 -4 -17.334 -6 -26.001 -6c-24 0 -41.667 10.667 -53 32c-4 8 -6 16.667 -6 26zM55 0v533h107v-533h-107z" />
    <glyph glyph-name="Idotaccent" unicode="&#x130;" horiz-adv-x="196" 
d="M36 828c0 26.667 11.335 45.667 34.002 57c9.33301 4 18.666 6 27.999 6c26 0 44.667 -11.667 56 -35c4 -9.33301 6 -18.666 6 -27.999c0 -26.667 -11.667 -45.334 -35 -56.001c-8.66699 -4 -17.667 -6 -27 -6c-26.667 0 -45.334 11.667 -56.001 35
c-4 8.66699 -6 17.667 -6 27zM42.002 0v700h112v-700h-112z" />
    <glyph glyph-name="dotlessi" unicode="&#x131;" horiz-adv-x="174" 
d="M38 0v516h98v-516h-98z" />
    <glyph glyph-name="uni0136" unicode="&#x136;" horiz-adv-x="489" 
d="M172 -213l37 152h101l-37 -152h-101zM41 0v700h112v-700h-112zM195 341l160 359h113l-160 -359l164 -341h-112z" />
    <glyph glyph-name="uni0137" unicode="&#x137;" horiz-adv-x="488" 
d="M170 -213l37 152h101l-37 -152h-101zM41 0v711h110v-711h-110zM178 279l167 275h122l-170 -275l171 -279h-121z" />
    <glyph glyph-name="Lacute" unicode="&#x139;" horiz-adv-x="434" 
d="M61 766l37 152h102l-66 -152h-73zM41 0v700h112v-590h264v-110h-376z" />
    <glyph glyph-name="lacute" unicode="&#x13a;" horiz-adv-x="198" 
d="M62 802l37 152h102l-66 -152h-73zM42 0v711h114v-711h-114z" />
    <glyph glyph-name="uni013B" unicode="&#x13b;" horiz-adv-x="434" 
d="M158 -213l37 152h101l-37 -152h-101zM41 0v700h112v-590h264v-110h-376z" />
    <glyph glyph-name="uni013C" unicode="&#x13c;" horiz-adv-x="198" 
d="M21 -219l37 152h101l-37 -152h-101zM53 0v711h114v-711h-114z" />
    <glyph glyph-name="Lcaron" unicode="&#x13d;" horiz-adv-x="434" 
d="M236 553l37 152h101l-37 -152h-101zM41 0v700h112v-590h264v-110h-376z" />
    <glyph glyph-name="lcaron" unicode="&#x13e;" horiz-adv-x="325" 
d="M192 589l37 152h101l-37 -152h-101zM34 0v711h114v-711h-114z" />
    <glyph glyph-name="Lslash" unicode="&#x141;" horiz-adv-x="500" 
d="M33 293l96 74v333h112v-246l75 59l58 -76l-133 -103v-224h264v-110h-376v247l-37 -29z" />
    <glyph glyph-name="lslash" unicode="&#x142;" horiz-adv-x="424" 
d="M168 -6h114v365l103 80l-59 75l-44 -34v224h-114v-313l-109 -85l59 -75l50 39v-276z" />
    <glyph glyph-name="Nacute" unicode="&#x143;" horiz-adv-x="529" 
d="M228 766l37 152h102l-66 -152h-73zM42 0v522h8l104 -167v-355h-112zM42 628v72h93l352 -565v-135h-54zM375 408v292h112v-459h-8z" />
    <glyph glyph-name="nacute" unicode="&#x144;" 
d="M202 617l37 152h102l-66 -152h-73zM38 0v404c0 32 14.667 63.667 44 95c36 37.333 80.667 56.333 134 57v-106c-30.667 0 -52 -12 -64 -36c-4 -8 -6 -15.667 -6 -23v-391h-108zM260 450v106c63.333 0 113 -25.667 149 -77c19.333 -26.667 29 -51.667 29 -75v-404h-108
v391c0 20 -9.66699 36 -29 48c-12 7.33301 -25.667 11 -41 11z" />
    <glyph glyph-name="uni0145" unicode="&#x145;" horiz-adv-x="529" 
d="M192 -213l37 152h101l-37 -152h-101zM42 0v522h8l104 -167v-355h-112zM42 628v72h93l352 -565v-135h-54zM375 408v292h112v-459h-8z" />
    <glyph glyph-name="uni0146" unicode="&#x146;" 
d="M166 -213l37 152h101l-37 -152h-101zM38 0v404c0 32 14.667 63.667 44 95c36 37.333 80.667 56.333 134 57v-106c-30.667 0 -52 -12 -64 -36c-4 -8 -6 -15.667 -6 -23v-391h-108zM260 450v106c63.333 0 113 -25.667 149 -77c19.333 -26.667 29 -51.667 29 -75v-404h-108
v391c0 20 -9.66699 36 -29 48c-12 7.33301 -25.667 11 -41 11z" />
    <glyph glyph-name="Ncaron" unicode="&#x147;" horiz-adv-x="529" 
d="M161 918h68l35 -73l36 73h69l-77 -152h-56zM42 0v522h8l104 -167v-355h-112zM42 628v72h93l352 -565v-135h-54zM375 408v292h112v-459h-8z" />
    <glyph glyph-name="ncaron" unicode="&#x148;" 
d="M134 769h68l35 -73l36 73h69l-77 -152h-56zM38 0v404c0 32 14.667 63.667 44 95c36 37.333 80.667 56.333 134 57v-106c-30.667 0 -52 -12 -64 -36c-4 -8 -6 -15.667 -6 -23v-391h-108zM260 450v106c63.333 0 113 -25.667 149 -77c19.333 -26.667 29 -51.667 29 -75v-404
h-108v391c0 20 -9.66699 36 -29 48c-12 7.33301 -25.667 11 -41 11z" />
    <glyph glyph-name="Omacron" unicode="&#x14c;" horiz-adv-x="525" 
d="M104 766v66h316v-66h-316zM39 195v329.001c0 35.333 15 71.333 45 108c40 48 90.667 72.333 152 73v-111c-34.667 -0.666992 -60.667 -19.334 -78 -56.001c-5.33301 -12 -8 -22 -8 -30v-313c0 -36 18.667 -62.667 56 -80c11.333 -5.33301 21 -8 29 -8v-112
c-38 0 -76 13.667 -114 41c-54 40 -81.333 93 -82 159zM290 -4.99902l0.00195312 111.999c17.333 0 35.333 8 54 24c20 18 30.333 39.333 31 64v313c0 20 -8.66699 39.333 -26 58c-16.667 18 -36.334 27.333 -59.001 28v111c67.333 0 121.333 -29 162 -87
c23.333 -33.333 35 -64.666 35 -93.999v-329c0 -74 -33 -130.667 -99 -170c-34.667 -20 -67.334 -30 -98.001 -30z" />
    <glyph glyph-name="omacron" unicode="&#x14d;" horiz-adv-x="466" 
d="M78 614v66h316v-66h-316zM38 151l-0.000976562 252.998c0 32.667 14.667 64.334 44 95.001c34.667 36.667 78.334 55 131.001 55v-103c-34.667 0 -57 -14.333 -67 -43c-2 -6 -3 -12 -3 -18v-225c0 -25.333 11.667 -43.666 35 -54.999c10.667 -5.33301 22.667 -8 36 -8
v-103c-64.667 0 -114.667 26 -150 78c-17.333 26 -26 50.667 -26 74zM257.999 -1.00195l0.000976562 103.001c32 0 53 13.667 63 41c2.66699 7.33301 4 14 4 20v227c0 28 -13 46.667 -39 56c-8.66699 3.33301 -18.334 5 -29.001 5v103c62.667 0 111 -25.333 145 -76
c17.333 -26 26 -50.667 26 -74v-253c0 -32.667 -14 -64.667 -42 -96c-34 -36.667 -76.667 -55.334 -128 -56.001z" />
    <glyph glyph-name="Ohungarumlaut" unicode="&#x150;" horiz-adv-x="525" 
d="M304 766l37 152h102l-66 -152h-73zM165 766l37 152h102l-66 -152h-73zM39 195v329.001c0 35.333 15 71.333 45 108c40 48 90.667 72.333 152 73v-111c-34.667 -0.666992 -60.667 -19.334 -78 -56.001c-5.33301 -12 -8 -22 -8 -30v-313c0 -36 18.667 -62.667 56 -80
c11.333 -5.33301 21 -8 29 -8v-112c-38 0 -76 13.667 -114 41c-54 40 -81.333 93 -82 159zM290 -4.99902l0.00195312 111.999c17.333 0 35.333 8 54 24c20 18 30.333 39.333 31 64v313c0 20 -8.66699 39.333 -26 58c-16.667 18 -36.334 27.333 -59.001 28v111
c67.333 0 121.333 -29 162 -87c23.333 -33.333 35 -64.666 35 -93.999v-329c0 -74 -33 -130.667 -99 -170c-34.667 -20 -67.334 -30 -98.001 -30z" />
    <glyph glyph-name="ohungarumlaut" unicode="&#x151;" horiz-adv-x="466" 
d="M277 614l37 152h102l-66 -152h-73zM138 614l37 152h102l-66 -152h-73zM38 151l-0.000976562 252.998c0 32.667 14.667 64.334 44 95.001c34.667 36.667 78.334 55 131.001 55v-103c-34.667 0 -57 -14.333 -67 -43c-2 -6 -3 -12 -3 -18v-225
c0 -25.333 11.667 -43.666 35 -54.999c10.667 -5.33301 22.667 -8 36 -8v-103c-64.667 0 -114.667 26 -150 78c-17.333 26 -26 50.667 -26 74zM257.999 -1.00195l0.000976562 103.001c32 0 53 13.667 63 41c2.66699 7.33301 4 14 4 20v227c0 28 -13 46.667 -39 56
c-8.66699 3.33301 -18.334 5 -29.001 5v103c62.667 0 111 -25.333 145 -76c17.333 -26 26 -50.667 26 -74v-253c0 -32.667 -14 -64.667 -42 -96c-34 -36.667 -76.667 -55.334 -128 -56.001z" />
    <glyph glyph-name="OE" unicode="&#x152;" horiz-adv-x="636" 
d="M11 199l-0.000976562 315.001c0 60.667 25.333 108.667 76 144c40 28 88.667 42 146 42v-111c-60.667 -0.666992 -96.667 -21.334 -108 -62.001c-2 -8 -3 -16 -3 -24v-304c0.666992 -58 37.334 -87 110.001 -87v-112c-74 -0 -131.333 21.333 -172 64
c-32.667 34.667 -49 79.667 -49 135zM284.999 0.000976562v112h49v477h-49v111h413v-110h-252v-186h158v-112h-158v-181h252v-111h-413z" />
    <glyph glyph-name="oe" unicode="&#x153;" horiz-adv-x="696" 
d="M346 47c35.333 -31.333 80.333 -47.002 135 -47.002c84.667 0 142.334 28.333 173.001 85c5.33301 11.333 9.66602 23 12.999 35l-81 30c-11.333 -41.333 -47 -62.333 -107 -63c-36 0 -62.333 11.333 -79 34c-7.33301 10.667 -11 21.667 -11 33v65h277v159
c0 40.667 -21 75.667 -63 105c-32 22 -64.667 33 -98 33v-92c25.333 0 45 -10.333 59 -31c6.66699 -10 10 -20.333 10 -31v-49h-185v49c0.666992 22.667 11.667 40 33 52c11.333 6 23 9 35 9v93c-45.333 -0.666992 -82.666 -16 -111.999 -46c-30 30.667 -67.667 46 -113 46
v-95c35.333 0 56.666 -14.333 63.999 -43c1.33301 -5.33301 2 -10.666 2 -15.999v-211c0 -23.333 -10.667 -40.666 -32 -51.999c-10 -5.33301 -21.333 -8 -34 -8v-92c46.667 0.666992 84.667 16.667 114 48zM27 140.998c0 -28.667 12.999 -57.666 38.999 -86.999
c32.667 -36 74.334 -54.333 125.001 -55v92c-31.333 0 -52.333 13.333 -63 40c-2.66699 7.33301 -4 14.666 -4 21.999v210c0 27.333 13 45.333 39 54c8.66699 2.66699 18 4 28 4v95c-61.333 0 -108.333 -24.667 -141 -74c-15.333 -23.333 -23 -45.333 -23 -66v-235z" />
    <glyph glyph-name="Racute" unicode="&#x154;" horiz-adv-x="506" 
d="M190 766l37 152h102l-66 -152h-73zM42 0v700h112v-700h-112zM205 295v100.001h56c58 0 90 27.667 96 83c0.666992 6 1 11.667 1 17c0 56 -25.333 89 -76 99c-9.33301 1.33301 -19 2 -29 2h-48v104h61c88.667 -2 148.334 -35 179.001 -99
c12.667 -26.667 19 -57.334 19 -92.001c-0.666992 -74 -23.334 -127.667 -68.001 -161c34.667 -20 56.667 -55.667 66 -107c1.33301 -8.66699 2.33301 -16.667 3 -24l17 -217h-104l-15 178c-5.33301 56 -20.333 91.333 -45 106c-14.667 7.33301 -33 11 -55 11h-58z" />
    <glyph glyph-name="racute" unicode="&#x155;" horiz-adv-x="324" 
d="M157 614l37 152h102l-66 -152h-73zM42 0l-0.000976562 554.001h108v-69c18.667 29.333 46.667 50.333 84 63c17.333 6 34.333 9 51 9h26l-25 -105c-39.333 -0.666992 -73.666 -19.667 -102.999 -57c-22 -28.667 -33 -58.334 -33 -89.001v-306h-108z" />
    <glyph glyph-name="uni0156" unicode="&#x156;" horiz-adv-x="506" 
d="M188 -213l37 152h101l-37 -152h-101zM42 0v700h112v-700h-112zM205 295v100.001h56c58 0 90 27.667 96 83c0.666992 6 1 11.667 1 17c0 56 -25.333 89 -76 99c-9.33301 1.33301 -19 2 -29 2h-48v104h61c88.667 -2 148.334 -35 179.001 -99
c12.667 -26.667 19 -57.334 19 -92.001c-0.666992 -74 -23.334 -127.667 -68.001 -161c34.667 -20 56.667 -55.667 66 -107c1.33301 -8.66699 2.33301 -16.667 3 -24l17 -217h-104l-15 178c-5.33301 56 -20.333 91.333 -45 106c-14.667 7.33301 -33 11 -55 11h-58z" />
    <glyph glyph-name="uni0157" unicode="&#x157;" horiz-adv-x="324" 
d="M8 -213l37 152h101l-37 -152h-101zM42 0l-0.000976562 554.001h108v-69c18.667 29.333 46.667 50.333 84 63c17.333 6 34.333 9 51 9h26l-25 -105c-39.333 -0.666992 -73.666 -19.667 -102.999 -57c-22 -28.667 -33 -58.334 -33 -89.001v-306h-108z" />
    <glyph glyph-name="Rcaron" unicode="&#x158;" horiz-adv-x="506" 
d="M110 918h68l35 -73l36 73h69l-77 -152h-56zM42 0v700h112v-700h-112zM205 295v100.001h56c58 0 90 27.667 96 83c0.666992 6 1 11.667 1 17c0 56 -25.333 89 -76 99c-9.33301 1.33301 -19 2 -29 2h-48v104h61c88.667 -2 148.334 -35 179.001 -99
c12.667 -26.667 19 -57.334 19 -92.001c-0.666992 -74 -23.334 -127.667 -68.001 -161c34.667 -20 56.667 -55.667 66 -107c1.33301 -8.66699 2.33301 -16.667 3 -24l17 -217h-104l-15 178c-5.33301 56 -20.333 91.333 -45 106c-14.667 7.33301 -33 11 -55 11h-58z" />
    <glyph glyph-name="rcaron" unicode="&#x159;" horiz-adv-x="324" 
d="M73 766h68l35 -73l36 73h69l-77 -152h-56zM42 0l-0.000976562 554.001h108v-69c18.667 29.333 46.667 50.333 84 63c17.333 6 34.333 9 51 9h26l-25 -105c-39.333 -0.666992 -73.666 -19.667 -102.999 -57c-22 -28.667 -33 -58.334 -33 -89.001v-306h-108z" />
    <glyph glyph-name="Sacute" unicode="&#x15a;" horiz-adv-x="487" 
d="M194 766l37 152h102l-66 -152h-73zM23 158l101.001 36c4 -43.333 27.667 -73.333 71 -90l12 -4v-103c-57.333 0 -106 24.667 -146 74c-24.667 31.333 -37.334 60.333 -38.001 87zM31.001 510c0 72.667 31.335 127.332 94.002 163.999
c29.333 16.667 56.666 25.334 81.999 26.001v-105c-20.667 -3.33301 -38.667 -15.333 -54 -36c-10 -14.667 -15 -30.334 -15 -47.001c0 -34.667 25 -62.334 75 -83.001c12 -4.66699 30.667 -11 56 -19c32 -10 54.333 -18 67 -24c58 -28.667 95.667 -62.667 113 -102
c10 -23.333 15 -49 15 -77c0 -58.667 -22.667 -109.667 -68 -153c-40.667 -38 -86.334 -57 -137.001 -57v103c25.333 1.33301 48 13.333 68 36c16.667 20 25 43 25 69c0 40.667 -28.333 71.334 -85 92.001c-12 4.66699 -30.667 10.667 -56 18c-28 8 -47 14.333 -57 19
c-56 24.667 -92 56.334 -108 95.001c-10 23.333 -15 50.333 -15 81zM259.003 594.998v104.999c57.333 0 105.333 -24.667 144 -74c20.667 -26.667 31.667 -51 33 -73l-103 -34c-2.66699 20 -10.167 36.333 -22.5 49s-23.833 20.334 -34.5 23.001z" />
    <glyph glyph-name="sacute" unicode="&#x15b;" horiz-adv-x="443" 
d="M179 615l37 152h102l-66 -152h-73zM20 146l99 18c0 -26 13.667 -45.667 41 -59c12 -6 23.667 -9 35 -9v-101c-70.667 0 -121.667 25 -153 75c-14.667 24 -22 49.333 -22 76zM25 400c0 61.333 28.335 107.001 85.002 137.001c27.333 14 54.666 21 81.999 21v-99
c-32 0 -53.333 -12.667 -64 -38c-2.66699 -7.33301 -4 -14.333 -4 -21c0 -20 17.333 -37.667 52 -53c29.333 -12 74 -25 134 -39c46 -9.33301 78.667 -33 98 -71c10 -20.667 15 -43.334 15 -68.001c0 -66 -26.667 -114.667 -80 -146c-30.667 -18.667 -65.667 -28 -105 -28
v100c26.667 0 48.667 9 66 27c10.667 12.667 16 26.667 16 42c0 23.333 -26 43 -78 59c-10.667 3.33301 -27.334 8 -50.001 14c-34 8 -58 14.667 -72 20c-49.333 22 -79.333 54.333 -90 97c-3.33301 14 -5 29.333 -5 46zM237.002 459.001v99c58.667 0 106 -21.667 142 -65
c22.667 -28 34 -57.333 34 -88l-99 -17c0 34 -18.333 56.333 -55 67c-8 2.66699 -15.333 4 -22 4z" />
    <glyph glyph-name="uni015E" unicode="&#x15e;" horiz-adv-x="487" 
d="M112 -191v74.999c42.667 0 69 16.333 79 49c2.66699 8.66699 4 17.667 4 27h77c0 -55.333 -20.333 -96.666 -61 -123.999c-26.667 -18 -59.667 -27 -99 -27zM23 157.999l101.001 36c4 -43.333 27.667 -73.333 71 -90l12 -4v-103c-57.333 0 -106 24.667 -146 74
c-24.667 31.333 -37.334 60.333 -38.001 87zM31.001 509.999c0 72.667 31.335 127.332 94.002 163.999c29.333 16.667 56.666 25.334 81.999 26.001v-105c-20.667 -3.33301 -38.667 -15.333 -54 -36c-10 -14.667 -15 -30.334 -15 -47.001c0 -34.667 25 -62.334 75 -83.001
c12 -4.66699 30.667 -11 56 -19c32 -10 54.333 -18 67 -24c58 -28.667 95.667 -62.667 113 -102c10 -23.333 15 -49 15 -77c0 -58.667 -22.667 -109.667 -68 -153c-40.667 -38 -86.334 -57 -137.001 -57v103c25.333 1.33301 48 13.333 68 36c16.667 20 25 43 25 69
c0 40.667 -28.333 71.334 -85 92.001c-12 4.66699 -30.667 10.667 -56 18c-28 8 -47 14.333 -57 19c-56 24.667 -92 56.334 -108 95.001c-10 23.333 -15 50.333 -15 81zM259.003 594.997v104.999c57.333 0 105.333 -24.667 144 -74c20.667 -26.667 31.667 -51 33 -73
l-103 -34c-2.66699 20 -10.167 36.333 -22.5 49s-23.833 20.334 -34.5 23.001z" />
    <glyph glyph-name="uni015F" unicode="&#x15f;" horiz-adv-x="443" 
d="M125 -191v74.999c42.667 0 69 16.333 79 49c2.66699 8.66699 4 17.667 4 27h77c0 -55.333 -20.333 -96.666 -61 -123.999c-26.667 -18 -59.667 -27 -99 -27zM20 145.999l99 18c0 -26 13.667 -45.667 41 -59c12 -6 23.667 -9 35 -9v-101c-70.667 0 -121.667 25 -153 75
c-14.667 24 -22 49.333 -22 76zM25 399.999c0 61.333 28.335 107.001 85.002 137.001c27.333 14 54.666 21 81.999 21v-99c-32 0 -53.333 -12.667 -64 -38c-2.66699 -7.33301 -4 -14.333 -4 -21c0 -20 17.333 -37.667 52 -53c29.333 -12 74 -25 134 -39
c46 -9.33301 78.667 -33 98 -71c10 -20.667 15 -43.334 15 -68.001c0 -66 -26.667 -114.667 -80 -146c-30.667 -18.667 -65.667 -28 -105 -28v100c26.667 0 48.667 9 66 27c10.667 12.667 16 26.667 16 42c0 23.333 -26 43 -78 59c-10.667 3.33301 -27.334 8 -50.001 14
c-34 8 -58 14.667 -72 20c-49.333 22 -79.333 54.333 -90 97c-3.33301 14 -5 29.333 -5 46zM237.002 459v99c58.667 0 106 -21.667 142 -65c22.667 -28 34 -57.333 34 -88l-99 -17c0 34 -18.333 56.333 -55 67c-8 2.66699 -15.333 4 -22 4z" />
    <glyph glyph-name="Scaron" unicode="&#x160;" horiz-adv-x="487" 
d="M118 918h68l35 -73l36 73h69l-77 -152h-56zM16 158l101.001 36c4 -43.333 27.667 -73.333 71 -90l12 -4v-103c-57.333 0 -106 24.667 -146 74c-24.667 31.333 -37.334 60.333 -38.001 87zM24.001 510c0 72.667 31.335 127.332 94.002 163.999
c29.333 16.667 56.666 25.334 81.999 26.001v-105c-20.667 -3.33301 -38.667 -15.333 -54 -36c-10 -14.667 -15 -30.334 -15 -47.001c0 -34.667 25 -62.334 75 -83.001c12 -4.66699 30.667 -11 56 -19c32 -10 54.333 -18 67 -24c58 -28.667 95.667 -62.667 113 -102
c10 -23.333 15 -49 15 -77c0 -58.667 -22.667 -109.667 -68 -153c-40.667 -38 -86.334 -57 -137.001 -57v103c25.333 1.33301 48 13.333 68 36c16.667 20 25 43 25 69c0 40.667 -28.333 71.334 -85 92.001c-12 4.66699 -30.667 10.667 -56 18c-28 8 -47 14.333 -57 19
c-56 24.667 -92 56.334 -108 95.001c-10 23.333 -15 50.333 -15 81zM252.003 594.998l-0.000976562 104.999c57.333 0 105.333 -24.667 144 -74c20.667 -26.667 31.667 -51 33 -73l-103 -34c-2.66699 20 -10.167 36.333 -22.5 49s-24.166 20.334 -35.499 23.001z" />
    <glyph glyph-name="scaron" unicode="&#x161;" horiz-adv-x="443" 
d="M112 767h68l35 -73l36 73h69l-77 -152h-56zM21 146l99 18c0 -26 13.667 -45.667 41 -59c12 -6 23.667 -9 35 -9v-101c-70.667 0 -121.667 25 -153 75c-14.667 24 -22 49.333 -22 76zM26 400c0 61.333 28.335 107.001 85.002 137.001c27.333 14 54.666 21 81.999 21v-99
c-32 0 -53.333 -12.667 -64 -38c-2.66699 -7.33301 -4 -14.333 -4 -21c0 -20 17.333 -37.667 52 -53c29.333 -12 74 -25 134 -39c46 -9.33301 78.667 -33 98 -71c10 -20.667 15 -43.334 15 -68.001c0 -66 -26.667 -114.667 -80 -146c-30.667 -18.667 -65.667 -28 -105 -28
v100c26.667 0 48.667 9 66 27c10.667 12.667 16 26.667 16 42c0 23.333 -26 43 -78 59c-10.667 3.33301 -27.334 8 -50.001 14c-34 8 -58 14.667 -72 20c-49.333 22 -79.333 54.333 -90 97c-3.33301 14 -5 29.333 -5 46zM238.002 459.001v99c58.667 0 106 -21.667 142 -65
c22.667 -28 34 -57.333 34 -88l-99 -17c0 34 -18.333 56.333 -55 67c-8 2.66699 -15.333 4 -22 4z" />
    <glyph glyph-name="uni0162" unicode="&#x162;" horiz-adv-x="466" 
d="M110 -191v74.999c42.667 0 69 16.333 79 49c2.66699 8.66699 4 17.667 4 27h77c0 -55.333 -20.333 -96.666 -61 -123.999c-26.667 -18 -59.667 -27 -99 -27zM16 590.999v109h433v-109h-160v-591h-112v591h-161z" />
    <glyph glyph-name="uni0163" unicode="&#x163;" horiz-adv-x="303" 
d="M135 -190v74.999c42.667 0 69 16.333 79 49c2.66699 8.66699 4 17.667 4 27h77c0 -55.333 -20.333 -96.666 -61 -123.999c-26.667 -18 -59.667 -27 -99 -27zM16 447.999l0.000976562 103h68v160h106v-160h66v-104h-66l1 -277c1.33301 -40 21.333 -60.333 60 -61h21
l24 -109h-47c-84.667 0 -136.334 32.333 -155.001 97c-6.66699 23.333 -10 51 -10 83v268h-68z" />
    <glyph glyph-name="Tcaron" unicode="&#x164;" horiz-adv-x="466" 
d="M128 918h68l35 -73l36 73h69l-77 -152h-56zM16 591v109h433v-109h-160v-591h-112v591h-161z" />
    <glyph glyph-name="tcaron" unicode="&#x165;" horiz-adv-x="458" 
d="M235 591l37 152h101l-37 -152h-101zM16 448l0.000976562 103h68v160h106v-160h66v-104h-66l1 -277c1.33301 -40 21.333 -60.333 60 -61h21l24 -109h-47c-84.667 -0 -136.334 32.333 -155.001 97c-6.66699 23.333 -10 51 -10 83v268h-68z" />
    <glyph glyph-name="Umacron" unicode="&#x16a;" horiz-adv-x="516" 
d="M98 766v66h316v-66h-316zM34 193l0.000976562 507h112v-507c0.666992 -37.333 21 -64 61 -80c10 -4 18.333 -6 25 -6v-112c-38 0 -76.333 13.333 -115 40c-54.667 39.333 -82.334 92 -83.001 158zM284.001 -5l-0.000976562 112c17.333 0 35.333 7.33301 54 22
c20.667 17.333 31.334 38.666 32.001 63.999v507h111v-507c0 -75.333 -33.333 -131.666 -100 -168.999c-34 -19.333 -66.333 -29 -97 -29z" />
    <glyph glyph-name="umacron" unicode="&#x16b;" 
d="M80 614v66h316v-66h-316zM38 147v406.999h108v-395c0 -21.333 10.667 -37.666 32 -48.999c11.333 -6 24 -9 38 -9v-106c-64.667 0 -115 25.333 -151 76c-18 26 -27 51.333 -27 76zM260 -5.00098v106.001c33.333 0 55.333 13 66 39c2.66699 6.66699 4 13 4 19v395h108
v-407c0 -31.333 -14 -62.333 -42 -93c-36.667 -38.667 -82 -58.334 -136 -59.001z" />
    <glyph glyph-name="Uring" unicode="&#x16e;" horiz-adv-x="516" 
d="M168 862c0 32 14 57 42 75c14.667 8.66699 30 13 46 13c32 0 57 -14 75 -42c8.66699 -14.667 13 -30 13 -46c0 -32 -14 -57 -42 -75c-14.667 -8.66699 -30 -13 -46 -13c-32 0 -57 14 -75 42c-8.66699 14.667 -13 30 -13 46zM224 862c0 -16 7.33301 -26.333 22 -31
c4 -0.666992 7.33301 -1 10 -1c16 0 26.333 7.33301 31 22c0.666992 4 1 7.33301 1 10c0 16 -7.33301 26.333 -22 31c-4 0.666992 -7.33301 1 -10 1c-16 0 -26.333 -7.33301 -31 -22c-0.666992 -4 -1 -7.33301 -1 -10zM34 193l0.000976562 507h112v-507
c0.666992 -37.333 21 -64 61 -80c10 -4 18.333 -6 25 -6v-112c-38 0 -76.333 13.333 -115 40c-54.667 39.333 -82.334 92 -83.001 158zM284.001 -5l-0.000976562 112c17.333 0 35.333 7.33301 54 22c20.667 17.333 31.334 38.666 32.001 63.999v507h111v-507
c0 -75.333 -33.333 -131.666 -100 -168.999c-34 -19.333 -66.333 -29 -97 -29z" />
    <glyph glyph-name="uring" unicode="&#x16f;" 
d="M150 710c0 32 14 57 42 75c14.667 8.66699 30 13 46 13c32 0 57 -14 75 -42c8.66699 -14.667 13 -30 13 -46c0 -32 -14 -57 -42 -75c-14.667 -8.66699 -30 -13 -46 -13c-32 0 -57 14 -75 42c-8.66699 14.667 -13 30 -13 46zM206 710c0 -16 7.33301 -26.333 22 -31
c4 -0.666992 7.33301 -1 10 -1c16 0 26.333 7.33301 31 22c0.666992 4 1 7.33301 1 10c0 16 -7.33301 26.333 -22 31c-4 0.666992 -7.33301 1 -10 1c-16 0 -26.333 -7.33301 -31 -22c-0.666992 -4 -1 -7.33301 -1 -10zM38 147v406.999h108v-395
c0 -21.333 10.667 -37.666 32 -48.999c11.333 -6 24 -9 38 -9v-106c-64.667 0 -115 25.333 -151 76c-18 26 -27 51.333 -27 76zM260 -5.00098v106.001c33.333 0 55.333 13 66 39c2.66699 6.66699 4 13 4 19v395h108v-407c0 -31.333 -14 -62.333 -42 -93
c-36.667 -38.667 -82 -58.334 -136 -59.001z" />
    <glyph glyph-name="Uhungarumlaut" unicode="&#x170;" horiz-adv-x="516" 
d="M306 766l37 152h102l-66 -152h-73zM167 766l37 152h102l-66 -152h-73zM34 193l0.000976562 507h112v-507c0.666992 -37.333 21 -64 61 -80c10 -4 18.333 -6 25 -6v-112c-38 0 -76.333 13.333 -115 40c-54.667 39.333 -82.334 92 -83.001 158zM284.001 -5
l-0.000976562 112c17.333 0 35.333 7.33301 54 22c20.667 17.333 31.334 38.666 32.001 63.999v507h111v-507c0 -75.333 -33.333 -131.666 -100 -168.999c-34 -19.333 -66.333 -29 -97 -29z" />
    <glyph glyph-name="uhungarumlaut" unicode="&#x171;" 
d="M277 614l37 152h102l-66 -152h-73zM138 614l37 152h102l-66 -152h-73zM38 147v406.999h108v-395c0 -21.333 10.667 -37.666 32 -48.999c11.333 -6 24 -9 38 -9v-106c-64.667 0 -115 25.333 -151 76c-18 26 -27 51.333 -27 76zM260 -5.00098v106.001
c33.333 0 55.333 13 66 39c2.66699 6.66699 4 13 4 19v395h108v-407c0 -31.333 -14 -62.333 -42 -93c-36.667 -38.667 -82 -58.334 -136 -59.001z" />
    <glyph glyph-name="Uogonek" unicode="&#x172;" horiz-adv-x="516" 
d="M378 -191c-74.667 0 -124 29.333 -148 88c-8 20 -12 41 -12 63h77c0 -41.333 20 -66 60 -74c8 -1.33301 15.667 -2 23 -2v-75zM34 193l0.000976562 507h112v-507c0.666992 -37.333 21 -64 61 -80c10 -4 18.333 -6 25 -6v-112c-38 0 -76.333 13.333 -115 40
c-54.667 39.333 -82.334 92 -83.001 158zM284.001 -5l-0.000976562 112c17.333 0 35.333 7.33301 54 22c20.667 17.333 31.334 38.666 32.001 63.999v507h111v-507c0 -75.333 -33.333 -131.666 -100 -168.999c-34 -19.333 -66.333 -29 -97 -29z" />
    <glyph glyph-name="uogonek" unicode="&#x173;" 
d="M361 -191c-74.667 0 -124 29.333 -148 88c-8 20 -12 41 -12 63h77c0 -41.333 20 -66 60 -74c8 -1.33301 15.667 -2 23 -2v-75zM38 147v406.999h108v-395c0 -21.333 10.667 -37.666 32 -48.999c11.333 -6 24 -9 38 -9v-106c-64.667 0 -115 25.333 -151 76
c-18 26 -27 51.333 -27 76zM260 -5.00098v106.001c33.333 0 55.333 13 66 39c2.66699 6.66699 4 13 4 19v395h108v-407c0 -31.333 -14 -62.333 -42 -93c-36.667 -38.667 -82 -58.334 -136 -59.001z" />
    <glyph glyph-name="Ydieresis" unicode="&#x178;" horiz-adv-x="461" 
d="M89 827c0 25.333 11.333 43.667 34 55c8.66699 4.66699 17.667 7 27 7c26 0 44.333 -12 55 -36c4 -8.66699 6 -17.334 6 -26.001c0 -26 -11.333 -44.333 -34 -55c-8.66699 -4 -17.667 -6 -27 -6c-26 0 -44.333 11.667 -55 35c-4 8.66699 -6 17.334 -6 26.001z
M239 827.001c0 25.333 11.333 43.667 34 55c8.66699 4.66699 17.667 7 27 7c26 0 44.333 -12 55 -36c4 -8.66699 6 -17.334 6 -26.001c0 -26 -11.333 -44.333 -34 -55c-8.66699 -4 -17.667 -6 -27 -6c-26 0 -44.333 11.667 -55 35c-4 8.66699 -6 17.334 -6 26.001z
M17 700.002h116l146 -447v-253h-115v252zM256 505.002l73 195h115l-128 -375h-8z" />
    <glyph glyph-name="Zacute" unicode="&#x179;" horiz-adv-x="432" 
d="M177 766l37 152h102l-66 -152h-73zM33 0v110l243 480h-243v110h366v-107l-243 -480h243v-113h-366z" />
    <glyph glyph-name="zacute" unicode="&#x17a;" horiz-adv-x="377" 
d="M152 614l37 152h102l-66 -152h-73zM30 0v104l197 346h-197v104h317v-102l-193 -348h193v-104h-317z" />
    <glyph glyph-name="Zdotaccent" unicode="&#x17b;" horiz-adv-x="432" 
d="M151 828c0 26.667 11.335 45.667 34.002 57c9.33301 4 18.666 6 27.999 6c26 0 44.667 -11.667 56 -35c4 -9.33301 6 -18.666 6 -27.999c0 -26.667 -11.667 -45.334 -35 -56.001c-8.66699 -4 -17.667 -6 -27 -6c-26.667 0 -45.334 11.667 -56.001 35
c-4 8.66699 -6 17.667 -6 27zM33.002 0v110l243 480h-243v110h366v-107l-243 -480h243v-113h-366z" />
    <glyph glyph-name="zdotaccent" unicode="&#x17c;" horiz-adv-x="377" 
d="M127 676c0 26.667 11.335 45.667 34.002 57c9.33301 4 18.666 6 27.999 6c26 0 44.667 -11.667 56 -35c4 -9.33301 6 -18.666 6 -27.999c0 -26.667 -11.667 -45.334 -35 -56.001c-8.66699 -4 -17.667 -6 -27 -6c-26.667 0 -45.334 11.667 -56.001 35
c-4 8.66699 -6 17.667 -6 27zM30.002 0v104l197 346h-197v104h317v-102l-193 -348h193v-104h-317z" />
    <glyph glyph-name="Zcaron" unicode="&#x17d;" horiz-adv-x="432" 
d="M109 918h68l35 -73l36 73h69l-77 -152h-56zM33 0v110l243 480h-243v110h366v-107l-243 -480h243v-113h-366z" />
    <glyph glyph-name="zcaron" unicode="&#x17e;" horiz-adv-x="377" 
d="M85 766h68l35 -73l36 73h69l-77 -152h-56zM30 0v104l197 346h-197v104h317v-102l-193 -348h193v-104h-317z" />
    <glyph glyph-name="florin" unicode="&#x192;" horiz-adv-x="382" 
d="M26 -168l21.999 86h48c25.333 0 40 12 44 36c0.666992 3.33301 1 6 1 8v449h-63v93h63v43c0 34 13.667 66.667 41 98c30.667 33.333 68.334 50.333 113.001 51h61l-22 -94h-31c-36 -0.666992 -57 -15.667 -63 -45c-0.666992 -4 -1 -8 -1 -12v-42l66 1v-93h-66v-441
c0 -54.667 -20.333 -94 -61 -118c-23.333 -13.333 -51.333 -20 -84 -20h-68z" />
    <glyph glyph-name="uni0218" unicode="&#x218;" horiz-adv-x="487" 
d="M159 -216l37 152h101l-37 -152h-101zM23 158l101.001 36c4 -43.333 27.667 -73.333 71 -90l12 -4v-103c-57.333 0 -106 24.667 -146 74c-24.667 31.333 -37.334 60.333 -38.001 87zM31.001 510c0 72.667 31.335 127.332 94.002 163.999
c29.333 16.667 56.666 25.334 81.999 26.001v-105c-20.667 -3.33301 -38.667 -15.333 -54 -36c-10 -14.667 -15 -30.334 -15 -47.001c0 -34.667 25 -62.334 75 -83.001c12 -4.66699 30.667 -11 56 -19c32 -10 54.333 -18 67 -24c58 -28.667 95.667 -62.667 113 -102
c10 -23.333 15 -49 15 -77c0 -58.667 -22.667 -109.667 -68 -153c-40.667 -38 -86.334 -57 -137.001 -57v103c25.333 1.33301 48 13.333 68 36c16.667 20 25 43 25 69c0 40.667 -28.333 71.334 -85 92.001c-12 4.66699 -30.667 10.667 -56 18c-28 8 -47 14.333 -57 19
c-56 24.667 -92 56.334 -108 95.001c-10 23.333 -15 50.333 -15 81zM259.003 594.998v104.999c57.333 0 105.333 -24.667 144 -74c20.667 -26.667 31.667 -51 33 -73l-103 -34c-2.66699 20 -10.167 36.333 -22.5 49s-23.833 20.334 -34.5 23.001z" />
    <glyph glyph-name="uni0219" unicode="&#x219;" horiz-adv-x="443" 
d="M140 -218l37 152h101l-37 -152h-101zM20 146l99 18c0 -26 13.667 -45.667 41 -59c12 -6 23.667 -9 35 -9v-101c-70.667 0 -121.667 25 -153 75c-14.667 24 -22 49.333 -22 76zM25 400c0 61.333 28.335 107.001 85.002 137.001c27.333 14 54.666 21 81.999 21v-99
c-32 0 -53.333 -12.667 -64 -38c-2.66699 -7.33301 -4 -14.333 -4 -21c0 -20 17.333 -37.667 52 -53c29.333 -12 74 -25 134 -39c46 -9.33301 78.667 -33 98 -71c10 -20.667 15 -43.334 15 -68.001c0 -66 -26.667 -114.667 -80 -146c-30.667 -18.667 -65.667 -28 -105 -28
v100c26.667 0 48.667 9 66 27c10.667 12.667 16 26.667 16 42c0 23.333 -26 43 -78 59c-10.667 3.33301 -27.334 8 -50.001 14c-34 8 -58 14.667 -72 20c-49.333 22 -79.333 54.333 -90 97c-3.33301 14 -5 29.333 -5 46zM237.002 459.001v99c58.667 0 106 -21.667 142 -65
c22.667 -28 34 -57.333 34 -88l-99 -17c0 34 -18.333 56.333 -55 67c-8 2.66699 -15.333 4 -22 4z" />
    <glyph glyph-name="uni021A" unicode="&#x21a;" horiz-adv-x="466" 
d="M147 -213l37 152h101l-37 -152h-101zM16 591v109h433v-109h-160v-591h-112v591h-161z" />
    <glyph glyph-name="uni021B" unicode="&#x21b;" horiz-adv-x="303" 
d="M173 -213l37 152h101l-37 -152h-101zM16 448l0.000976562 103h68v160h106v-160h66v-104h-66l1 -277c1.33301 -40 21.333 -60.333 60 -61h21l24 -109h-47c-84.667 -0 -136.334 32.333 -155.001 97c-6.66699 23.333 -10 51 -10 83v268h-68z" />
    <glyph glyph-name="circumflex" unicode="&#x2c6;" horiz-adv-x="270" 
d="M31 514l75 152h56l77 -152h-69l-36 73l-35 -73h-68z" />
    <glyph glyph-name="caron" unicode="&#x2c7;" horiz-adv-x="270" 
d="M31 666h68l35 -73l36 73h69l-77 -152h-56z" />
    <glyph glyph-name="uni02C9" unicode="&#x2c9;" horiz-adv-x="416" 
d="M50 522v66h316v-66h-316z" />
    <glyph glyph-name="breve" unicode="&#x2d8;" horiz-adv-x="244" 
d="M35 526l55.001 0.000976562c0 -16 7.33301 -26.333 22 -31c4 -0.666992 7.33301 -1 10 -1c16 0 26.333 7.33301 31 22c0.666992 4 1 7.33301 1 10h55c0 -30.667 -13.333 -54.667 -40 -72c-14.667 -9.33301 -30.334 -14 -47.001 -14c-32.667 0 -57.667 14.333 -75 43
c-8 13.333 -12 27.666 -12 42.999z" />
    <glyph glyph-name="dotaccent" unicode="&#x2d9;" horiz-adv-x="202" 
d="M39 678c0 26.667 11.335 45.667 34.002 57c9.33301 4 18.666 6 27.999 6c26 0 44.667 -11.667 56 -35c4 -9.33301 6 -18.666 6 -27.999c0 -26.667 -11.667 -45.334 -35 -56.001c-8.66699 -4 -17.667 -6 -27 -6c-26.667 0 -45.334 11.667 -56.001 35
c-4 8.66699 -6 17.667 -6 27z" />
    <glyph glyph-name="ring" unicode="&#x2da;" horiz-adv-x="244" 
d="M34 526c0 32 14 57 42 75c14.667 8.66699 30 13 46 13c32 0 57 -14 75 -42c8.66699 -14.667 13 -30 13 -46c0 -32 -14 -57 -42 -75c-14.667 -8.66699 -30 -13 -46 -13c-32 0 -57 14 -75 42c-8.66699 14.667 -13 30 -13 46zM90 526c0 -16 7.33301 -26.333 22 -31
c4 -0.666992 7.33301 -1 10 -1c16 0 26.333 7.33301 31 22c0.666992 4 1 7.33301 1 10c0 16 -7.33301 26.333 -22 31c-4 0.666992 -7.33301 1 -10 1c-16 0 -26.333 -7.33301 -31 -22c-0.666992 -4 -1 -7.33301 -1 -10z" />
    <glyph glyph-name="ogonek" unicode="&#x2db;" horiz-adv-x="219" 
d="M106 -191c-74.667 0 -124 29.333 -148 88c-8 20 -12 41 -12 63h77c0 -41.333 20 -66 60 -74c8 -1.33301 15.667 -2 23 -2v-75z" />
    <glyph glyph-name="tilde" unicode="&#x2dc;" horiz-adv-x="333" 
d="M26 113l-0.000976562 84c26 14.667 49.333 22 70 22c16.667 0 40.334 -7.66699 71.001 -23c23.333 -12 43.333 -18 60 -18c23.333 0.666992 50 10 80 28v-83c-30.667 -18.667 -58.667 -28 -84 -28c-18 0 -42.667 7.66699 -74 23c-22.667 11.333 -41.667 17 -57 17
c-20.667 -0.666992 -42.667 -8 -66 -22z" />
    <glyph glyph-name="hungarumlaut" unicode="&#x2dd;" horiz-adv-x="329" 
d="M189 605l37 152h102l-66 -152h-73zM50 605l37 152h102l-66 -152h-73z" />
    <glyph glyph-name="pi" unicode="&#x3c0;" horiz-adv-x="501" 
d="M13 415v103.001h475v-103h-68v-273c5.33301 -34.667 23.333 -53 54 -55v-91c-66.667 0 -112 24.333 -136 73c-9.33301 19.333 -14 40.666 -14 63.999v282h-144v-416h-99v416h-68z" />
    <glyph glyph-name="tml_Anusvara" unicode="&#xb82;" horiz-adv-x="228" 
d="M73 851c0 -18.667 8.66699 -31.667 26 -39c5.33301 -2 10.666 -3 15.999 -3c18.667 0 31.667 8.66699 39 26c2 5.33301 3 10.666 3 15.999c0 18.667 -8.66699 31.667 -26 39c-5.33301 2 -10.666 3 -15.999 3c-18.667 0 -31.667 -8.66699 -39 -26
c-2 -5.33301 -3 -10.666 -3 -15.999zM31 851c0 24.667 12.667 46.667 38 66c16 12 31.333 18 46 18c24.667 0 46.667 -12.667 66 -38c12 -16 18 -31.333 18 -46c0 -24.667 -12.667 -46.667 -38 -66c-16 -12 -31.333 -18 -46 -18c-24.667 0 -46.667 12.667 -66 38
c-12 16 -18 31.333 -18 46z" />
    <glyph glyph-name="tml_Visarga" unicode="&#xb83;" horiz-adv-x="775" 
d="M149 223c38.667 0 68.666 -16.001 89.999 -48.001c11.333 -18 17 -37.333 17 -58c0 -38.667 -16.333 -68.334 -49 -89.001c-17.333 -11.333 -36.666 -17 -57.999 -17c-38 0 -67.333 15.667 -88 47c-11.333 18.667 -17 38.334 -17 59.001
c0 38.667 16.333 68.334 49 89.001c17.333 11.333 36 17 56 17zM383.999 600.999c38.667 0 68.334 -16.334 89.001 -49.001c10.667 -17.333 16 -36.333 16 -57c0 -39.333 -16 -69 -48 -89c-17.333 -11.333 -36.333 -17 -57 -17c-38.667 0 -68.334 16.333 -89.001 49
c-11.333 17.333 -17 36.333 -17 57c0 38.667 16.333 68.334 49 89.001c17.333 11.333 36.333 17 57 17zM620.999 226.998c38.667 0 68.334 -16.333 89.001 -49c11.333 -17.333 17 -36.333 17 -57c0 -38.667 -16.333 -68.334 -49 -89.001
c-17.333 -11.333 -36.333 -17 -57 -17c-38.667 0 -68.334 16.333 -89.001 49c-11.333 17.333 -17 36.333 -17 57c0 38.667 16.333 68.334 49 89.001c17.333 11.333 36.333 17 57 17z" />
    <glyph glyph-name="tml_A" unicode="&#xb85;" horiz-adv-x="1018" 
d="M376 459l-98.998 0.000976562l8 -38c20 -67.333 61.667 -109 125 -125c17.333 -4.66699 36 -7 56 -7c56 0 101.667 18 137 54c19.333 20.667 30 42.667 32 66l-69 73c0 -46.667 -20.667 -76.334 -62 -89.001c-12.667 -4 -25.334 -6 -38.001 -6c-36 0 -62.333 13 -79 39
c-6.66699 10 -10.334 21 -11.001 33zM277.002 515.001h101.001c0 14.667 11 30.334 33 47.001c31.333 23.333 71.666 35 120.999 35c116 -1.33301 174.333 -68.333 175 -201v-137h-250v-97h250v-94c0 -48.667 -20 -79.334 -60 -92.001c-10.667 -3.33301 -22 -5 -34 -5h-154
v-98h162c68.667 0 120 27.333 154 82c20.667 33.333 31 70.666 31 111.999v95h61v-269h98v685h-98v-319h-62v134c0 130 -42 219 -126 267c-41.333 23.333 -90.333 35 -147 35c-92.667 0 -163.667 -26.667 -213 -80c-28 -31.333 -42 -64.666 -42 -99.999zM53.0029 72.001
c0 -68.667 25.998 -122.001 77.998 -160.001c36.667 -26 78.334 -39 125.001 -39h148v98h-141c-41.333 0 -72.333 14 -93 42c-12.667 16.667 -19 36.334 -19 59.001c0 44.667 23 73 69 85c10.667 2.66699 20.334 4 29.001 4h154v99h-136c-86 0 -147.667 -27.667 -185 -83
c-19.333 -30 -29 -65 -29 -105z" />
    <glyph glyph-name="tml_Aa" unicode="&#xb86;" horiz-adv-x="1242" 
d="M376 459l-98.998 0.000976562l8 -38c20 -67.333 61.667 -109 125 -125c17.333 -4.66699 36 -7 56 -7c56 0 101.667 18 137 54c19.333 20.667 30 42.667 32 66l-69 73c0 -46.667 -20.667 -76.334 -62 -89.001c-12.667 -4 -25.334 -6 -38.001 -6c-36 0 -62.333 13 -79 39
c-6.66699 10 -10.334 21 -11.001 33zM277.002 515.001h101.001c0 14.667 11 30.334 33 47.001c31.333 23.333 71.666 35 120.999 35c116 -1.33301 174.333 -68.333 175 -201v-137h-250v-97h250v-94c0 -48.667 -20 -79.334 -60 -92.001c-10.667 -3.33301 -22 -5 -34 -5h-154
v-98h162c68.667 0 120 27.333 154 82c20.667 33.333 31 70.666 31 111.999v95h61v-269h98v685h-98v-319h-62v134c0 130 -42 219 -126 267c-41.333 23.333 -90.333 35 -147 35c-92.667 0 -163.667 -26.667 -213 -80c-28 -31.333 -42 -64.666 -42 -99.999zM53.0029 72.001
c0 -68.667 25.998 -122.001 77.998 -160.001c36.667 -26 78.334 -39 125.001 -39h148v98h-141c-41.333 0 -72.333 14 -93 42c-12.667 16.667 -19 36.334 -19 59.001c0 44.667 23 73 69 85c10.667 2.66699 20.334 4 29.001 4h154v99h-136c-86 0 -147.667 -27.667 -185 -83
c-19.333 -30 -29 -65 -29 -105zM683.001 -148l0.000976562 -98h287c119.333 0 188.666 42.333 207.999 127c4 19.333 6 41 6 65v75c0 88 -29.667 141.333 -89 160c-20.667 6 -46.667 9 -78 9v-98c32 0 51.667 -5.66699 59 -17c6.66699 -10.667 10 -28.667 10 -54v-77
c0 -45.333 -13.667 -73.333 -41 -84c-13.333 -4.66699 -31.333 -7 -54 -7z" />
    <glyph glyph-name="tml_I" unicode="&#xb87;" horiz-adv-x="1161" 
d="M513 -177l-0.00195312 96.998h-41c-66.667 34.667 -111.667 87.334 -135 158.001l-106 -2c22 -61.333 55 -113.333 99 -156h-63c-41.333 0 -72.333 14 -93 42c-12.667 16.667 -19 36.334 -19 59.001c0 44.667 22.667 73.334 68 86.001c10.667 2.66699 20.334 4 29.001 4
h260v99h-206c-13.333 54.667 -20 108 -20 160c0 134.667 34.333 239 103 313c57.333 59.333 131 89.666 221 90.999v99c-138 -0.666992 -246 -52 -324 -154c-70 -92 -105.667 -211.333 -107 -358c0 -45.333 5 -99 15 -161c-66.667 -18 -109.667 -57 -129 -117
c-6 -19.333 -9 -40 -9 -62c0 -68.667 26 -122 78 -160c36.667 -26 78.334 -39 125.001 -39zM568.998 -178.002h149.999c68 0 119.333 27.333 154 82c20.667 34 31 71.667 31 113v95c64 0 99 -24.333 105 -73c0.666992 -4.66699 1 -9.33398 1 -14.001
c-1.33301 -56.667 -33 -89 -95 -97l-46 -97c80 -10 144 11 192 63c30 34 45 70 45 108v34c0 88.667 -42 143.334 -126 164.001c-23.333 5.33301 -49 8 -77 8h-336v-96h237v-95c0 -46.667 -18.667 -77 -56 -91c-11.333 -4 -23.666 -6 -36.999 -6h-142v-98zM374.997 464.998
l100.998 -0.00195312c0 20.667 11.667 41.334 35 62.001c30.667 26.667 70.334 40 119.001 40c82.667 0 136.334 -40.667 161.001 -122c9.33301 -29.333 14 -62.666 14 -99.999v-98h98v95c0 118 -33.667 206 -101 264c-46.667 40 -104 60 -172 60c-84 0 -151 -26 -201 -78
c-36 -37.333 -54 -78.333 -54 -123zM374.995 408.996l8 -38c20 -68 61.667 -110 125 -126c17.333 -4.66699 36 -7 56 -7c56 0 101.667 18 137 54c19.333 20.667 30 42.667 32 66l-69 73c0 -44 -20 -73 -60 -87c-12.667 -4.66699 -26 -7 -40 -7c-41.333 0 -69 13.667 -83 41
c-4.66699 10 -7 20.333 -7 31h-99zM659.995 772.996c124 0 211 -35.001 261 -105.001c46 -65.333 70.667 -178.666 74 -339.999c0.666992 -17.333 1 -35.333 1 -54l101 -2c0 220.667 -34 376.667 -102 468c-72 86.667 -183.667 131 -335 133v-100z" />
    <glyph glyph-name="tml_Ii" unicode="&#xb88;" horiz-adv-x="616" 
d="M453 249c0 -23.333 10.667 -40.3311 32 -50.998c8.66699 -4 17.334 -6 26.001 -6c23.333 0 40.666 10.667 51.999 32c4 8 6 16.333 6 25c0 23.333 -10.333 40.666 -31 51.999c-9.33301 4.66699 -18.333 7 -27 7c-24 0 -41.333 -11 -52 -33
c-4 -8.66699 -6 -17.334 -6 -26.001zM178 250.002c0 -22.667 10.333 -39.666 31 -50.999c8.66699 -4 17.334 -6 26.001 -6c24 0 41.333 10.667 52 32c4 8 6 16.333 6 25c0 24 -10.667 41.667 -32 53c-8.66699 4 -17.334 6 -26.001 6c-23.333 0 -40.333 -11 -51 -33
c-4 -8.66699 -6 -17.334 -6 -26.001zM329 0.00292969h98v497h142v98h-305v-98h65v-497zM45 1.00293h98v496h67v98h-165v-594z" />
    <glyph glyph-name="tml_U" unicode="&#xb89;" horiz-adv-x="1038" 
d="M147 520c0.666992 44 21 76.001 61 96.001c23.333 12 51.666 18 84.999 18c80.667 0 136.334 -38.333 167.001 -115c12 -30.667 18 -60.334 18 -89.001h95c0 123.333 -40.333 210 -121 260c-44.667 26.667 -97.667 40 -159 40c-76 0 -139 -25.667 -189 -77
c-38.667 -40 -58 -84.333 -58 -133h101zM259 0.000976562h754v91h-754v-91zM57 91.001c0 -37.333 3.66602 -61.333 10.999 -72c10 -12.667 26 -19 48 -19h89v91h-49v64l204 1c140.667 4 212 63.667 214 179v48h-94v-44c0 -41.333 -10 -68 -30 -80
c-19.333 -11.333 -56.666 -17.333 -111.999 -18h-208c-38.667 0 -61.667 -16 -69 -48c-2.66699 -10.667 -4 -23 -4 -37v-65zM145.999 472.001h-100.998c0 -85.333 32 -139 96 -161c25.333 -8 54.666 -12 87.999 -12c57.333 0 102.666 19 135.999 57c18 22 28 46.333 30 73
l-71 68c-1.33301 -65.333 -33.333 -98.333 -96 -99c-36 0 -61 14 -75 42c-4.66699 10 -7 20.667 -7 32z" />
    <glyph glyph-name="tml_Uu" unicode="&#xb8a;" horiz-adv-x="1420" 
d="M147 520c0.666992 44 21 76.001 61 96.001c23.333 12 51.666 18 84.999 18c80.667 0 136.334 -38.333 167.001 -115c12 -30.667 18 -60.334 18 -89.001h95c0 123.333 -40.333 210 -121 260c-44.667 26.667 -97.667 40 -159 40c-76 0 -139 -25.667 -189 -77
c-38.667 -40 -58 -84.333 -58 -133h101zM259 0.000976562h1107v91h-1107v-91zM57 91.001c0 -37.333 3.66602 -61.333 10.999 -72c10 -12.667 26 -19 48 -19h89v91h-49v64l204 1c140.667 4 212 63.667 214 179v48h-94v-44c0 -41.333 -10 -68 -30 -80
c-19.333 -11.333 -56.666 -17.333 -111.999 -18h-208c-38.667 0 -61.667 -16 -69 -48c-2.66699 -10.667 -4 -23 -4 -37v-65zM145.999 472.001h-100.998c0 -85.333 32 -139 96 -161c25.333 -8 54.666 -12 87.999 -12c57.333 0 102.666 19 135.999 57c18 22 28 46.333 30 73
l-71 68c-1.33301 -65.333 -33.333 -98.333 -96 -99c-36 0 -61 14 -75 42c-4.66699 10 -7 20.667 -7 32zM831.001 149.001c49.333 0.666992 88.001 19.667 116.001 57c14.667 20.667 22 41.334 22 62.001c-0.666992 31.333 -1 50.333 -1 57c0 38.667 -16.667 69.667 -50 93
c-24.667 17.333 -53.334 26 -86.001 26v-83c23.333 -0.666992 39.333 -13.334 48 -38.001c3.33301 -8 5 -16.667 5 -26c0.666992 -32 -11.333 -52.667 -36 -62c-6 -2 -12 -3 -18 -3v-83zM644.002 325.001l0.000976562 -58c0 -36 16.667 -66 50 -90c26 -18.667 56 -28 90 -28
v83c-29.333 0 -47.333 14.667 -54 44c-1.33301 6.66699 -2 13.667 -2 21c0 30 12.333 50 37 60c6.66699 2 13 3.33301 19 4v83c-15.333 0 -32.333 -3.33301 -51 -10c6.66699 52 29.667 88 69 108c16 8 32.667 12 50 12h3l1 83h-2c-74.667 0 -132.334 -33.333 -173.001 -100
c-24.667 -40 -37 -80.667 -37 -122v-86v-4zM902.003 555.001l2.00098 0.000976562c34 0 61.667 -15 83 -45c14 -20 21.333 -43.333 22 -70v-6v-5l1 -280h85l-4 289c1.33301 68 16.333 106.333 45 115c5.33301 1.33301 10.666 2 15.999 2v83h-16
c-43.333 -0.666992 -76 -19.334 -98 -56.001c-34.667 37.333 -79.667 56 -135 56h-1v-83zM1200 555.002h38v-406h83v406h60v83h-181v-83z" />
    <glyph glyph-name="tml_E" unicode="&#xb8e;" horiz-adv-x="731" 
d="M53 177c0 -64 22.333 -112.667 67 -146c28.667 -20 61.334 -30 98.001 -30v98c-28 0 -47.667 14.333 -59 43c-4.66699 12 -7 25.333 -7 40c0 42 16 67.667 48 77c6 1.33301 12 2 18 2v99c-20 0 -39.333 -3.66699 -58 -11c11.333 70.667 42 116.667 92 138
c17.333 6.66699 35.666 10 54.999 10v99c-95.333 0 -166 -44.333 -212 -133c-28 -53.333 -42 -112 -42 -176v-66v-7v-37zM273 1c50 0 92.334 20.665 127.001 61.998c24 29.333 36 60 36 92v58c0 67.333 -28.667 112 -86 134c-22.667 8.66699 -48.334 13 -77.001 13v-99
c42 -1.33301 63.333 -27.666 64 -78.999c0.666992 -41.333 -13 -67.666 -41 -78.999c-8 -2.66699 -15.667 -4 -23 -4v-98zM498.001 -0.00195312h98v496h108v99h-342v-99h136v-496z" />
    <glyph glyph-name="tml_Ee" unicode="&#xb8f;" horiz-adv-x="731" 
d="M53 177c0 -64 22.333 -112.667 67 -146c28.667 -20 61.334 -30 98.001 -30v98c-28 0 -47.667 14.333 -59 43c-4.66699 12 -7 25.333 -7 40c0 42 16 67.667 48 77c6 1.33301 12 2 18 2v99c-20 0 -39.333 -3.66699 -58 -11c11.333 70.667 42 116.667 92 138
c17.333 6.66699 35.666 10 54.999 10v99c-95.333 0 -166 -44.333 -212 -133c-28 -53.333 -42 -112 -42 -176v-66v-7v-37zM273 1c50 0 92.334 20.665 127.001 61.998c24 29.333 36 60 36 92v58c0 67.333 -28.667 112 -86 134c-22.667 8.66699 -48.334 13 -77.001 13v-99
c42 -1.33301 63.333 -27.666 64 -78.999c0.666992 -41.333 -13 -67.666 -41 -78.999c-8 -2.66699 -15.667 -4 -23 -4v-98zM362.001 495.998h136v-469l-166 -203h117l148 177l1 495h106v99h-342v-99z" />
    <glyph glyph-name="tml_Ai" unicode="&#xb90;" horiz-adv-x="943" 
d="M277 -180l0.00292969 98c-58.667 0 -96.334 24.333 -113.001 73c-6 16.667 -9 35 -9 55c0 52 16 88.333 48 109c13.333 8.66699 27.666 13 42.999 13h37v99h-30c-82.667 0 -140.667 -32.667 -174 -98c-14.667 -29.333 -22 -60 -22 -92v-70c0 -52 23 -97 69 -135
c43.333 -34.667 93.666 -52 150.999 -52zM331.003 -180c82.667 0 137.666 10.668 164.999 32.001c8.66699 7.33301 15.334 15.666 20.001 24.999c14.667 -38 59 -57 133 -57v99c-52 0 -80.667 21.333 -86 64c-0.666992 6 -1 11.667 -1 17v118h-98v-119
c0 -40 -19 -64.667 -57 -74c-18.667 -4.66699 -44 -7 -76 -7v-98zM34.002 527.001l102.001 -0.000976562c0 56.667 44.333 87 133 91h17c115.333 -1.33301 174.666 -71.666 177.999 -210.999v-68h98v125c0 70 27 112.667 81 128l8 2v99
c-59.333 -5.33301 -107 -31.333 -143 -78c-1.33301 -2 -2.33301 -3.33301 -3 -4c-49.333 64 -121.333 96 -216 96c-96.667 0 -168.667 -27.667 -216 -83c-26 -30.667 -39 -63 -39 -97zM707.003 169c62 0 109.667 23.999 143 71.999c25.333 38 38.333 86.667 39 146v86
c0 86.667 -30.333 149.667 -91 189c-28 18 -59 28.333 -93 31v-99c39.333 -5.33301 65.333 -28.666 78 -69.999c4.66699 -15.333 7 -32.333 7 -51v-75c0 -58 -14.667 -97.333 -44 -118c-12 -8 -25 -12 -39 -12v-99zM223.003 300.999c56 0 101.667 18 137 54
c19.333 20.667 30 42.667 32 66l-69 73c0 -47.333 -21 -77.333 -63 -90c-12 -3.33301 -24.333 -5 -37 -5c-37.333 0 -64 14 -80 42c-5.33301 10 -8.33301 19.667 -9 29h-100c0 -20 7 -44.333 21 -73c33.333 -63.333 89.333 -95.333 168 -96zM703.003 -180.001
c66 0 116 26.332 150 78.999c19.333 30.667 29 63.334 29 98.001v121h-99v-121c0 -38 -16.667 -62.333 -50 -73c-9.33301 -3.33301 -19.333 -5 -30 -5v-99zM338.003 167.998l308 1v98h-308v-99z" />
    <glyph glyph-name="tml_O" unicode="&#xb92;" horiz-adv-x="873" 
d="M468 597c88.667 0 160.333 -30.0039 215 -90.0039c34 -38 51.333 -74.333 52 -109v-211c-0.666992 -15.333 -6.66699 -28.166 -18 -38.499s-25 -16.666 -41 -18.999s-32 -2.16602 -48 0.500977s-29.5 9.16699 -40.5 19.5s-16.5 22.5 -16.5 36.5v164h-99v-325
c0 -52 30.667 -92.667 92 -122c48 -23.333 107 -35 177 -35v99c-87.333 -1.33301 -141.666 15.334 -162.999 50.001c-4.66699 8 -7.33398 16.667 -8.00098 26c54.667 -19.333 109.667 -19.666 165 -0.999023c56 19.333 88.333 52.666 97 99.999c1.33301 7.33301 2 15 2 23
v233c0 48 -19 98 -57 150c-61.333 83.333 -146.333 131.333 -255 144c-18 2 -36 3 -54 3v-98zM38.999 183.996c0 -35.333 16.001 -69.666 48.001 -102.999c34.667 -34 74 -51.333 118 -52v99c-28.667 0 -48.334 14.667 -59.001 44c-4.66699 11.333 -7 24 -7 38
c0 44 16.333 70 49 78c6 1.33301 11.667 2 17 2v99c-16 0 -33.333 -3 -52 -9c10 83.333 47.333 143.666 112 180.999c42 24 92 36 150 36v98c-148 0 -254.667 -57 -320 -171c-37.333 -64.667 -56 -136 -56 -214v-62v-5v-59zM260 28.9961c50 0 92.001 20.998 126.001 62.998
c24.667 30 37 61 37 93v57c0 40 -18.333 75.667 -55 107c-32 26.667 -68 40 -108 40v-99c41.333 -1.33301 62.666 -27.666 63.999 -78.999c0.666992 -41.333 -13 -67.666 -41 -78.999c-8 -2.66699 -15.667 -4 -23 -4v-99zM188.001 -124.006
c20.667 -60.667 61.001 -101.331 121.001 -121.998c56.667 -20 111.667 -16.667 165 10c37.333 18.667 64.666 45.667 81.999 81l-85 49c-18.667 -36 -48 -54.667 -88 -56c-38 -0.666992 -68 14.666 -90 45.999c-3.33301 5.33301 -6.33301 10.666 -9 15.999z" />
    <glyph glyph-name="tml_Oo" unicode="&#xb93;" horiz-adv-x="873" 
d="M468 597c88.667 0 160.333 -30.0039 215 -90.0039c34 -38 51.333 -74.333 52 -109v-211c-0.666992 -15.333 -6.66699 -28.166 -18 -38.499s-25 -16.666 -41 -18.999s-32 -2.16602 -48 0.500977s-29.5 9.16699 -40.5 19.5s-16.5 22.5 -16.5 36.5v164h-99v-325
c0 -52 30.667 -92.667 92 -122c48 -23.333 107 -35 177 -35v99c-87.333 -1.33301 -141.666 15.334 -162.999 50.001c-4.66699 8 -7.33398 16.667 -8.00098 26c54.667 -19.333 109.667 -19.666 165 -0.999023c56 19.333 88.333 52.666 97 99.999c1.33301 7.33301 2 15 2 23
v233c0 48 -19 98 -57 150c-61.333 83.333 -146.333 131.333 -255 144c-18 2 -36 3 -54 3v-98zM205.999 -141.004c0 -53.333 20.668 -95.667 62.001 -127c29.333 -21.333 63.666 -32.333 102.999 -33c65.333 -0.666992 123 29.666 173 90.999c12.667 16 23 31.667 31 47
l-89 52c-10.667 -20 -18.334 -33.333 -23.001 -40c-26.667 -37.333 -59 -54 -97 -50c-28.667 2.66699 -47.667 15.334 -57 38.001c-2.66699 6.66699 -4 13.667 -4 21c0 30 14.333 49.333 43 58c8 2.66699 17 4 27 4v99c-85.333 0 -138.666 -34 -159.999 -102
c-6 -18 -9 -37.333 -9 -58zM39 183.995c0 -35.333 16.001 -69.666 48.001 -102.999c34.667 -34 74 -51.333 118 -52v99c-28.667 0 -48.334 14.667 -59.001 44c-4.66699 11.333 -7 24 -7 38c0 44 16.333 70 49 78c6 1.33301 11.667 2 17 2v99c-16 0 -33.333 -3 -52 -9
c10 83.333 47.333 143.666 112 180.999c42 24 92 36 150 36v98c-148 0 -254.667 -57 -320 -171c-37.333 -64.667 -56 -136 -56 -214v-62v-5v-59zM260.001 28.9951c50 0 92.001 20.998 126.001 62.998c24.667 30 37 61 37 93v57c0 40 -18.333 75.667 -55 107
c-32 26.667 -68 40 -108 40v-99c41.333 -1.33301 62.666 -27.666 63.999 -78.999c0.666992 -41.333 -13 -67.666 -41 -78.999c-8 -2.66699 -15.667 -4 -23 -4v-99z" />
    <glyph glyph-name="tml_Au" unicode="&#xb94;" horiz-adv-x="1826" 
d="M914 156c0 -38 16.667 -73.667 50 -107c33.333 -32.667 71.666 -49 114.999 -49v98c-28 0 -47.667 14.667 -59 44c-4.66699 11.333 -7 24 -7 38c0 38 14.333 63 43 75c8 3.33301 15.667 5 23 5v97c-17.333 0 -37.333 -3.66699 -60 -11c6.66699 64 31.334 110 74.001 138
c21.333 14 44 21 68 21v97c-84 0 -149.667 -38 -197 -114c-33.333 -52.667 -50 -109.667 -50 -171v-99v-6v-56zM1134 0c54.667 0 98.333 22.667 131 68c20 28 29.667 57.667 29 89v58c0 36 -17.333 69.333 -52 100c-32.667 28 -68.667 42 -108 42v-97
c38.667 -1.33301 58.667 -27.666 60 -78.999c-2.66699 -52.667 -22.667 -80.334 -60 -83.001v-98zM1215 505c49.333 0 86.667 -23 112 -69c13.333 -26 20.333 -54 21 -84v-17v-12l1 -323h101l-3 339c1.33301 91.333 17 144.333 47 159c8.66699 4 18 6 28 6v98
c-64.667 -0.666992 -110.667 -26.334 -138 -77.001c-44 50.667 -100.333 76.334 -169 77.001v-97zM1616 0h98v504h74v98h-212v-98h40v-504zM468 597c88.667 0 160.333 -30.0039 215 -90.0039c34 -38 51.333 -74.333 52 -109v-211
c-0.666992 -15.333 -6.66699 -28.166 -18 -38.499s-25 -16.666 -41 -18.999s-32 -2.16602 -48 0.500977s-29.5 9.16699 -40.5 19.5s-16.5 22.5 -16.5 36.5v164h-99v-325c0 -52 30.667 -92.667 92 -122c48 -23.333 107 -35 177 -35v99
c-87.333 -1.33301 -141.666 15.334 -162.999 50.001c-4.66699 8 -7.33398 16.667 -8.00098 26c54.667 -19.333 109.667 -19.666 165 -0.999023c56 19.333 88.333 52.666 97 99.999c1.33301 7.33301 2 15 2 23v233c0 48 -19 98 -57 150
c-61.333 83.333 -146.333 131.333 -255 144c-18 2 -36 3 -54 3v-98zM38.999 183.996c0 -35.333 16.001 -69.666 48.001 -102.999c34.667 -34 74 -51.333 118 -52v99c-28.667 0 -48.334 14.667 -59.001 44c-4.66699 11.333 -7 24 -7 38c0 44 16.333 70 49 78
c6 1.33301 11.667 2 17 2v99c-16 0 -33.333 -3 -52 -9c10 83.333 47.333 143.666 112 180.999c42 24 92 36 150 36v98c-148 0 -254.667 -57 -320 -171c-37.333 -64.667 -56 -136 -56 -214v-62v-5v-59zM260 28.9961c50 0 92.001 20.998 126.001 62.998c24.667 30 37 61 37 93
v57c0 40 -18.333 75.667 -55 107c-32 26.667 -68 40 -108 40v-99c41.333 -1.33301 62.666 -27.666 63.999 -78.999c0.666992 -41.333 -13 -67.666 -41 -78.999c-8 -2.66699 -15.667 -4 -23 -4v-99zM188.001 -124.006c20.667 -60.667 61.001 -101.331 121.001 -121.998
c56.667 -20 111.667 -16.667 165 10c37.333 18.667 64.666 45.667 81.999 81l-85 49c-18.667 -36 -48 -54.667 -88 -56c-38 -0.666992 -68 14.666 -90 45.999c-3.33301 5.33301 -6.33301 10.666 -9 15.999z" />
    <glyph glyph-name="tml_Ka" unicode="&#xb95;" horiz-adv-x="821" 
d="M51 221l101 -0.000976562c0 32 18.667 50 56 54c6 0.666992 11.667 1 17 1h207v-88c0 -56 -27 -88.667 -81 -98c-9.33301 -1.33301 -18.666 -2 -27.999 -2v-99c98.667 0 162.667 38.667 192 116c10 26.667 15 55.334 15 86.001v85h61c44 0 68.667 -17.667 74 -53
c1.33301 -6.66699 2 -13.667 2 -21h99c0 76.667 -20.667 126 -62 148c-26 14 -64.333 21 -115 21h-59v124h132v100h-281v-100h51v-124h-157l1 124h51v100h-151v-227c-82.667 -12.667 -124.334 -61.667 -125.001 -147zM269 -11.001l-0.000976562 98.999c-60 0 -97 15 -111 45
c-5.33301 12.667 -8.33301 27.334 -9 44.001h-98c0.666992 -89.333 40.334 -147.333 119.001 -174c28.667 -9.33301 61.667 -14 99 -14zM549.999 -11.002c142 0.666992 214.001 56.332 216.001 166.999l-101 1c-0.666992 -21.333 -13 -39.666 -37 -54.999
c-20.667 -13.333 -46.334 -20 -77.001 -20z" />
    <glyph glyph-name="tml_Nga" unicode="&#xb99;" horiz-adv-x="879" 
d="M739 0h98v595h-98v-595zM268 0h418.001v98h-80c0.666992 4 1 9 1 15v116c0 62 -34.667 101.333 -104 118c-20 4.66699 -41.667 7 -65 7v-99c34.667 0 55.667 -4 63 -12c4.66699 -6.66699 7 -16 7 -28v-76c0 -19.333 -7 -31.333 -21 -36
c-10.667 -3.33301 -26.334 -5 -47.001 -5h-172v-98zM286.001 138h98v359h109v98h-449v-4v-591h98v497h144v-359z" />
    <glyph glyph-name="tml_Ca" unicode="&#xb9a;" horiz-adv-x="722" 
d="M264 -1v97.999c-84 0.666992 -126.333 22.334 -127 65.001h-97c0 -86.667 49.667 -139 149 -157c22.667 -4 47.667 -6 75 -6zM317 -1.00098c114 0 179.666 48 196.999 144c2.66699 15.333 4 31.333 4 48v82h102v98h-102v124h147v96h-295v-96h50v-124h-157l1 124h52v96
h-152v-230c-65.333 -18.667 -105.333 -55 -120 -109c-3.33301 -13.333 -5 -27.333 -5 -42h99c0 33.333 18.667 53.333 56 60c12.667 2 27.334 3 44.001 3h182v-86c0 -56 -29.667 -86 -89 -90h-14v-98z" />
    <glyph glyph-name="tml_Ja" unicode="&#xb9c;" horiz-adv-x="931" 
d="M280 -180v98c-58.667 0 -96.334 24.333 -113.001 73c-6 16.667 -9 35 -9 55c0 52 15.667 88.667 47 110c13.333 8.66699 28 13 44 13h468c66 0 114.333 28.333 145 85c18.667 35.333 28.334 79.666 29.001 132.999v77c0 86.667 -30 149.667 -90 189
c-27.333 18 -58.333 28.333 -93 31v-99c39.333 -5.33301 65.333 -29 78 -71c4 -15.333 6 -32 6 -50v-52c-0.666992 -54 -5 -89 -13 -105c-13.333 -25.333 -39.333 -38.333 -78 -39h-445c-72 0 -126.667 -29.333 -164 -88c-21.333 -33.333 -32 -67.666 -32 -102.999v-62
c0 -51.333 22.333 -97 67 -137c44 -38.667 95 -58 153 -58zM42 471c0 -38.667 16.665 -76 49.998 -112c33.333 -34 69.333 -51.333 108 -52v98c-20.667 5.33301 -37 19.666 -49 42.999c-6.66699 14.667 -10 30 -10 46c0 39.333 15.333 68.333 46 87
c13.333 7.33301 26.666 11 39.999 11c32 0 56.333 -13.667 73 -41c9.33301 -15.333 14 -32.666 14 -51.999c0 -35.333 -14 -63.333 -42 -84c-6.66699 -4 -12.667 -7 -18 -9v-99c40.667 0 79 22.333 115 67c28 34.667 42 67 42 97v28c0 26 -5 50.333 -15 73
c46.667 -34 70.334 -81.667 71.001 -143v-109h98v135c0 70 27 112.667 81 128l8 2v99c-60 -6 -108.333 -32.667 -145 -80c-49.333 61.333 -120.666 92 -213.999 92c-117.333 0 -195 -41.333 -233 -124c-5.33301 -12.667 -9.66602 -25.667 -12.999 -39
c-3.33301 -10.667 -5.33301 -21 -6 -31c-0.666992 -5.33301 -1 -12 -1 -20v-10v-1zM340.998 -80l0.000976562 -99.002c69.333 0 121.333 20.333 156 61c16 18.667 24.667 38.334 26 59.001c3.33301 54.667 12.666 86.334 27.999 95.001c6.66699 2.66699 15 4 25 4h69v100
h-57c-71.333 0 -119.666 -26 -144.999 -78c-10 -20 -15.333 -43 -16 -69c-1.33301 -39.333 -16.333 -62.333 -45 -69c-10.667 -2.66699 -24.334 -4 -41.001 -4zM599.999 -79.002v-98c131.333 0 216.333 23.333 255 70c20 24 30 54.333 30 91c0 67.333 -32 114 -96 140
c-28 10.667 -58 16 -90 16v-100c58 -2.66699 87.333 -20.667 88 -54c0.666992 -41.333 -46.333 -63 -141 -65h-46z" />
    <glyph glyph-name="tml_Nya" unicode="&#xb9e;" horiz-adv-x="1071" 
d="M277 177c0 -64 22.332 -112.668 66.999 -146.001c28.667 -20 61.334 -30 98.001 -30v98c-27.333 0 -46.666 14 -57.999 42c-5.33301 12.667 -8 26.334 -8 41.001c0 42 16 67.667 48 77c6 1.33301 12 2 18 2v99c-20 0 -39.333 -3.66699 -58 -11
c11.333 70.667 42 116.667 92 138c17.333 6.66699 35.666 10 54.999 10v99c-95.333 0 -166 -44.333 -212 -133c-28 -53.333 -42 -112 -42 -176v-66v-7v-37zM496.999 0.999023c50.667 0 93.001 20.666 127.001 61.999c24.667 29.333 36.667 60 36 92v58
c0 67.333 -28.667 112 -86 134c-22.667 8.66699 -48.334 13 -77.001 13v-99c42 -1.33301 63.667 -27.666 65 -78.999c0 -42 -14.667 -68.333 -44 -79c-6.66699 -2.66699 -13.667 -4 -21 -4v-98zM722 -0.00195312h98v496h108v99h-342v-99h136v-496zM244 -195.002
l287.001 0.00195312v98h-277c-63.333 0 -98.333 24.667 -105 74c-0.666992 6 -1 12.667 -1 20v396c0 61.333 26.333 95.666 79 102.999c7.33301 1.33301 14.666 2 21.999 2v99c-69.333 0 -122.333 -23.667 -159 -71c-26.667 -34.667 -40 -78.334 -40 -131.001v-396
c0 -84.667 32.333 -142.667 97 -174c28.667 -13.333 61 -20 97 -20zM586.001 -97v-99h237c121.333 0 189.333 48 204 144c2 14.667 3 30.334 3 47.001v159c0 102 -45 157.667 -135 167c-10.667 1.33301 -22 2 -34 2v-98c32.667 0 53 -6 61 -18
c6.66699 -10.667 10 -28.334 10 -53.001l-1 -159c0 -45.333 -12.667 -73.333 -38 -84c-13.333 -5.33301 -30.333 -8 -51 -8h-256z" />
    <glyph glyph-name="tml_Tta" unicode="&#xb9f;" horiz-adv-x="630" 
d="M46 0h536v98h-536v-98zM46 153h99v443h-99v-443z" />
    <glyph glyph-name="tml_Nna" unicode="&#xba3;" horiz-adv-x="1402" 
d="M39 163c0 -59.333 17.667 -104.998 53 -136.998c22.667 -20 49.334 -30 80.001 -30v98c-22.667 1.33301 -34 24.666 -34 69.999v125c-0.666992 114.667 38 182 116 202c20 5.33301 42.667 8 68 8v99c-150.667 0 -241.334 -67.333 -272.001 -202
c-7.33301 -32.667 -11 -68.334 -11 -107.001v-126zM199 358.002c34.667 0 55.001 -14.332 61.001 -42.999c1.33301 -8 2 -16.333 2 -25v-127c-0.666992 -45.333 -12.334 -68.333 -35.001 -69v-98c57.333 0 96.666 27.667 117.999 83c10 25.333 15 53.333 15 84v127
c-0.666992 95.333 -30.667 143.333 -90 144c-28.667 -2.66699 -50 -17.334 -64 -44.001c-5.33301 -11.333 -7.66602 -22 -6.99902 -32zM411.001 164.003c0 -59.333 17.667 -105.002 53 -137.002c22.667 -20 49.334 -30 80.001 -30v98c-23.333 0.666992 -35 24 -35 70v124
c0.666992 76.667 20.667 132.334 60 167.001c43.333 -33.333 65 -87.333 65 -162v-130c-0.666992 -45.333 -13 -68.333 -37 -69v-98c58 0 98 28 120 84c10 24.667 15 52.334 15 83.001v136c-0.666992 82 -20 147.333 -58 196c19.333 2 38.666 3 57.999 3v99
c-59.333 -0.666992 -112 -10.667 -158 -30c-50 20 -116 30 -198 30v-99c36.667 0 69 -2.33301 97 -7c-41.333 -50.667 -62 -119 -62 -205v-123zM786.001 500.001c24.667 0 45.332 -1.33301 61.999 -4c-42.667 -51.333 -64 -120.666 -64 -207.999v-123
c0 -59.333 17.667 -105 53 -137c22.667 -20 49.334 -30 80.001 -30v98c-23.333 0.666992 -35 24 -35 70v124c0.666992 80 22.334 136.667 65.001 170c39.333 -32 59 -87.333 59 -166v-129c-0.666992 -45.333 -12.334 -68.333 -35.001 -69v-98c56 0 95.333 27 118 81
c10.667 26 16 54.667 16 86v136c0 82 -17.333 147.667 -52 197c22.667 1.33301 39.667 2 51 2v98c-56.667 -0.666992 -106 -9.33398 -148 -26.001c-43.333 17.333 -100 26 -170 26v-98zM1168 1.00098h98v498h97v99h-204v-98h9v-499z" />
    <glyph glyph-name="tml_Ta" unicode="&#xba4;" horiz-adv-x="762" 
d="M56 -292l103 0.000976562c0 57.333 9.66699 91.333 29 102c7.33301 4 16.666 6 27.999 6h304c92 0 151.333 36.667 178 110c8 22.667 12 46.667 12 72v153h-98l-1 -152c-1.33301 -56 -32 -84.333 -92 -85h-289c-87.333 0 -141.666 -37 -162.999 -111
c-7.33301 -26.667 -11 -58.334 -11 -95.001zM39 159.001c0 -75.333 40 -123.667 120 -145c29.333 -8 62.333 -12 99 -12v99c-49.333 0 -81 4.33301 -95 13c-14 9.33301 -22.333 24.333 -25 45h-99zM39 210l96.999 0.000976562c0 36.667 19.333 58 58 64
c10.667 1.33301 24.334 2 41.001 2l185 -1v-85c-1.33301 -58.667 -37.666 -88.334 -108.999 -89.001v-99c106 0 171.667 40.333 197 121c6.66699 22 10 45.667 10 71v81h35c37.333 -4 57 -27.333 59 -70h98c0 88.667 -30.667 142 -92 160c-20.667 6 -46.334 9 -77.001 9h-23
v123h132v98h-281v-98h51v-123h-157l1 123h51v98h-151v-230c-65.333 -16 -105.333 -52.667 -120 -110c-3.33301 -14.667 -5 -29.667 -5 -45z" />
    <glyph glyph-name="tml_Na" unicode="&#xba8;" horiz-adv-x="674" 
d="M467 277c24 0 39.333 -5.33301 46 -16c6 -11.333 9 -29.666 9 -54.999l-1 -181c0 -54.667 -13.667 -91.334 -41 -110.001c-10.667 -6.66699 -22 -10 -34 -10h-231c-92.667 0 -148.667 -39.667 -168 -119c-5.33301 -23.333 -8 -49.666 -8 -78.999h102
c0 56.667 11.667 89 35 97c6 2 12.333 3 19 3h252c84.667 0 139 44.333 163 133c7.33301 27.333 11 55.666 11 84.999v181c0 96.667 -35.667 151.667 -107 165c-14 2.66699 -29.667 4 -47 4v-98zM72 0h98v497h45v98h-143v-595zM313 0h101l-1 497h141v98h-274v-98h34z" />
    <glyph glyph-name="tml_Nnna" unicode="&#xba9;" horiz-adv-x="1030" 
d="M412 154c0 -59.333 17.668 -105 53.001 -137c22.667 -20 49.334 -30 80.001 -30v98c-23.333 0.666992 -35 24 -35 70v138c0.666992 77.333 20.667 133.333 60 168c43.333 -33.333 65 -87.666 65 -162.999v-144c-0.666992 -45.333 -12.667 -68.333 -36 -69v-98
c58.667 0 98.667 28.333 120 85c9.33301 24 14 51.333 14 82v150c-0.666992 84 -21 150.667 -61 200c18 2 35.667 3 53 3v99c-54.667 -0.666992 -105.334 -11.334 -152.001 -32.001c-50 20.667 -115 31 -195 31v-98c39.333 0 71.666 -2.66699 96.999 -8
c-42 -52.667 -63 -122 -63 -208v-137zM40.001 153c0 -58.667 17.668 -104 53.001 -136c23.333 -20.667 50.666 -31 81.999 -31v98c-22 0 -34 19.333 -36 58v12l-1 139c0 117.333 41 186.333 123 207c18.667 4.66699 39.667 7 63 7v98c-125.333 0 -210 -48.667 -254 -146
c-20 -46 -30 -101.333 -30 -166v-140zM200.002 361c34.667 0 55.333 -13.999 62 -41.999c1.33301 -8 2 -16.667 2 -26v-139c-0.666992 -45.333 -12.667 -68.333 -36 -69v-99c58 0 98 28 120 84c9.33301 25.333 14 53.333 14 84v139
c-0.666992 95.333 -30.667 143.333 -90 144c-28.667 -2.66699 -50 -17.334 -64 -44.001c-6 -11.333 -8.66699 -22 -8 -32zM778.001 507.001h18v-507h98v506h96v99h-212v-98z" />
    <glyph glyph-name="tml_Pa" unicode="&#xbaa;" horiz-adv-x="538" 
d="M297 1h193v594h-99v-496h-94v-98zM48 1h193v98h-95v496h-98v-594z" />
    <glyph glyph-name="tml_Ma" unicode="&#xbae;" horiz-adv-x="645" 
d="M447 0c60.667 0 103.999 26.667 129.999 80c15.333 32 23 71 23 117v237c0 97.333 -38.333 153.333 -115 168c-12 2 -24.667 3 -38 3v-98c36.667 -0.666992 55 -25 55 -73v-250c-1.33301 -56 -19.666 -84.333 -54.999 -85v-99zM38.999 0l354 0.000976562v99h-51v335
c1.33301 47.333 18.333 71.666 51 72.999v98c-84 0 -132.667 -41 -146 -123c-2 -15.333 -3 -31.333 -3 -48v-335h-106v496h-99v-595z" />
    <glyph glyph-name="tml_Ya" unicode="&#xbaf;" horiz-adv-x="701" 
d="M517 0l145.999 0.000976562v595h-99v-470c-1.33301 -18.667 -12.666 -28.334 -33.999 -29.001h-13v-96zM38.999 140.001c0 -32.667 14.334 -63.999 43.001 -93.999c29.333 -30 62.333 -45.333 99 -46h6v96h-6c-20.667 0 -34.334 11 -41.001 33
c-1.33301 5.33301 -2 10.666 -2 15.999v450h-99v-455zM241 0.00195312l6 0.00195312c36.667 0.666992 59.667 12 69 34l4 -34h144v96h-17c-19.333 1.33301 -29.333 11.666 -30 30.999v468h-98v-455c-6 -26.667 -30 -41.334 -72 -44.001h-6v-96z" />
    <glyph glyph-name="tml_Ra" unicode="&#xbb0;" horiz-adv-x="573" 
d="M152 -177h117l151 177l2 497h112v98h-275v-98h62v-468zM39 0h99v497h67v98h-166v-595z" />
    <glyph glyph-name="tml_Rra" unicode="&#xbb1;" horiz-adv-x="722" 
d="M39 -295l99 0.000976562c0 63.333 16.667 99.666 50 108.999c8 2 17.333 3 28 3h271c86.667 0.666992 142.667 45.334 168 134.001c9.33301 33.333 14 71 14 113v411c0 37.333 -15.667 69 -47 95c-28.667 24 -64 36 -106 36v-98c35.333 -1.33301 53.333 -17.333 54 -48
v-408c0 -79.333 -24.667 -124 -74 -134c-8 -2 -17 -3 -27 -3h-254c-93.333 0 -149.333 -42.333 -168 -127c-5.33301 -24.667 -8 -52.334 -8 -83.001zM70 0.000976562l100 1l-2 462c0 24.667 11 39 33 43c4 0.666992 7.66699 1 11 1v99c-61.333 0 -104 -24 -128 -72
c-9.33301 -18.667 -14 -37 -14 -55v-479zM265 507.001c32.667 -1.33301 49.332 -18.667 49.999 -52l2 -454h98l-2 455c0.666992 34 18 51.333 52 52v98c-42.667 -0.666992 -76 -12 -100 -34c-23.333 22.667 -56.666 34 -99.999 34v-99z" />
    <glyph glyph-name="tml_La" unicode="&#xbb2;" horiz-adv-x="875" 
d="M260 0c54.667 0 98 22.666 130 67.999c19.333 28.667 29 58.667 29 90v58c0 37.333 -17.333 71 -52 101c-32 28 -67.667 42 -107 42v-98c38.667 -1.33301 58.667 -27.666 60 -78.999c-0.666992 -55.333 -20.667 -83.333 -60 -84v-98zM39 156.999
c0 -38 16.332 -73.666 48.999 -106.999c34 -32.667 73 -49.334 117 -50.001v98c-28 0 -47.667 15 -59 45c-4.66699 12 -7 24.667 -7 38c0 38 14 63 42 75c8 3.33301 16 5 24 5v98c-17.333 0 -37.333 -3.66699 -60 -11c6 64 29.667 110.333 71 139
c20.667 14 42.334 21 65.001 21v98c-81.333 0 -145.333 -38.333 -192 -115c-33.333 -54 -50 -112 -50 -174v-97v1v-8v-56zM334.999 508c59.333 0 99.333 -27.667 120 -83c6.66699 -18 10.334 -37 11.001 -57l1 -210c0 -53.333 19 -95.333 57 -126
c28 -21.333 61.333 -32 100 -32v99c-25.333 0 -43.333 11.333 -54 34c-3.33301 8 -5 16.333 -5 25v207c0 62 -19 116.333 -57 163c-42.667 51.333 -100.334 77.333 -173.001 78v-98zM662.999 594l0.998047 -99c40.667 0 64.334 -14 71.001 -42c2 -8.66699 3 -19 3 -31v-262
c0 -30 -12.667 -49.333 -38 -58c-7.33301 -2 -15 -3 -23 -3v-99c64.667 0 111.334 25.667 140.001 77c13.333 25.333 20 53 20 83v264c0 93.333 -37 148 -111 164c-18.667 4 -39.667 6 -63 6z" />
    <glyph glyph-name="tml_Lla" unicode="&#xbb3;" horiz-adv-x="953" 
d="M41 157c0 -38.667 16.667 -74.668 50 -108.001c33.333 -32.667 71.666 -49 114.999 -49v98c-28 0 -47.667 15 -59 45c-4.66699 12 -7 24.667 -7 38c0 38 14.333 63 43 75c8 3.33301 15.667 5 23 5v98c-17.333 0 -37.333 -3.66699 -60 -11
c6.66699 64 31.334 110 74.001 138c21.333 14 44 21 68 21v98c-83.333 0 -149 -38 -197 -114c-33.333 -53.333 -50 -110.666 -50 -171.999v-99v-7v-56zM261 -0.000976562c54.667 0 98.333 22.665 131 67.998c20 28.667 29.667 58.667 29 90v58
c0 36.667 -17.333 70.334 -52 101.001c-32 28 -68 42 -108 42v-98c38.667 -1.33301 58.667 -27.666 60 -78.999s-15.667 -79 -51 -83c-3.33301 -0.666992 -6.33301 -1 -9 -1v-98zM341.999 506.997c49.333 0 86.667 -23 112 -69c13.333 -26 20.333 -54 21 -84v-17v-12l1 -325
h101l-3 341c1.33301 91.333 17 144.333 47 159c8.66699 4 18 6 28 6v99c-64.667 -0.666992 -110.667 -26.667 -138 -78c-44 52 -100.333 78 -169 78v-98zM743 -0.00292969h98v506h74v99h-212v-99h40v-506z" />
    <glyph glyph-name="tml_Llla" unicode="&#xbb4;" horiz-adv-x="645" 
d="M447 0c58.667 0 101.666 25.667 128.999 77c16.667 32 25 72 25 120v237c0 100.667 -41.333 157 -124 169c-10 1.33301 -20 2 -30 2v-98c36.667 0 55 -24 55 -72v-1v-250c-1.33301 -56 -19.666 -84.333 -54.999 -85v-99zM39.999 0h204c0 -96.667 61 -145 183 -145h3
l108 -1v100c-88.667 0 -140 1.33301 -154 4c-25.333 4 -39.333 15.667 -42 35v7h51v99h-51v335c1.33301 48 18.333 72.333 51 73v98c-80 0 -128 -37.333 -144 -112c-3.33301 -18 -5 -37.667 -5 -59v-335h-106v496h-98v-595zM62.999 -67
c0 -54.667 20.666 -95.001 61.999 -121.001c46.667 -29.333 101.334 -29 164.001 1c14 6.66699 27.333 14.334 40 23.001c-32 4 -56.667 18.667 -74 44c-4 6 -6.66699 11.667 -8 17c-14 -13.333 -31.667 -16.333 -53 -9c-20.667 8 -31.667 23 -33 45h-98z" />
    <glyph glyph-name="tml_Va" unicode="&#xbb5;" horiz-adv-x="850" 
d="M261 0c54.667 0 98.3311 22.666 130.998 67.999c20 28.667 29.667 58.667 29 90v58c0 36.667 -17.333 70.334 -52 101.001c-32 28 -68 42 -108 42v-98c32.667 0 52.334 -18.333 59.001 -55c1.33301 -8 2 -16.333 2 -25c0 -48.667 -17 -76 -51 -82
c-3.33301 -0.666992 -6.66602 -1 -9.99902 -1v-98zM39.9971 156.999c0 -38 16.334 -73.666 49.001 -106.999c34 -32.667 73 -49.334 117 -50.001v98c-28.667 0 -48.334 14.667 -59.001 44c-4.66699 12 -7 25 -7 39c0 43.333 16 69.333 48 78c6 1.33301 12 2 18 2v98
c-20 0 -39.333 -3.66699 -58 -11c4 64 27.667 110 71 138c22 14 45.667 21 71 21v98c-106 0 -179.667 -48.333 -221 -145c-19.333 -46 -29 -98 -29 -156v-84v-7v-56zM340.998 507c55.333 0 96.667 -22.668 124 -68.001c15.333 -25.333 23.333 -53.666 24 -84.999v-228
c0 -16 -11.333 -24.667 -34 -26c-3.33301 -0.666992 -7 -1 -11 -1v-99h212v99h-70v256c-0.666992 66 -22 123 -64 171c-46.667 52.667 -107 79 -181 79v-98zM710.999 -0.000976562h100v595h-100v-595z" />
    <glyph glyph-name="tml_Sha" unicode="&#xbb6;" horiz-adv-x="946" 
d="M47 158c0 -56.667 16.334 -99.333 49.001 -128c22.667 -20 51 -30 85 -30h17v100c-34.667 1.33301 -52.334 21 -53.001 59v436h-98v-437zM252.001 0.000976562l20 -0.000976562c56.667 0 96.667 28.667 120 86c9.33301 23.333 14 46.666 14 69.999v341h124v-339
c0 -56.667 16.667 -99.667 50 -129c22 -19.333 49.667 -29 83 -29h17v100c-34 1.33301 -51.333 21 -52 59v338h162v-339c0 -30 -13 -48.667 -39 -56c-5.33301 -1.33301 -11 -2 -17 -2v-100h19c55.333 0 95 27.333 119 82c10.667 24.667 16 49.334 16 74.001v439h-580v-438
c0 -29.333 -12.667 -47.666 -38 -54.999c-6 -1.33301 -12 -2 -18 -2v-100z" />
    <glyph glyph-name="tml_Ssa" unicode="&#xbb7;" horiz-adv-x="1258" 
d="M261 0c54.667 0 98.3311 22.666 130.998 67.999c20 28.667 29.667 58.667 29 90v58c0 36.667 -17.333 70.334 -52 101.001c-32 28 -68 42 -108 42v-98c32.667 0 52.334 -18.333 59.001 -55c1.33301 -8 2 -16.333 2 -25c0 -48.667 -17 -76 -51 -82
c-3.33301 -0.666992 -6.66602 -1 -9.99902 -1v-98zM39.9971 156.999c0 -38 16.334 -73.666 49.001 -106.999c34 -32.667 73 -49.334 117 -50.001v98c-28.667 0 -48.334 14.667 -59.001 44c-4.66699 12 -7 25 -7 39c0 43.333 16 69.333 48 78c6 1.33301 12 2 18 2v98
c-20 0 -39.333 -3.66699 -58 -11c4 64 27.667 110 71 138c22 14 45.667 21 71 21v98c-106 0 -179.667 -48.333 -221 -145c-19.333 -46 -29 -98 -29 -156v-84v-7v-56zM339.998 507c55.333 0 96.668 -22.668 124.001 -68.001c15.333 -25.333 23.333 -53.666 24 -84.999v-228
c0 -15.333 -10.667 -24 -32 -26c-4 -0.666992 -8.33301 -1 -13 -1v-99h393v99h-250v256c-0.666992 65.333 -22.334 122.333 -65.001 171c-46 52.667 -106.333 79 -181 79v-98zM667 333.999c0 -94.667 34.001 -151 102.001 -169c19.333 -4.66699 41.666 -7 66.999 -7v97
c-31.333 0 -51.333 8.33301 -60 25c-6.66699 12.667 -10 30.334 -10 53.001v94c0 48.667 17 75.667 51 81c6 0.666992 12.333 1 19 1v98c-90 0 -144 -35.333 -162 -106c-4.66699 -20.667 -7 -43.334 -7 -68.001v-99zM1112 -0.000976562l82 -0.000976562v256h-136v157
c-0.666992 128.667 -57 193.334 -169 194.001v-98c27.333 0 45.333 -5.66699 54 -17c11.333 -14.667 17 -41 17 -79v-157h-71v-98h71v-10h98v10h54v-59h-54v12h-98v-12h-71v-98h71v-179h98v178h54z" />
    <glyph glyph-name="tml_Sa" unicode="&#xbb8;" horiz-adv-x="1181" 
d="M707 507c34 0 54.667 -15.668 62 -47.001c2.66699 -14 4.33398 -33.667 5.00098 -59v-251c0 -54 18.667 -95 56 -123c25.333 -18 56.666 -27 93.999 -27v100c-28 0 -45 12.333 -51 37c-0.666992 4.66699 -1 9.33398 -1 14.001v252c-0.666992 78.667 -15.667 133 -45 163
c-27.333 26.667 -67.333 40 -120 40v-99zM978 -0.000976562c74.667 0 124.999 30.668 150.999 92.001c10 23.333 15 48.666 15 75.999v258c0 86.667 -31.333 139.667 -94 159c-22 7.33301 -48.333 11 -79 11v-99c40.667 0 64.334 -14 71.001 -42c2 -8.66699 3 -19 3 -31
v-256c0 -31.333 -12.667 -52.333 -38 -63c-9.33301 -3.33301 -19 -5 -29 -5v-100zM50.999 157c0 -54 21.332 -96.334 63.999 -127.001c29.333 -20 63.333 -30 102 -30v98c-28 0 -47.667 15 -59 45c-4.66699 12 -7 24.667 -7 38c0 38 14 63 42 75c8 3.33301 16 5 24 5v98
c-17.333 0 -37.333 -3.66699 -60 -11c6.66699 64 31.334 110 74.001 138c21.333 14 44 21 68 21v98c-83.333 0 -149 -38 -197 -114c-34 -53.333 -51 -110.666 -51 -171.999v-99v-7v-56zM271.998 -0.000976562c54.667 0 98 22.666 130 67.999c19.333 28.667 29 58.667 29 90
v58c0 37.333 -17.333 71 -52 101c-32 28 -67.667 42 -107 42v-98c38.667 -1.33301 58.667 -27.666 60 -78.999c-0.666992 -55.333 -20.667 -83.333 -60 -84v-98zM352.998 506.998c49.333 0 86.666 -22.999 111.999 -68.999c13.333 -26 20.333 -54 21 -84v-15v-14l1 -325h101
l-3 346c0.666992 77.333 8.33398 124.666 23.001 141.999c10 12 25 18 45 18v99c-62 -0.666992 -106.667 -25.667 -134 -75c-42.667 49.333 -98 74.333 -166 75v-98z" />
    <glyph glyph-name="tml_Ha" unicode="&#xbb9;" horiz-adv-x="1381" 
d="M1217 284h99v189c-0.666992 39.333 -17.334 72 -50.001 98c-27.333 22 -61.666 33 -102.999 33v-98c35.333 -1.33301 53.333 -17.333 54 -48v-174zM347 500c58 0 100.333 -22.334 127 -67.001c13.333 -23.333 20.333 -49.666 21 -78.999v-228
c0 -15.333 -10.667 -24 -32 -26c-4 -0.666992 -8.33301 -1 -13 -1v-99h212v99h-69v256c-0.666992 76 -25.667 137 -75 183c-44 40.667 -101 61 -171 61v-99zM912 504.999c32.667 -1.33301 49.332 -17.333 49.999 -48l1 -458l99 1l-3 457c0.666992 32 18 48.333 52 49v98
c-42 -0.666992 -75 -12 -99 -34c-23.333 22.667 -56.666 34 -99.999 34v-99zM45.998 156.999c0 -38.667 17.001 -74.333 51.001 -107c33.333 -33.333 72 -50 116 -50v98c-28 0 -48 14.333 -60 43c-4.66699 12.667 -7 26 -7 40c0 38 14.333 63 43 75c8 3.33301 16 5 24 5v98
c-18.667 0 -38 -3.33301 -58 -10c6 63.333 30.333 107.666 73 132.999c20.667 12 42.667 18 66 18v99c-106.667 0 -180.334 -52.333 -221.001 -157c-18 -47.333 -27 -98.666 -27 -153.999v-68v1v-8v-56zM267.999 0c54.667 0 98 22.666 130 67.999
c19.333 28.667 29 58.667 29 90v58c0 37.333 -17.333 71 -52 101c-32 28 -67.667 42 -107 42v-98c38.667 -1.33301 58.667 -27.666 60 -78.999c-4.66699 -52.667 -24.667 -80.667 -60 -84v-98zM715.999 -0.000976562h100.001l-1 461c3.33301 27.333 17.666 42 42.999 44v99
c-61.333 0 -104 -24 -128 -72c-9.33301 -18.667 -14 -37 -14 -55v-477zM1316 230.999l-99.002 0.000976562l1 -161c0 -86 -19 -137.667 -57 -155c-13.333 -6 -28.666 -9 -45.999 -9h-833c-80 0 -132.333 -23.667 -157 -71c-15.333 -30.667 -23 -74 -23 -130h98
c0 61.333 13 96.666 39 105.999c6.66699 2.66699 14.334 4 23.001 4h873c96.667 0 154.667 52.667 174 158c4.66699 28 7 59.667 7 95v163z" />
    <glyph glyph-name="tml_MatraAa" unicode="&#xbbe;" horiz-adv-x="545" 
d="M329 0h98v497h84v98h-246v-98h64v-497zM45 0h99v497h68v98h-167v-595z" />
    <glyph glyph-name="tml_MatraI" unicode="&#xbbf;" horiz-adv-x="333" 
d="M73 689c69.333 -1.33301 104.333 -38.001 105 -110.001v-510h98v513c-1.33301 136.667 -69 205.334 -203 206.001v-99zM-176 579.999l99 -0.000976562c1.33301 72.667 33.333 109.334 96 110.001v98c-110 0 -173.667 -51.333 -191 -154
c-2.66699 -17.333 -4 -35.333 -4 -54z" />
    <glyph glyph-name="tml_MatraIi" unicode="&#xbc0;" horiz-adv-x="394" 
d="M126 411l125 11c-64 47.333 -107 108.666 -129 183.999c-19.333 66.667 -16 120 10 160c17.333 25.333 42 39.333 74 42c44.667 -1.33301 67.334 -19 68.001 -53c0 -19.333 -8.66699 -33 -26 -41c-6 -2.66699 -12 -4 -18 -4c-24 0 -38.333 10 -43 30
c-0.666992 2.66699 -1 5.33398 -1 8.00098l-58 -68c2.66699 -14.667 16 -29.667 40 -45c23.333 -15.333 47 -23 71 -23c40 0 73.667 17.333 101 52c21.333 27.333 32 58 32 92c0 72.667 -33.667 119.667 -101 141c-20.667 6 -42.334 9.33301 -65.001 10
c-72 0 -126 -32.667 -162 -98c-34 -61.333 -43 -132 -27 -212c16.667 -77.333 53 -139.333 109 -186z" />
    <glyph glyph-name="tml_MatraU" unicode="&#xbc1;" horiz-adv-x="557" 
d="M39 586h280c58 0 91 -13 99 -39c1.33301 -5.33301 2 -11.333 2 -18c0 -18 -8.33301 -31 -25 -39c-6.66699 -3.33301 -13.667 -5 -21 -5c-24.667 0 -39.667 11.333 -45 34c-0.666992 4 -1 7.66699 -1 11h-98c0 -44.667 17.333 -82 52 -112c24.667 -20.667 51 -31 79 -31
h24c34.667 0 66 14.667 94 44c26 28 39 61 39 99v9c0 82 -45.333 129.333 -136 142c-18 2 -37.667 3 -59 3h-284v-98z" />
    <glyph glyph-name="tml_MatraUu" unicode="&#xbc2;" horiz-adv-x="748" 
d="M54 586l280 -0.00195312c57.333 0 89.666 -13 96.999 -39c2 -5.33301 3 -11.333 3 -18c0 -18.667 -8.33301 -32 -25 -40c-6.66699 -2.66699 -13.334 -4 -20.001 -4c-24.667 0 -39.667 11 -45 33c-1.33301 4.66699 -2 8.66699 -2 12h-98c0 -44 17.667 -81.333 53 -112
c24.667 -20.667 51 -31 79 -31h24c34.667 0 66 14.667 94 44c25.333 28 38 61 38 99v9c0 78.667 -41.333 125.334 -124 140.001c-20 3.33301 -42.333 5 -67 5c0 48.667 25 79.667 75 93c14.667 4 30 6 46 6c48 0 83.333 -13.667 106 -41
c10.667 -13.333 16 -28.666 16 -45.999v-324c-1.33301 -43.333 -24 -65.333 -68 -66h-59v-77h59c92.667 0 147 34.333 163 103c2.66699 12.667 4 26 4 40v324c0 62 -26.333 110.667 -79 146c-39.333 26 -86.666 39 -141.999 39c-77.333 0 -136.666 -25.667 -177.999 -77
c-26 -34 -39.667 -74 -41 -120h-189v-98z" />
    <glyph glyph-name="tml_MatraE" unicode="&#xbc6;" horiz-adv-x="633" 
d="M270 0c54.667 0 98.333 22.665 131 67.998c20 28.667 29.667 58.667 29 90v58c0 36.667 -17.333 70.334 -52 101.001c-32 28 -68 42 -108 42v-98c38.667 -1.33301 58.667 -27.666 60 -78.999s-15.667 -79 -51 -83c-3.33301 -0.666992 -6.33301 -1 -9 -1v-98z
M49.999 156.998c0 -38.667 16.6689 -74.667 50.002 -108c33.333 -32.667 71.666 -49 114.999 -49v98c-28 0 -47.667 15 -59 45c-4.66699 12 -7 24.667 -7 38c0 38 14.333 63 43 75c8 3.33301 15.667 5 23 5v98c-22 0 -44 -4.66699 -66 -14v106c0 96 41.667 148 125 156
c7.33301 0.666992 14.666 1 21.999 1v98c-102 0 -173.667 -39.333 -215 -118c-20.667 -40 -31 -85.667 -31 -137v-294zM350.001 607.998c90 -0.666992 135 -53 135 -157v-461h98v461c0 93.333 -28.667 163 -86 209c-39.333 30.667 -88.333 46 -147 46v-98z" />
    <glyph glyph-name="tml_MatraEe" unicode="&#xbc7;" horiz-adv-x="621" 
d="M413 376c54.667 0 98 22.666 130 67.999c19.333 28.667 29 58.667 29 90v57c0 36.667 -17 70.334 -51 101.001c-32 28.667 -68 43 -108 43v-99c38.667 -1.33301 58.667 -27.666 60 -78.999c-2.66699 -52.667 -22.667 -80.334 -60 -83.001v-98zM193 532.999
c0 -38.667 16.668 -74.665 50.001 -107.998c33.333 -32.667 71.666 -49 114.999 -49v98c-28 0 -47.667 14.667 -59 44c-4.66699 11.333 -7 24 -7 38c0 38 14.333 63 43 75c8 3.33301 15.667 5 23 5v99h-4c-67.333 0 -128.666 -14.667 -183.999 -44
c-78.667 -42.667 -118.334 -107.667 -119.001 -195v-271c0 -102.667 52 -173.334 156 -212.001c46 -16.667 94 -25 144 -25h5h2v98c-28 0 -47.667 14.667 -59 44c-4.66699 11.333 -7 24 -7 38c0 38 14.333 63 43 75c8 3.33301 15.667 5 23 5v99c-40 0 -77 -13 -111 -39
c-36 -28 -54 -63.667 -54 -107v-56v-4c-29.333 27.333 -44.333 59.666 -45 96.999v254c0.666992 41.333 15.667 74 45 98v-1v-56zM413.001 -11.999c54.667 0 98 22.666 130 67.999c19.333 28.667 29 58.667 29 90v57c0 36.667 -17 70.334 -51 101.001
c-32 28.667 -68 43 -108 43v-99c38.667 -1.33301 58.667 -27.666 60 -78.999c-2.66699 -52.667 -22.667 -80.334 -60 -83.001v-98z" />
    <glyph glyph-name="tml_MatraAi" unicode="&#xbc8;" horiz-adv-x="1043" 
d="M423 157c0 -58 18.335 -103.001 55.002 -135.001c25.333 -22 55.333 -33 90 -33v99c-26 0 -41.333 17.667 -46 53c-0.666992 5.33301 -1 11 -1 17v132c0.666992 82.667 24 141.334 70 176.001c52.667 -33.333 79 -90.333 79 -171v-138
c-1.33301 -45.333 -17.333 -68.333 -48 -69v-99c63.333 0 106.666 28.333 129.999 85c10.667 24.667 16 52.334 16 83.001v144c-0.666992 86 -23.334 154 -68.001 204c21.333 1.33301 37.333 2 48 2v99c-56 -0.666992 -108 -11 -156 -31c-52.667 20 -120.334 30 -203.001 30
v-98c38.667 0 72.334 -2.33301 101.001 -7c-44.667 -54.667 -67 -125.334 -67 -212.001v-131zM40.002 155.999c0 -58.667 18.668 -103.666 56.001 -134.999c25.333 -21.333 55.333 -32 90 -32v98c-22.667 0 -37.334 14.333 -44.001 43c-2 8.66699 -3 17.667 -3 27l-1 133
c0 117.333 42 187 126 209c21.333 5.33301 45 8 71 8v98c-116 0 -199 -40.333 -249 -121c-30.667 -50.667 -46 -115.334 -46 -194.001v-134zM224.003 361c41.333 -1.33301 62.332 -25.666 62.999 -72.999v-132c-2 -44 -18 -66.667 -48 -68v-99c62 0 105 27.333 129 82
c11.333 25.333 17 53.666 17 84.999v132c-0.666992 98.667 -30.667 148.334 -90 149.001c-28.667 -2.66699 -50 -17.334 -64 -44.001c-5.33301 -11.333 -7.66602 -22 -6.99902 -32zM802.002 498c34 -12 59.666 -41.668 76.999 -89.001
c11.333 -31.333 17 -66.666 17 -105.999v-141c-1.33301 -45.333 -19.666 -68.333 -54.999 -69v-98c66.667 0 112.667 28.333 138 85c10.667 24.667 16 52 16 82v141c0 102.667 -27.667 182 -83 238c-33.333 34 -70 52.333 -110 55v-98z" />
    <glyph glyph-name="tml_MatraO" unicode="&#xbca;" horiz-adv-x="1161" 
d="M279 10c54.667 0 98 22.666 130 67.999c19.333 28.667 29 58.667 29 90v58c0 37.333 -17.333 71 -52 101c-32 28 -67.667 42 -107 42v-98c38.667 -1.33301 58.667 -27.666 60 -78.999s-15.667 -79 -51 -83c-3.33301 -0.666992 -6.33301 -1 -9 -1v-98zM58 166.999
c0 -38 16.333 -73.666 49 -106.999c34 -32.667 73 -49.334 117 -50.001v98c-28 0 -47.667 15 -59 45c-4.66699 12 -7 24.667 -7 38c0 38 14.333 63 43 75c8 3.33301 15.667 5 23 5v98c-22.667 0 -45 -4.66699 -67 -14v106c0 97.333 43.333 149.333 130 156
c6 0.666992 12 1 18 1v98c-102.667 0 -174.667 -39.667 -216 -119c-20.667 -40 -31 -85.333 -31 -136v-243v-51zM359 618c90 -0.666992 135 -53 135 -157v-461h98v461c0 93.333 -28.667 163 -86 209c-39.333 30.667 -88.333 46 -147 46v-98zM946 0h99v497h84v98h-247v-98h64
v-497zM663 0h98v497h68v98h-166v-595z" />
    <glyph glyph-name="tml_MatraOo" unicode="&#xbcb;" horiz-adv-x="1166" 
d="M950 0h98v497h84v98h-246v-98h64v-497zM666 0h99v497h68v98h-167v-595zM413 376c54.667 0 98 22.666 130 67.999c19.333 28.667 29 58.667 29 90v57c0 36.667 -17 70.334 -51 101.001c-32 28.667 -68 43 -108 43v-99c38.667 -1.33301 58.667 -27.666 60 -78.999
c-2.66699 -52.667 -22.667 -80.334 -60 -83.001v-98zM193 532.999c0 -38.667 16.668 -74.665 50.001 -107.998c33.333 -32.667 71.666 -49 114.999 -49v98c-28 0 -47.667 14.667 -59 44c-4.66699 11.333 -7 24 -7 38c0 38 14.333 63 43 75c8 3.33301 15.667 5 23 5v99h-4
c-67.333 0 -128.666 -14.667 -183.999 -44c-78.667 -42.667 -118.334 -107.667 -119.001 -195v-271c0 -102.667 52 -173.334 156 -212.001c46 -16.667 94 -25 144 -25h5h2v98c-28 0 -47.667 14.667 -59 44c-4.66699 11.333 -7 24 -7 38c0 38 14.333 63 43 75
c8 3.33301 15.667 5 23 5v99c-40 0 -77 -13 -111 -39c-36 -28 -54 -63.667 -54 -107v-56v-4c-29.333 27.333 -44.333 59.666 -45 96.999v254c0.666992 41.333 15.667 74 45 98v-1v-56zM413.001 -11.999c54.667 0 98 22.666 130 67.999c19.333 28.667 29 58.667 29 90v57
c0 36.667 -17 70.334 -51 101.001c-32 28.667 -68 43 -108 43v-99c38.667 -1.33301 58.667 -27.666 60 -78.999c-2.66699 -52.667 -22.667 -80.334 -60 -83.001v-98z" />
    <glyph glyph-name="tml_MatraAu" unicode="&#xbcc;" horiz-adv-x="1577" 
d="M277 12c55.333 0 99 22.665 131 67.998c19.333 28.667 29 58.667 29 90v58c0 36.667 -17.333 70.334 -52 101.001c-32 28 -68 42 -108 42v-98c39.333 -1.33301 59.333 -27.666 60 -78.999c1.33301 -51.333 -15.667 -79 -51 -83c-3.33301 -0.666992 -6.33301 -1 -9 -1v-98
zM57 168.998c0 -38.667 16.6689 -74.668 50.002 -108.001c33.333 -32 71.666 -48.333 114.999 -49v98c-26.667 0 -46 14 -58 42c-5.33301 12.667 -8 26.334 -8 41.001c0 38 14.333 63 43 75c8 3.33301 15.667 5 23 5v98c-22 0 -44 -4.66699 -66 -14v106
c0 96 41.667 148 125 156c7.33301 0.666992 14.666 1 21.999 1v98c-102 0 -173.667 -39.333 -215 -118c-20.667 -40 -31 -85.667 -31 -137v-243v-51zM357.002 619.997c90 -0.666992 135 -53 135 -157v-461h99v461c0 92.667 -28.333 162 -85 208
c-40 31.333 -89.667 47 -149 47v-98zM661.002 158.997c0 -38 16.333 -73.667 49 -107c34 -32.667 73 -49.334 117 -50.001v98c-28 0 -47.667 15 -59 45c-4.66699 12 -7 24.667 -7 38c0 38 14.333 63 43 75c8 3.33301 15.667 5 23 5v98c-18 0 -37.667 -3.66699 -59 -11
c6.66699 64.667 31.667 111 75 139c20.667 13.333 42.667 20 66 20v98c-83.333 0 -149 -38 -197 -114c-34 -53.333 -51 -110.666 -51 -171.999v-99v1v-8v-56zM882.002 1.99707c54.667 0 98 22.666 130 67.999c19.333 28.667 29 58.667 29 90v58c0 37.333 -17.333 71 -52 101
c-32 28 -67.667 42 -107 42v-98c38.667 -1.33301 58.667 -27.666 60 -78.999c-0.666992 -55.333 -20.667 -83.333 -60 -84v-98zM963.002 508.996c48 0 85 -22.667 111 -68c14 -26 21.333 -54.333 22 -85v-17v-12l1 -325h101l-3 342c1.33301 88.667 16.333 141 45 157
c8.66699 4.66699 18.667 7 30 7v99c-64.667 -0.666992 -110.667 -26.667 -138 -78c-44 52 -100.333 78 -169 78v-98zM1364 1.99609h98v506h74v99h-212v-99h40v-506z" />
    <glyph glyph-name="tml_Virama" unicode="&#xbcd;" horiz-adv-x="0" 
d="M-62 727c0 -26.667 11.333 -46 34 -58c10 -5.33301 20 -8 30 -8c25.333 0 44.333 12 57 36c4.66699 9.33301 7 19.333 7 30c0 26.667 -11.333 46 -34 58c-10 5.33301 -20 8 -30 8c-26 0 -45 -12 -57 -36c-4.66699 -9.33301 -7 -19.333 -7 -30z" />
    <glyph glyph-name="tml_Om" unicode="&#xbd0;" horiz-adv-x="1196" 
d="M313 -591l269 -0.000976562v98h-259c-54 0 -86 18.667 -96 56c-2.66699 10.667 -4 23.334 -4 38.001v129c0 49.333 8.66699 80.333 26 93c11.333 8 26.666 12 45.999 12v98c-87.333 0 -141.333 -41.333 -162 -124c-6 -23.333 -9 -49.333 -9 -78v-128
c0 -88.667 33.333 -147.667 100 -177c26.667 -11.333 56.334 -17 89.001 -17zM646 -493.001l0.000976562 -99.001h214c121.333 0 189.333 48 204 144c2 14.667 3 30.334 3 47.001v90c0 75.333 -21.333 122.333 -64 141c-22 9.33301 -57 14 -105 14v-99
c31.333 0 49.666 -1.33301 54.999 -4c10.667 -6.66699 16 -24 16 -52l-1 -90c0 -45.333 -12.667 -73.333 -38 -84c-13.333 -5.33301 -30.333 -8 -51 -8h-233zM524.001 51.998c0 -18.667 8.66602 -31.999 25.999 -39.999c5.33301 -2 11 -3 17 -3c19.333 0 32.333 9 39 27
c2 5.33301 3 10.666 3 15.999c0 18.667 -8.66699 31.667 -26 39c-5.33301 2 -10.666 3 -15.999 3c-18.667 0 -31.667 -8.33301 -39 -25c-2.66699 -6 -4 -11.667 -4 -17zM654 -433.001c53.333 0 89.666 14.335 108.999 43.002c18 27.333 27 68.666 27 123.999v69
c0 86 -31.333 135 -94 147c-11.333 2 -23.666 3 -36.999 3v-63c31.333 0 50.333 -14 57 -42c2.66699 -12 4 -27 4 -45v-82c-1.33301 -62.667 -23.333 -94.334 -66 -95.001v-59zM347 -432.999l265.001 0.000976562v59h-45v159c0 48 4.66699 78 14 90c8.66699 10 21 15 37 15
v63c-58.667 0 -95.334 -23.333 -110.001 -70c-7.33301 -22.667 -11 -55.334 -11 -98.001v-159h-80v310h-70v-369zM279.001 389.002l0.000976562 -99.002c41.333 -1.33301 62.666 -27.666 63.999 -78.999c0.666992 -41.333 -13 -67.666 -41 -78.999
c-8 -2.66699 -15.667 -4 -23 -4v-99c50 0 92 21 126 63c24.667 30 37 61 37 93v57c0 40 -18.333 75.667 -55 107c-32 26.667 -68 40 -108 40zM224.002 389c-16.667 0 -34.332 -3 -52.999 -9c6 79.333 41.333 135.333 106 168c62.667 31.333 164 47.666 304 48.999v98
c-234.667 0 -388.334 -48.667 -461.001 -146c-41.333 -56 -62 -135.667 -62 -239v-62v-5v-59c0 -35.333 16 -69.666 48 -102.999c34.667 -34 74 -51.333 118 -52v99c-28 0 -48 14 -60 42c-4.66699 12.667 -7 26 -7 40c0 43.333 16.333 69.333 49 78c6 1.33301 12 2 18 2v99z
M1136 165l0.000976562 232.996c0 166.667 -114 263 -342 289c-44.667 5.33301 -93.334 8 -146.001 8v-98c229.333 0 357 -51 383 -153c3.33301 -14.667 5 -30 5 -46v-211c-0.666992 -15.333 -6.66699 -28.166 -18 -38.499s-24.833 -16.666 -40.5 -18.999
s-31.5 -2.16602 -47.5 0.500977s-29.5 9.16699 -40.5 19.5s-16.5 22.5 -16.5 36.5v164h-99v-325c0 -52 30.667 -92.667 92 -122c48 -23.333 107 -35 177 -35v99c-87.333 -1.33301 -141.666 15.334 -162.999 50.001c-4.66699 8 -7.33398 16.667 -8.00098 26
c54.667 -19.333 109.667 -19.666 165 -0.999023c56 19.333 88.333 52.666 97 99.999c1.33301 7.33301 2 15 2 23z" />
    <glyph glyph-name="tml_AuLengthmark" unicode="&#xbd7;" horiz-adv-x="953" 
d="M41 157c0 -38.667 16.667 -74.668 50 -108.001c33.333 -32.667 71.666 -49 114.999 -49v98c-28 0 -47.667 15 -59 45c-4.66699 12 -7 24.667 -7 38c0 38 14.333 63 43 75c8 3.33301 15.667 5 23 5v98c-17.333 0 -37.333 -3.66699 -60 -11
c6.66699 64 31.334 110 74.001 138c21.333 14 44 21 68 21v98c-83.333 0 -149 -38 -197 -114c-33.333 -53.333 -50 -110.666 -50 -171.999v-99v-7v-56zM261 -0.000976562c54.667 0 98.333 22.665 131 67.998c20 28.667 29.667 58.667 29 90v58
c0 36.667 -17.333 70.334 -52 101.001c-32 28 -68 42 -108 42v-98c38.667 -1.33301 58.667 -27.666 60 -78.999s-15.667 -79 -51 -83c-3.33301 -0.666992 -6.33301 -1 -9 -1v-98zM341.999 506.997c49.333 0 86.667 -23 112 -69c13.333 -26 20.333 -54 21 -84v-17v-12l1 -325
h101l-3 341c1.33301 91.333 17 144.333 47 159c8.66699 4 18 6 28 6v99c-64.667 -0.666992 -110.667 -26.667 -138 -78c-44 52 -100.333 78 -169 78v-98zM743 -0.00292969h98v506h74v99h-212v-99h40v-506z" />
    <glyph glyph-name="tml_Zero" unicode="&#xbe6;" horiz-adv-x="594" 
d="M316 645l-0.000976562 -92.001c84.667 0 128.667 -72 132 -216v-22c-0.666992 -155.333 -44.667 -233.333 -132 -234v-98c86.667 0 151.334 42.667 194.001 128c28 57.333 42 125.333 42 204c0 112.667 -26.333 199.334 -79 260.001c-40.667 46.667 -93 70 -157 70z
M270.999 644.999c-93.333 0 -160.333 -46.999 -201 -140.999c-23.333 -54.667 -35 -117.667 -35 -189c0 -118.667 28.333 -208.334 85 -269.001c40.667 -42 91 -63 151 -63v98c-88 1.33301 -132 79.333 -132 234c0 137.333 32.333 215 97 233c11.333 3.33301 23 5 35 5v92z
" />
    <glyph glyph-name="tml_One" unicode="&#xbe7;" horiz-adv-x="821" 
d="M51 221l101 -0.000976562c0 32 18.667 50 56 54c6 0.666992 11.667 1 17 1h207v-88c0 -56 -27 -88.667 -81 -98c-9.33301 -1.33301 -18.666 -2 -27.999 -2v-99c98.667 0 162.667 38.667 192 116c10 26.667 15 55.334 15 86.001v85h61c44 0 68.667 -17.667 74 -53
c1.33301 -6.66699 2 -13.667 2 -21h99c0 76.667 -20.667 126 -62 148c-26 14 -64.333 21 -115 21h-59v124h132v100h-281v-100h51v-124h-157l1 124h51v100h-151v-227c-82.667 -12.667 -124.334 -61.667 -125.001 -147zM269 -11.001l-0.000976562 98.999c-60 0 -97 15 -111 45
c-5.33301 12.667 -8.33301 27.334 -9 44.001h-98c0.666992 -89.333 40.334 -147.333 119.001 -174c28.667 -9.33301 61.667 -14 99 -14zM549.999 -11.002c142 0.666992 214.001 56.332 216.001 166.999l-101 1c-0.666992 -21.333 -13 -39.666 -37 -54.999
c-20.667 -13.333 -46.334 -20 -77.001 -20z" />
    <glyph glyph-name="tml_Two" unicode="&#xbe8;" horiz-adv-x="983" 
d="M39 472c0 -74 28.999 -127.667 86.999 -161c30.667 -17.333 64.334 -26 101.001 -26c52.667 0 97.334 21.333 134.001 64c37.333 46 50.333 97.667 39 155h-98c9.33301 -32 4.33301 -61.667 -15 -89c-16 -20.667 -36.333 -31.334 -61 -32.001
c-36 0 -61.667 14.333 -77 43c-7.33301 13.333 -11 28 -11 44c-0.666992 42.667 17.666 76.334 54.999 101.001c28 18 61 27 99 27c90.667 0 148 -32.667 172 -98c7.33301 -20.667 11 -44 11 -70h99c0 98.667 -36 171.667 -108 219c-48 31.333 -106 47 -174 47
c-90 0 -158.667 -29.667 -206 -89c-31.333 -39.333 -47 -84.333 -47 -135zM94.999 0l849 0.000976562v98h-528c94 75.333 146 158.333 156 249c1.33301 10 2 19.667 2 29h-99c0 -62 -26.667 -119 -80 -171c-72.667 -70.667 -171 -106.334 -295 -107.001h-5v-98z" />
    <glyph glyph-name="tml_Three" unicode="&#xbe9;" horiz-adv-x="734" 
d="M255 0l438 0.000976562v98h-80c0.666992 3.33301 1 7.66602 1 12.999v118c0 62.667 -35.333 102 -106 118c-20 4.66699 -41 7 -63 7v-99c34 0 54.667 -4 62 -12c5.33301 -6 8 -14.667 8 -26v-79c0 -20 -8 -32 -24 -36c-10.667 -2.66699 -28 -4 -52 -4h-184v-98z
M293 177.001h98v320h109v98h-449v-4v-591h99v497h143v-320z" />
    <glyph glyph-name="tml_Four" unicode="&#xbea;" horiz-adv-x="884" 
d="M311 -1c106 0 171.665 40.335 196.998 121.002c6.66699 22 10 45.667 10 71v82h322l1 214h-99v-116h-224v124h147v100h-295v-100h50v-124h-157l1 124h52v100h-152v-234c-59.333 -17.333 -98 -50 -116 -98c-6 -16.667 -9 -33.667 -9 -51v-51c0 -54.667 24.333 -97 73 -127
c38 -22.667 86.667 -34.334 146 -35.001v99c-52 0 -85.333 7.33301 -100 22c-14 14 -21 36.667 -21 68c0 45.333 18 72.333 54 81c12.667 2.66699 28.334 4 47.001 4h182v-86c-1.33301 -58.667 -37.666 -88.334 -108.999 -89.001v-99z" />
    <glyph glyph-name="tml_Five" unicode="&#xbeb;" horiz-adv-x="991" 
d="M46 41c0 -82.667 26.002 -145.332 78.002 -187.999c34 -27.333 72.667 -41 116 -41h260v98h-249c-53.333 0 -87 27 -101 81c-3.33301 15.333 -5 31.666 -5 48.999v247c0 68 26.333 106 79 114c7.33301 1.33301 14.666 2 21.999 2l-1 98
c-66.667 0 -118.334 -22.333 -155.001 -67c-29.333 -36 -44 -83.333 -44 -142v-251zM555.002 -89.998v-98l181 -1c70 0 123 26.333 159 79c18.667 27.333 28 55.333 28 84v236c0 84.667 -38 133.667 -114 147c-14.667 2.66699 -31 4 -49 4v-97c38 0 59 -20.333 63 -61
c0.666992 -6 1 -12 1 -18v-152c0 -50 -13.667 -85.667 -41 -107c-14 -10.667 -30 -16 -48 -16h-180zM323.002 1.00195h98v496h80v98h-178v-594zM605.002 1.00195h99l2 496h112v98h-263v-98h50v-496z" />
    <glyph glyph-name="tml_Six" unicode="&#xbec;" horiz-adv-x="1066" 
d="M311 -1c106 0 171.665 40.335 196.998 121.002c6.66699 22 10 45.667 10 71v82h149v-271h98l1 271h106v-271h98l1 271h56v98h-509v124h147v100h-295v-100h50v-124h-157l1 124h52v100h-152v-234c-59.333 -17.333 -98 -50 -116 -98c-6 -16.667 -9 -33.667 -9 -51v-51
c0 -54.667 24.333 -97 73 -127c38 -22.667 86.667 -34.334 146 -35.001v99c-52 0 -85.333 7.33301 -100 22c-14 14 -21 36.667 -21 68c0 45.333 18 72.333 54 81c12.667 2.66699 28.334 4 47.001 4h182v-86c-1.33301 -58.667 -37.666 -88.334 -108.999 -89.001v-99z" />
    <glyph glyph-name="tml_Seven" unicode="&#xbed;" horiz-adv-x="731" 
d="M53 177c0 -64 22.666 -112.668 67.999 -146.001c28.667 -20 61.334 -30 98.001 -30v98c-28.667 0 -48.667 14.333 -60 43c-4.66699 12 -7 25.333 -7 40c0 42.667 16.333 68.334 49 77.001c6 1.33301 12 2 18 2v99c-20 0 -39.333 -3.66699 -58 -11
c10 70 40 115.667 90 137c17.333 7.33301 36 11 56 11v99c-95.333 0 -166 -44.333 -212 -133c-28 -53.333 -42 -112 -42 -176v-66v-7v-37zM273.999 0.999023c50.667 0 93 20.998 127 62.998c24 29.333 36 59.666 36 90.999v58c0 66.667 -28.333 111.334 -85 134.001
c-23.333 8.66699 -49.333 13 -78 13v-99c41.333 -1.33301 62.666 -27.666 63.999 -78.999c0 -41.333 -14 -67.666 -42 -78.999c-7.33301 -2.66699 -14.666 -4 -21.999 -4v-98zM497.999 -0.00292969h99v496h108v99h-343v-99h136v-496z" />
    <glyph glyph-name="tml_Eight" unicode="&#xbee;" horiz-adv-x="1018" 
d="M383 459h-98.999l8 -38c20 -67.333 61.667 -109 125 -125c17.333 -4.66699 36 -7 56 -7c56 0 101.667 18 137 54c19.333 20.667 30 42.667 32 66l-69 73c0 -47.333 -21 -77.333 -63 -90c-12 -3.33301 -24.333 -5 -37 -5c-36 0 -62.333 13 -79 39
c-6.66699 10 -10.334 21 -11.001 33zM284.001 515h101.001c0 14.667 11 30.334 33 47.001c31.333 23.333 71.666 35 120.999 35c116 -1.33301 174.333 -68.333 175 -201v-137h-250v-97h250v-94c0 -48.667 -20 -79.334 -60 -92.001c-10.667 -3.33301 -22 -5 -34 -5h-154v-98
h162c68.667 0 120 27.333 154 82c20.667 33.333 31 70.666 31 111.999v95h61v-269h99v685h-99v-319h-62v134c0 130 -42 219 -126 267c-41.333 23.333 -90.333 35 -147 35c-92.667 0 -163.667 -26.667 -213 -80c-28 -31.333 -42 -64.666 -42 -99.999zM60.002 72
c0 -68.667 25.998 -122.001 77.998 -160.001c36.667 -26 78.334 -39 125.001 -39h148v98h-141c-41.333 0 -72.333 14 -93 42c-12.667 16.667 -19 36.334 -19 59.001c0 44.667 23 73 69 85c10.667 2.66699 20.334 4 29.001 4h154v99h-136c-86 0 -147.667 -27.667 -185 -83
c-19.333 -30 -29 -65 -29 -105z" />
    <glyph glyph-name="tml_Nine" unicode="&#xbef;" horiz-adv-x="968" 
d="M311 -1c106 0 171.664 40.335 196.997 121.002c6.66699 22 10 45.667 10 71v82h198c49.333 0 81 -7.66699 95 -23c10.667 -10.667 16 -26 16 -46c0 -28.667 -13.333 -46.667 -40 -54c-6 -1.33301 -11.333 -2 -16 -2c-27.333 0 -45.666 11 -54.999 33
c-2.66699 7.33301 -4 15.333 -4 24h-98c0 -49.333 19 -90 57 -122c27.333 -22 56.333 -33 87 -33h24c34.667 0 67 14 97 42c31.333 30.667 47 68 47 112v11c0 84.667 -43 134.667 -129 150c-22.667 4 -48.667 6 -78 6h-201v124h147v100h-295v-100h50v-124h-157l1 124h52v100
h-152v-234c-59.333 -17.333 -98 -50 -116 -98c-6 -16.667 -9 -33.667 -9 -51v-51c0 -54.667 24.333 -97 73 -127c38 -22.667 86.667 -34.334 146 -35.001v99c-52 0 -85.333 7.33301 -100 22c-14 14 -21 36.667 -21 68c0 45.333 18 72.333 54 81
c12.667 2.66699 28.334 4 47.001 4h182v-86c-1.33301 -58.667 -37.666 -88.334 -108.999 -89.001v-99z" />
    <glyph glyph-name="tml_Ten" unicode="&#xbf0;" horiz-adv-x="711" 
d="M505 0c70.667 0 117.333 30.333 140 91c6 18 9.33301 36 10 54v450l-101 134h-102l104 -138v-443c0 -26 -11.333 -42.667 -34 -50c-5.33301 -1.33301 -11 -2 -17 -2v-96zM48.999 146c0 -56 20.668 -97.333 62.001 -124c23.333 -14.667 50 -22 80 -22v96
c-28.667 1.33301 -43.334 18 -44.001 50v449h-98v-449zM245 0c38.667 0 65.333 4.33301 80 13c8.66699 6 16.667 13.667 24 23c14.667 -21.333 37 -33 67 -35c8 -0.666992 19.667 -1 35 -1v96c-34 1.33301 -51.333 18.333 -52 51v448h-97v-448
c-2.66699 -33.333 -21.667 -50.333 -57 -51v-96z" />
    <glyph glyph-name="tml_Hundred" unicode="&#xbf1;" horiz-adv-x="821" 
d="M581 0h99v507h103v99h-296v-99h94v-507zM39 0h101.001l-3 464c1.33301 28 15.333 42.333 42 43v99c-62.667 0 -105.334 -24 -128.001 -72c-8 -18 -12 -36.333 -12 -55v-479zM234.001 507c32 -1.33301 48.333 -15.333 49 -42l3 -465h98l-2 466
c3.33301 27.333 20.333 41.333 51 42v98c-44 -0.666992 -77 -11.667 -99 -33c-24.667 22 -58 33 -100 33v-99z" />
    </font>
</defs>
</svg>
