<svg xmlns="http://www.w3.org/2000/svg" width="40" height="40" viewBox="0 0 40 40"><g><g><path fill="#38c695" d="M40.052 20c0 5.521-1.953 10.234-5.86 14.14C30.288 38.046 25.574 40 20.054 40S9.82 38.046 5.914 34.14C2.008 30.234.055 25.52.055 20c0-5.52 1.953-10.235 5.859-14.14C9.82 1.952 14.533 0 20.054 0c5.519 0 10.233 1.953 14.139 5.86 3.906 3.905 5.859 8.62 5.859 14.14zm-1.64 0c0-5.104-1.785-9.44-5.352-13.008-3.568-3.567-7.903-5.352-13.007-5.352s-9.44 1.785-13.006 5.352c-3.568 3.568-5.351 7.904-5.351 13.007 0 5.105 1.783 9.442 5.35 13.008 3.567 3.568 7.903 5.352 13.007 5.352s9.44-1.784 13.007-5.352c3.567-3.566 5.351-7.903 5.351-13.008zm-20.897-2.5a16.603 16.603 0 0 0 3.905 1.758 11.502 11.502 0 0 1 3.945 2.148c1.198.99 1.823 2.24 1.875 3.75 0 1.458-.52 2.695-1.562 3.71-1.042 1.016-2.474 1.63-4.297 1.836v2.657h-1.796v-2.891c-2.813-.104-4.922-.937-6.328-2.5l1.328-1.484.625.547c.469.417 1.184.82 2.148 1.211a7.94 7.94 0 0 0 3.008.586c1.301 0 2.383-.325 3.242-.977.86-.65 1.289-1.497 1.289-2.539 0-1.145-.586-2.11-1.758-2.89a14.117 14.117 0 0 0-3.906-1.797 10.857 10.857 0 0 1-3.906-2.07c-1.171-.964-1.757-2.15-1.757-3.556 0-1.353.546-2.564 1.64-3.632 1.094-1.067 2.473-1.68 4.14-1.836v-2.89h1.875v2.89c2.344.105 4.114.756 5.312 1.953l-1.172 1.719-.624-.469c-.418-.313-1.043-.625-1.875-.938a7.08 7.08 0 0 0-2.5-.469c-1.355 0-2.46.34-3.32 1.016-.86.678-1.29 1.511-1.29 2.5 0 1.043.587 1.928 1.759 2.657z"/></g></g></svg>