<svg xmlns="http://www.w3.org/2000/svg" width="41" height="40" viewBox="0 0 41 40"><g><g><path fill="#feb960" d="M40.206 19.976c0 5.502-1.945 10.207-5.83 14.114-3.887 3.908-8.568 5.861-14.039 5.861-5.473 0-10.153-1.953-14.039-5.861-3.887-3.907-5.83-8.612-5.83-14.114 0-5.502 1.943-10.207 5.83-14.115 3.886-3.907 8.566-5.862 14.039-5.862 5.471 0 10.152 1.955 14.039 5.862 3.885 3.908 5.83 8.613 5.83 14.115zm-1.586 0c0-5.065-1.788-9.394-5.364-12.99-3.576-3.595-7.882-5.392-12.919-5.392-5.037 0-9.344 1.797-12.92 5.392-3.576 3.596-5.363 7.925-5.363 12.99 0 5.063 1.787 9.394 5.364 12.988 3.575 3.596 7.882 5.392 12.919 5.392 5.037 0 9.343-1.796 12.92-5.392 3.575-3.594 5.363-7.925 5.363-12.988zm-6.623-7.129c.56.563.528 1.127-.093 1.69l-13.62 13.316c-.186.188-.435.281-.745.281-.374 0-.653-.093-.84-.28l-5.317-5.347c-.56-.562-.56-1.125 0-1.687.56-.563 1.12-.563 1.68 0l4.477 4.5 12.779-12.473c.56-.562 1.12-.562 1.68 0z"/></g></g></svg>